<svg viewBox="-1024 -1024 3072 3072" width="40px" height="40px" version="1.1" xmlns="http://www.w3.org/2000/svg">
    <path d="M384.128 352a96 96 0 1 1-192 0 96 96 0 0 1 192 0z" fill="#f4f4f4" />
    <path d="M128.128 64a128 128 0 0 0-128 128v640a128 128 0 0 0 128 128h768a128 128 0 0 0 128-128V192a128 128 0 0 0-128-128h-768z m768 64a64 64 0 0 1 64 64v416l-241.728-124.608a32 32 0 0 0-36.928 5.952l-237.44 237.44-170.24-113.408a32 32 0 0 0-40.32 3.968L64.128 768V192a64 64 0 0 1 64-64h768z" fill="#f4f4f4"/>
</svg>