<?xml version="1.0" standalone="no"?>
<!DOCTYPE svg PUBLIC "-//W3C//DTD SVG 1.1//EN" "http://www.w3.org/Graphics/SVG/1.1/DTD/svg11.dtd" >
<svg xmlns="http://www.w3.org/2000/svg" xmlns:xlink="http://www.w3.org/1999/xlink" version="1.1">
<metadata></metadata>
<defs>
<font id="layiconregular" horiz-adv-x="1014" >
<font-face units-per-em="2048" ascent="1638" descent="-410" />
<missing-glyph horiz-adv-x="508" />
<glyph unicode="&#xd;" horiz-adv-x="508" />
<glyph horiz-adv-x="2048" />
<glyph horiz-adv-x="2048" />
<glyph horiz-adv-x="0" />
<glyph unicode=" "  horiz-adv-x="508" />
<glyph unicode="&#x09;" horiz-adv-x="508" />
<glyph unicode="&#xa0;" horiz-adv-x="508" />
<glyph unicode="!" horiz-adv-x="672" d="M207 136q0 15 16 31l82 84q15 14 29 14q13 0 31 -16l80 -86q12 -16 12 -29q0 -15 -14 -31l-80 -88q-20 -20 -29 -20q-16 0 -29 14l-88 101q-10 13 -10 26zM264 1364q0 46 21 69t62 23q42 0 62.5 -23t20.5 -69l-80 -1036h-37z" />
<glyph unicode="&#x22;" horiz-adv-x="672" d="M101 1500q0 37 20.5 57t59.5 20t60.5 -19.5t21.5 -56.5q0 -8 -4 -34l-62 -359h-30l-62 359q-4 23 -4 33zM413 1500q0 37 20.5 57t59.5 20t60.5 -19.5t21.5 -56.5q0 -8 -4 -34l-62 -359h-30l-62 359q-4 23 -4 33z" />
<glyph unicode="#" horiz-adv-x="1336" d="M117 472l30 98h271l86 290h-295l29 97h295l140 477h93l-141 -477h242l142 477h92l-141 -477h259l-29 -97h-259l-83 -290h279l-30 -98h-280l-140 -472h-92l139 472h-240l-142 -472h-92l140 472h-273zM511 569h242l86 290h-243z" />
<glyph unicode="$" d="M113 1079q0 166 125 271q105 88 266 102v100h73v-102q68 -8 141 -35q10 -6 19 -6q25 0 41 45h50l103 -282h-49q-60 134 -168 179q-74 30 -137 39v-540q241 -93 322.5 -183t81.5 -264q0 -197 -119.5 -300t-284.5 -120v-239h-73v237q-188 3 -266 38q-10 6 -19 6 q-25 0 -41 -45h-50v331h49q50 -183 152.5 -226t174.5 -43v635q-214 67 -299 153q-92 91 -92 249zM219 1139q0 -98 55 -153q52 -54 230 -113v520q-119 -5 -199 -72q-86 -73 -86 -182zM577 45q125 17 211.5 96t86.5 219q0 116 -69 183q-62 59 -229 112v-610z" />
<glyph unicode="%" horiz-adv-x="1610" d="M62 1080q0 100 52 190.5t144.5 139.5t190.5 49t190.5 -49t144.5 -139.5t52 -190.5q0 -99 -50.5 -188.5t-143 -140t-193.5 -50.5q-100 0 -192.5 50.5t-143.5 140t-51 188.5zM202 1128q0 -31 4 -62q13 -92 55.5 -173.5t106.5 -124.5q57 -40 114 -40q7 0 13 1q63 3 115 53 t73 136q13 54 13 111q0 32 -4 65q-12 93 -56 175.5t-107 124.5q-58 38 -115 38h-11q-61 -3 -113 -52t-73 -135q-15 -58 -15 -117zM297 -29l940 1461h84l-938 -1461h-86zM774 359q0 99 52 189.5t144.5 140t190.5 49.5q97 0 190 -49.5t145 -140t52 -189.5q0 -100 -50.5 -189.5 t-143 -139.5t-193.5 -50t-193 50t-143 139.5t-51 189.5zM914 406q0 -31 4 -62q13 -92 55.5 -173.5t106.5 -124.5q59 -39 116 -39h11q63 3 115 53t73 136q13 54 13 111q0 32 -4 65q-12 93 -56 175.5t-107 124.5q-58 38 -115 38h-11q-61 -3 -113 -52t-73 -135 q-15 -58 -15 -117z" />
<glyph unicode="&#x26;" horiz-adv-x="1683" d="M152 520q0 161 76 266.5t225 151.5q-42 61 -62.5 116t-20.5 111q0 105 77 197t182 92q68 0 142 -39q9 -6 18 -6q23 0 38 45h46l96 -281h-46q-55 133 -155 178q-85 37 -141 37q-65 0 -106 -45.5t-41 -117.5q0 -131 102 -267l531 -670q98 146 121 244q17 78 17 130 q0 97 -62 97h-90v50h443v-50h-90q-95 0 -145 -227q-31 -132 -155 -292q109 -136 248 -136h16q143 17 192 128l49 -1l-103 -231h-160q-56 0 -139 25t-167 132q-67 -74 -175 -123.5t-241 -49.5q-229 0 -374.5 150.5t-145.5 385.5zM256 589q0 -91 35.5 -181.5t101.5 -164.5 q72 -83 165 -127t194 -44q88 0 169 33.5t130 90.5l-554 683q-118 0 -179.5 -86t-61.5 -204z" />
<glyph unicode="'" horiz-adv-x="346" d="M101 1500q0 37 20.5 57t59.5 20t60.5 -19.5t21.5 -56.5q0 -8 -4 -34l-62 -359h-30l-62 359q-4 23 -4 33z" />
<glyph unicode="(" horiz-adv-x="758" d="M252 601q2 277 99.5 530t268.5 442h80q-172 -242 -230 -438q-57 -193 -57 -523v-22q0 -330 57 -522q58 -196 230 -438h-80q-171 189 -268.5 441.5t-99.5 529.5z" />
<glyph unicode=")" horiz-adv-x="758" d="M58 -370q172 242 230 438q57 192 57 522v22q0 330 -57 523q-58 196 -230 438h80q171 -189 268.5 -442t99.5 -530q-2 -277 -99.5 -529.5t-268.5 -441.5h-80z" />
<glyph unicode="*" horiz-adv-x="1024" d="M218 1333q0 17 6 36q11 35 36 53q17 12 34 12q9 0 18 -3q20 -6 74 -62q47 -49 112 -75q-4 71 -37 130q-37 66 -37 84q0 32 23.5 51.5t62.5 19.5q37 0 61.5 -18t24.5 -47q0 -21 -36 -89q-33 -61 -37 -130q66 25 113 75q51 55 69 61q11 3 21 3q18 0 35 -10q26 -17 38 -53 q6 -19 6 -36q0 -15 -4 -28q-10 -30 -38 -38q-6 -2 -19 -2q-25 0 -76 9q-28 5 -55 5q-41 0 -81 -11q44 -55 105 -83q68 -32 79 -47q13 -18 13 -38q0 -9 -2 -17q-8 -30 -39 -53q-29 -22 -59 -22q-1 0 -1 1q-31 0 -48 23q-12 17 -22 94q-10 67 -47 125q-38 -58 -46 -124 q-9 -75 -20 -90q-19 -25 -49 -27h-5q-28 0 -57 21q-30 21 -39 51q-4 10 -4 20q0 17 11 32q13 17 83 51q61 29 105 82q-41 11 -80 11q-27 0 -53 -5q-54 -11 -78 -11q-9 0 -14 2q-30 9 -41 38q-6 13 -6 29z" />
<glyph unicode="+" d="M87 647v140h350v369l1 1h139v-370h349l1 -1v-139h-350v-370h-140v370h-350z" />
<glyph unicode="," horiz-adv-x="557" d="M119 91v42l119 125q44 0 88.5 -65.5t44.5 -151.5q0 -109 -71 -226.5t-139 -117.5v43q73 43 87 190q0 119 -129 161z" />
<glyph unicode="-" horiz-adv-x="670" d="M116 437v83q0 29 41 29h356q41 0 41 -29v-83q0 -28 -40 -28h-358q-40 0 -40 28z" />
<glyph unicode="." horiz-adv-x="557" d="M129 136q0 15 16 31l82 84q15 14 29 14q13 0 31 -16l80 -86q12 -16 12 -29q0 -15 -14 -31l-80 -88q-20 -20 -29 -20q-16 0 -29 14l-88 101q-10 13 -10 26z" />
<glyph unicode="/" horiz-adv-x="569" d="M13 -50l541 1484h80l-541 -1484h-80z" />
<glyph unicode="0" />
<glyph unicode="1" />
<glyph unicode="2" />
<glyph unicode="3" />
<glyph unicode="4" />
<glyph unicode="5" />
<glyph unicode="6" />
<glyph unicode="7" />
<glyph unicode="8" />
<glyph unicode="9" />
<glyph unicode=":" horiz-adv-x="557" />
<glyph unicode=";" horiz-adv-x="557" />
<glyph unicode="&#x3c;" />
<glyph unicode="=" />
<glyph unicode="&#x3e;" />
<glyph unicode="?" horiz-adv-x="748" />
<glyph unicode="@" horiz-adv-x="2019" d="M100 508q0 242 124 464.5t345.5 342t456.5 119.5q362 0 609 -230t247 -566q0 -270 -176 -439q-175 -168 -346 -170q-63 1 -100.5 18t-61.5 54q-29 -37 -82 -64.5t-133 -27.5q-144 0 -256.5 100.5t-112.5 233.5q1 87 53 166.5t132.5 115t173.5 49.5q67 16 110 42.5 t43 74.5q-2 69 -41 125t-129 56q-72 0 -121.5 -59t-50.5 -125h-45v159q0 20 72 40q73 20 178 20q109 -2 193.5 -64.5t84.5 -157.5v-589q0 -117 94 -117q185 35 267 191.5t82 382.5q-20 335 -232 540q-197 188 -480 188q-205 0 -392.5 -137.5t-269.5 -355.5 q-67 -178 -67 -361q0 -313 129.5 -511.5t305 -290.5t318.5 -92q274 0 575 208v-75q-263 -184 -571 -184q-240 0 -461 122.5t-343 342t-122 461.5zM753 343q0 -107 64 -194t183 -87q97 5 126 167v476q-54 -63 -154 -83q-83 -10 -151 -80t-68 -199z" />
<glyph unicode="A" horiz-adv-x="2403" d="M170 646v80q0 343 253 668q340 375 790 375h19q448 0 788 -371q166 -191 236 -493q20 -109 20 -176v-83q0 -266 -173 -554q-207 -311 -554 -429h-22q-41 0 -45 61v307q0 107 -67 179q0 8 99 20q142 29 253 128q125 132 125 393q0 159 -106 282q19 74 19 112v25 q0 65 -32 151h-16q-103 0 -272 -112q-137 35 -262 35q-123 0 -266 -35q-160 112 -275 112h-6q-16 0 -36 -128v-61q0 -29 20 -99q-109 -127 -109 -282q0 -367 259 -483q83 -35 218 -54v-4q-46 -48 -64 -140q-58 -32 -119 -32q-132 0 -208 150q-73 80 -150 80q-39 -3 -39 -19 q10 -27 74 -67q43 -37 112 -189q82 -103 198 -103h42l86 10l4 -3v-173q0 -64 -58 -64q-324 101 -547 406q-189 300 -189 580zM247 690q0 -437 326 -748v3q-24 31 -57 115q-27 56 -109 109q-35 45 -35 70v10q0 63 70 89l54 7q57 0 125 -39q-147 162 -147 436v9q0 162 99 301 l-13 106q23 233 77 233q14 7 55 10q112 0 281 -106q140 29 221 29h58q72 0 227 -29q157 106 272 106q96 0 96 -55q26 -49 38 -176l-13 -121q100 -132 100 -298v-13q0 -439 -372 -566l-60 -16q22 -67 22 -138v-268h3q369 149 541 512q93 203 93 432q0 478 -403 809 q-278 186 -528 186h-36l-3 3l-3 -3h-3l-3 3l-4 -3h-38q-232 0 -493 -163q-283 -189 -400 -557q-38 -141 -38 -279zM688 246q58 -85 77 -103q33 -25 71 -25h16q51 0 51 25l3 10q-120 32 -208 86l-6 7h-4zM711 -164v-3q102 -57 173 -83v64l-26 -4q-69 0 -144 26h-3z" />
<glyph unicode="B" horiz-adv-x="2402" d="M115 712v26q0 312 189 592q119 166 281 275q272 176 573 176h26q311 0 592 -189q166 -119 275 -281q176 -272 176 -573v-26q0 -312 -189 -592q-119 -166 -281 -275q-272 -176 -573 -176h-26q-312 0 -592 189q-166 119 -275 281q-176 272 -176 573zM192 712l3 3h6 q71 0 276 -86l16 -6v3q5 94 124 230q189 179 429 179q220 0 432 -169q46 -48 61 -48l13 3q36 0 73 -74h4q73 0 115 212q33 96 86 96l26 -4q28 52 70 52h7q18 0 41 -13q47 25 58 25h19l19 -6v3q-47 106 -125 215q-319 377 -774 377q-418 0 -723 -320q-256 -285 -256 -672z M198 626q0 -155 131 -403h4v32q0 92 102 204q-98 46 -237 170v-3zM224 667q98 -97 179 -134v3l-3 19q0 17 35 36v3l-173 64zM381 248q22 -109 41 -109q0 58 77 116q36 19 67 19h61l3 -3h3q0 45 23 80q0 48 -112 83l-64 6v-3q-99 -103 -99 -170v-19zM445 543q23 -58 89 -58 q112 -29 151 -86q10 -32 57 -52q130 -51 176 -51l83 39l106 12q70 0 202 -44h9q55 0 125 172q22 60 54 205q15 26 68 77v3q-14 16 -42 16q-50 -40 -109 -269q-43 -112 -112 -112q-43 10 -109 39l-32 6q-34 0 -195 -51l-48 -6q-99 0 -243 115q-126 64 -189 64h-6 q-23 0 -35 -19zM451 63q305 -317 720 -317q451 0 765 368q150 185 201 448l13 134q-41 -61 -144 -61q-41 -57 -125 -57q-99 0 -128 -29q-88 -118 -169 -118v-4q128 -132 128 -179l3 -22q0 -108 -131 -151q-14 -6 -51 -6h-4q-133 0 -176 144q-6 14 -6 51q-26 -2 -26 -6 q32 -75 32 -131v-16q0 -95 -118 -112h-54q-247 19 -295 108l-9 45q-21 -13 -48 -13h-4q-73 0 -89 119q3 34 9 45q-32 21 -57 22l-10 -38q0 -30 55 -144l3 -23q0 -46 -93 -77l-45 -6h-19q-54 0 -128 26zM464 114q75 -29 89 -29v16q0 62 -41 102q-48 -36 -48 -89zM534 603 q188 -66 247 -124q61 -48 121 -48h16q46 0 208 51l26 3q22 0 137 -38l13 -4q62 0 96 192q28 78 71 167q0 40 -244 150q-94 32 -172 32h-10q-306 0 -474 -278q-35 -75 -35 -103zM560 219q41 -62 41 -128l-3 -12h16v3q0 88 -41 144h-7zM621 226q35 -70 35 -122v-13l32 26 q0 18 -45 102v7h-22zM784 242q5 -55 54 -55q55 14 55 52l3 12l-109 32v-3l-3 -19v-19zM918 175q0 -82 128 -112h3q35 98 109 140q59 36 122 42q-25 54 -199 54h-16q-121 -23 -121 -51q-26 -32 -26 -73zM1094 53h3l100 -3l3 -3h3v6q0 43 -54 86q-39 -42 -55 -86zM1187 165 q31 0 61 -112v-3l25 3q-23 128 -67 128q-19 -7 -19 -13v-3zM1261 200q48 -63 48 -96h3v32q0 33 -16 67h-13zM1385 283q0 -71 45 -134h3v38q0 99 148 186v3q-54 61 -93 61h-3q-30 -87 -93 -150l-3 -4h-4zM1481 165q0 -48 16 -48l23 -3h38l7 6q0 56 -68 112q-10 0 -16 -67z M1501 482h3l51 -3h32q67 0 131 92q42 56 211 58q22 0 29 13q-52 0 -118 80l-7 22q19 16 32 16q7 0 36 -41q53 -39 121 -39h3q81 0 100 67q-42 64 -90 64l-99 -19h-13q-67 0 -96 112v26l10 73h-10q-18 0 -77 -192q-44 -118 -131 -118l-42 10q-35 -25 -48 -93 q-27 -83 -28 -128zM1523 264q35 0 77 -115l3 -19h3l23 19v3q0 60 -90 138q-16 -13 -16 -26zM1577 319q80 -82 87 -125h3l3 22q0 71 -61 119zM1878 904q13 -70 61 -70l29 32q-46 0 -51 57q0 39 32 68h9q17 0 29 -10v3q-9 39 -54 77q-45 -14 -55 -118v-39zM2003 1061 q26 -49 26 -74h3q0 15 22 26h10l22 -6v3q-18 64 -64 64zM2019 856l3 -3h13q25 0 42 38q-25 0 -45 16q0 -19 -13 -51zM2089 837l58 -54v6l-13 125q-7 0 -13 -35z" />
<glyph unicode="C" horiz-adv-x="2397" d="M151 739v26q0 436 346 768q209 178 403 227l35 9h16q100 0 202 -92h96q108 92 198 92h16q206 -34 445 -233q349 -332 349 -771v-26q0 -446 -362 -784q-312 -256 -678 -256h-26q-446 0 -784 362q-256 312 -256 678zM228 752q0 -375 265 -669q304 -307 711 -307 q482 0 803 419q173 263 173 557q0 475 -410 797q-191 118 -265 128q0 -39 -74 -39q-93 -34 -93 -57l-3 -4v-374q-9 -38 -35 -38h-195q-36 5 -36 35v377q-48 64 -144 64q-25 10 -25 39q-382 -142 -554 -461q-118 -223 -118 -467zM503 249v4l442 723h-378v-93l-6 -6h-29l-7 6 v128l7 6h477l6 -6l-438 -720h396v102l7 7h29l6 -7v-137l-6 -7h-506zM935 1680h3l23 -3v3l6 51h-3l-26 3v-3zM986 1670l23 -6v3l19 48l-29 10q-13 -34 -13 -55zM1031 1651l19 -10q29 41 29 48l-26 13q-22 -41 -22 -51zM1069 1625l20 -12l38 38l-19 16h-3zM1098 256v29l7 6h76 v685h-76l-7 6v29l7 6h195l6 -6v-29l-6 -6h-77v-685h77l6 -6v-29l-6 -7h-195zM1108 1203h189v266h-52l-6 6v86h-77v-86l-6 -6h-48v-266zM1108 1507h29l3 -3h3l3 3v67l7 7h99l6 -7v-67h39v83q0 8 -45 48h-106l-38 -45v-86zM1146 1248v61l7 6h99l6 -6v-61l-6 -7h-99zM1277 1648 l39 -39l16 20l-35 41zM1322 1686l29 -45l22 13l-25 48l-26 -13v-3zM1361 256v29l6 6h83v685h-83l-6 6v29l6 6h285q179 0 227 -131q16 -55 16 -86q0 -136 -128 -189q-55 -13 -102 -13h-173v-307h80l6 -6v-29l-6 -7h-205zM1377 1712l19 -48l22 6l-13 55q-28 -7 -28 -13z M1434 1731l7 -54h3l22 3v48l-6 6zM1492 640h150q151 0 195 93q13 43 13 67v6q0 116 -118 157q-44 13 -99 13h-141v-336z" />
<glyph unicode="D" horiz-adv-x="1518" d="M30 714v26q0 312 189 592q119 166 281 275q272 176 573 176h26q311 0 592 -189q166 -119 275 -281q176 -272 176 -573v-26q0 -312 -189 -592q-119 -166 -281 -275q-272 -176 -573 -176h-26q-312 0 -592 189q-166 119 -275 281q-176 272 -176 573zM105 715 q0 -280 164 -532q101 -151 255 -261q260 -176 550 -176h24q280 0 532 164q151 101 261 255q176 260 176 550v24q0 280 -163 532q-102 151 -256 261q-261 176 -550 176h-24q-280 0 -532 -163q-151 -102 -261 -256q-176 -260 -176 -550v-24z" />
<glyph unicode="E" horiz-adv-x="2397" d="M120 -98v1388l2 2h94v34l4 13h-3v116l1 1v2l-1 1l1 1h2v-1l1 1h791q11 0 14 -5l1 4h5v-3h2v3h10l1 -1l1 1h2q48 -4 48 -7l1 1h1q32 -7 44 -13l3 -3l1 1h1l7 -3l-2 -5l1 -1l-1 -1h1l3 2l-2 1v3h4l1 -5h-2l2 -3l1 4h3l18 -14q2 -8 7 -8l6 -10v-3l-1 -1v-1q5 -1 5 -4v-2 l-2 -1l3 -9h1q0 6 4 10l-2 1v1q3 6 5 6l1 -1l-1 4q0 7 22 26q3 0 3 4l21 10l3 -1v1l2 -1h2l-1 1v3l30 8l3 -1q0 4 11 5l1 -1q0 3 39 6l1 -2l2 3h11l11 -1l4 1l2 -3q0 3 5 4l1 -1l6 1h792l1 -1h1l2 1l1 -1l-1 -1l1 -9v-96l-1 -7l2 -10v-44h100l2 -2v-1388l-2 -2h-2162z M300 80h719l11 -2l4 1v-1l2 1h2l5 -1l3 1v-1l2 1h3l1 -1l2 1h1l1 -1l1 1l12 -1h7l4 -3l1 1h1q6 0 6 -2l2 1h8l2 -2l2 1h1q56 -11 56 -18l1 1h2q6 -2 6 -7l1 1h1l1 -1l1 1q16 -10 24 -29v-7h3v-3l-3 -4l2 -1h3q0 20 19 39q3 0 12 8q4 0 4 2l1 -1h3l2 2l-1 1l21 8l2 -2 q0 4 8 4v-2h1q1 4 4 4h2l4 -1v1q0 3 29 5v1l1 -1h1l17 3l7 -3h1v1h-2l2 3h5l1 -1l1 1h18l2 -1l1 1h5l4 -1l8 2h716v1296h-29l-3 1l-6 -1h-63l-3 1l-6 -1h-95l-5 1l-5 -1h-1l-1 1l-1 -1h-146l-1 1l-1 -1h-1l-1 1l-2 -1h-225l-1 1l-2 -1h-54l-13 1l-9 -1h-5l-1 1l-2 -1h-15 l-5 1l-1 -1h-1l-4 1l-4 -1v1l-10 -2v1l-2 -1h-6l-1 1h-1l-2 -2l-2 1h-1l-6 -1l-2 2v-1l1 -1h-2l-2 -2l-4 5l-2 -1h-1l-1 1h-1v-1l2 -2v-3l-7 -1l-1 1q0 -1 -17 -6l-4 1v-2h-7v-2h-1l-1 1h-1l-3 -3l-1 2h-1q0 -3 -29 -16q-20 -22 -24 -22v-1h2v-1l-2 -2l-1 1h-1l-2 -1v-2h3 v-1l-6 -20l1 -1l-2 -22l2 -2v-20q0 -25 -23 -32q-7 -5 -14 -5h-10q-10 0 -23 10l-4 2l1 1v4l-1 -1h-3l-5 6v7h-2v55l-2 13l1 2v1q-5 0 -9 8h-1v1l1 2v1q-4 0 -13 12q-18 12 -33 19q-11 2 -20 7l-1 -1l-1 1v1h2v2h-1l-6 -3q0 3 -9 3l-2 3l-1 -1h-5q-8 0 -9 4l1 1l-1 1h-1v-1 l1 -1l-1 -2h-4l-7 3l-5 -1l-16 2l-1 -1l-14 2l-1 -1h-2l-6 1l-7 -1l-1 1l-6 -1h-678v-1296zM1133 1440l3 -3v1l-3 3v-1zM1158 1306h1l1 5q-2 0 -2 -3v-2zM1163 1422l5 -4l1 1l-1 4l-2 -1h-1l-1 1h-1v-1zM1170 44h1l3 2h-2zM1181 1401l6 1v2l-5 1l-1 -1v-3zM1182 1399h2v-1 l4 1v2l-6 -1v-1zM1190 1372l5 -3h1v1q-4 0 -4 5h-2v-3zM1192 1386l2 2l-2 2v-1h1l-1 -1v-2zM1231 1419l4 -1v1l-3 3l-1 -2v-1zM1234 49l2 -3l-1 -1l1 -1h1l1 1v1l-4 4v-1zM1324 74l1 -1h1l1 1v1l-1 1h-1l-1 -1v-1zM1363 74l1 -1h2l1 1v1l-1 1h-2l-1 -1v-1z" />
<glyph unicode="F" horiz-adv-x="2386" d="M208 192v1300q0 69 75 102q19 4 31 4h1732q69 0 102 -74q4 -20 4 -32v-1300q0 -68 -75 -101q-19 -5 -31 -5h-596v-183h217q21 -4 21 -21v-24q-4 -20 -21 -20h-974q-21 3 -21 20v24q4 21 21 21h217v183h-596q-69 0 -102 75q-4 19 -4 31zM316 194h1728v1296h-1728v-1296z M511 864v1l281 281h1l99 -99v-1l-181 -181v-1l181 -182v-1l-99 -98h-1zM1000 674l275 474l115 -67l-276 -474zM1468 681v1l181 182v1l-181 181v1l99 99h1l281 -281v-1l-281 -281h-1z" />
<glyph unicode="G" horiz-adv-x="1902" d="M155 -14q0 52 40 115l574 906v456h-73q-29 0 -51 21.5t-22 51.5t22 51.5t51 21.5h585q30 0 52 -21.5t22 -51.5t-22 -51.5t-52 -21.5h-73v-456l575 -906q40 -63 40 -115q0 -32 -15 -60q-40 -72 -161 -72h-1316q-122 0 -161 72q-15 28 -15 60zM582 439h814l-311 490l-23 36 v42v456h-146v-456v-42l-23 -36z" />
<glyph unicode="H" horiz-adv-x="2048" d="M0 37v1243q0 75 53.5 129t129.5 54h1682q76 0 129.5 -54t53.5 -129v-1243q0 -76 -53.5 -129.5t-129.5 -53.5h-1682q-76 0 -129.5 53.5t-53.5 129.5zM146 37q0 -15 11 -26t26 -11h1682q15 0 26 11t11 26v877q-37 -41 -79 -75q-306 -236 -487 -386q-58 -50 -94.5 -77 t-99 -55t-117.5 -28h-1h-1q-55 0 -117.5 28t-99 55t-94.5 77q-181 150 -487 386q-42 34 -79 75v-877zM146 1280q0 -192 168 -325q221 -173 459 -362q6 -6 39.5 -34t53 -42.5t50.5 -36t57.5 -31.5t49.5 -10h1h1q23 0 49.5 10t57.5 31.5t50.5 36t53 42.5t39.5 34 q238 189 459 362q61 50 114.5 132.5t53.5 150.5v12.5v15.5t-0.5 14.5t-3.5 14t-6.5 10.5t-10.5 9t-16 3h-1682q-15 0 -26 -11t-11 -26z" />
<glyph unicode="I" horiz-adv-x="2487" d="M88 534v23q0 357 227 667q29 45 146 161q70 60 135 102q288 185 607 185h20q359 0 669 -225q52 -37 149 -136q117 -133 156 -215q144 -259 144 -539v-23q0 -323 -190 -616q-41 -62 -88 -107q-76 -62 -166 -62h-10q-72 0 -143 45q-251 132 -531 132q-302 0 -577 -159 q-49 -18 -90 -18h-19q-136 0 -233 147q-206 299 -206 638zM651 546q0 -251 202 -433q165 -131 361 -131q251 0 433 202q131 165 131 362q0 250 -202 432q-165 131 -362 131q-251 0 -432 -202q-131 -165 -131 -361z" />
<glyph unicode="J" horiz-adv-x="2411" d="M60 380q0 144 87 306.5t248 324.5q211 211 429 296q102 39 176 39q84 0 132 -49q48 -47 48 -131q0 -57 -23 -130q-5 -18 -1.5 -25.5t12.5 -8.5t18 0.5t17 3.5l8 4q174 73 308.5 73t191.5 -77q29 -39 29 -95t-29 -127q-2 -17 -5.5 -25.5t5.5 -16t15.5 -9.5t20.5 -8 q72 -21 130 -58t100 -103t42 -146q0 -84 -46 -174t-136.5 -172.5t-211 -147t-283 -103.5t-339.5 -39t-345 41.5t-301.5 116.5t-215 189.5t-81.5 250.5zM286 323q0 -16 1 -32q11 -121 111.5 -213.5t261.5 -136.5q115 -32 241 -32q51 0 104 6q278 28 461 176q168 136 168 301 q0 15 -1 32q-11 120 -111.5 213t-261.5 137q-115 32 -241 32q-51 0 -102 -6q-280 -30 -464 -178q-167 -135 -167 -299zM555 287q0 62 32 127q59 116 190 173q83 38 165 38q49 0 99 -14q139 -36 198 -149q31 -59 31 -121q0 -58 -27 -118q-57 -128 -199 -189q-81 -34 -161 -34 q-59 0 -120 20q-134 43 -185 159q-23 53 -23 108zM677 237q0 -12 4 -25q11 -43 54 -64q23 -11 49 -11q21 0 44 9q50 17 78 59q17 30 17 60q0 13 -3 27q-12 44 -56 63q-22 8 -46 8q-22 0 -45 -7q-49 -17 -76 -57q-20 -31 -20 -62zM944 390q-8 -14 -8 -25q0 -20 25 -31 q17 -7 36 -0.5t27 23.5q10 16 4.5 33t-21.5 24q-18 5 -36 -1.5t-27 -22.5zM1521 1487q-2 9 -2 18q0 25 14 47q19 29 54 37q63 13 125 13q91 0 181 -27q152 -48 261 -169t141 -279q13 -64 13 -124q0 -92 -30 -180q-12 -33 -43 -49q-19 -10 -38 -10q-13 0 -27 4q-33 11 -50 43 q-10 20 -10 40q0 13 4 25q22 62 22 129q0 43 -9 87q-23 113 -101 198q-78 86 -185 120q-64 20 -129 20q-44 0 -89 -10q-9 -2 -18 -2q-25 0 -47 14q-30 20 -37 55zM1595 1203q-7 29 9.5 55t46.5 32q30 7 60 7q45 0 89 -14q75 -23 127.5 -82t67.5 -135q7 -32 7 -62 q0 -45 -14 -87q-11 -28 -38 -42t-56 -5q-28 10 -42 37t-5 55q8 25 8 46q0 52 -39 94q-42 47 -101 47q-16 0 -32 -3q-31 -7 -57.5 9.5t-30.5 47.5z" />
<glyph unicode="K" horiz-adv-x="1806" d="M85 274v69q0 178 191 383q-12 25 -23 69q39 115 39 138q20 30 38 30q0 430 406 597q91 31 206 31q432 0 590 -490q7 -65 7 -107v-8q69 -72 69 -168q0 -41 -15 -77q168 -195 168 -375v-46q-9 -140 -46 -160h-23q-75 40 -107 137h-7q-27 -95 -123 -222q130 -41 130 -137 q8 -13 8 -39v-23q0 -117 -306 -137h-39q-150 0 -267 92h-108q-132 -100 -290 -100q-330 27 -330 161q0 112 115 176h16q-115 162 -115 214q-70 -97 -107 -122h-39q-38 17 -38 114z" />
<glyph unicode="L" horiz-adv-x="2130" d="M70 857v8q17 29 67 29q56 10 129 16q72 10 123 13q70 11 239 28q70 10 103 12q29 11 39 27q13 18 72 147l157 326q15 35 61 128q19 24 33 24h7q19 0 37 -41q3 0 10 -24q41 -86 88 -191q126 -282 145 -326q24 -53 27 -53q14 -26 75 -26q38 -6 157 -17q0 -2 77 -7 q214 -24 314 -30q9 -4 62 -9q19 -13 27 -26v-10q-3 -1 -20 -29q-197 -182 -258 -244q-6 0 -26 -22l-101 -94q-49 -46 -49 -48q-43 -35 -43 -60q0 -12 12 -75l-3 -1q-114 0 -241 8l-3 -2q-59 7 -202 14q-31 6 -155 15q-18 5 -45 5l-1 4v2q9 10 34 25q60 44 428 297q0 2 84 60 q92 63 108 77v3q0 10 -62 14q-109 17 -114 17q-2 0 -2 -2q-100 16 -350 23q-249 -7 -401 -24q-11 0 -214 -31q-49 -9 -49 -14q0 -6 34 -8q6 1 15 1v-1q2 0 2 1q2 0 5 -1q76 -2 118 -2h3q89 -7 168 -7v-2l3 2q89 -5 104 -5v-2q2 0 2 2l8 -2h16q63 -6 147 -10q5 0 191 -24h5 q3 0 3 -3v-2q-17 -15 -88 -63q-152 -111 -292 -208q-157 -114 -217 -154q-57 -41 -58 -41v-2q0 -9 7 -12h15q107 -13 126 -13h11q27 -7 124 -11v-1q2 0 2 1q3 0 3 -1q105 -2 168 -5h56q138 5 159 5l3 1q2 0 2 -1q39 5 55 5v-2l3 2h8l166 17q0 2 26 5v-2q15 5 61 9q4 4 72 13 q10 5 37 9q0 2 33 7q0 3 8 3h4q3 0 3 -3q-42 -26 -118 -51q0 -3 -3 -11q7 -14 22 -112q-1 -10 -1 -14q13 -54 15 -84q5 -11 29 -148q8 -37 12 -67q14 -47 14 -90q0 -23 -21 -29q-12 -2 -14 -2q-26 8 -177 99q-130 74 -152 89l-191 109q-56 38 -89 38q-27 0 -96 -43 l-331 -193q-3 0 -97 -56q-64 -38 -72 -38q-9 -5 -12 -5q-31 5 -31 20q-1 2 -1 14q0 31 30 183l26 136q48 254 53 274q12 71 12 76v6q0 13 -38 44q-82 78 -268 248q-1 3 -84 78q-107 94 -107 109z" />
<glyph unicode="M" horiz-adv-x="1902" d="M0 73v732q0 29 21.5 51t51.5 22h329q30 0 51.5 -22t21.5 -51v-732q0 -30 -21.5 -51.5t-51.5 -21.5h-329q-30 0 -51.5 21.5t-21.5 51.5zM146 219q0 -30 21.5 -51.5t51.5 -21.5t52 21.5t22 51.5t-22 52t-52 22t-51.5 -22t-21.5 -52zM549 73v733q0 28 20.5 49.5t48.5 23.5 t87.5 67t115.5 139q77 99 115 137q21 20 35.5 54.5t20 55.5t15.5 69q8 45 14 70t22 59.5t39 56.5q22 22 52 22q52 0 94 -12t68.5 -29.5t45.5 -46t27.5 -51.5t14 -57.5t6 -51.5t0.5 -44q0 -44 -11 -87.5t-22 -68.5t-31 -64q-4 -7 -12 -20.5t-12.5 -25t-8.5 -27.5h316 q89 0 154.5 -65t65.5 -154q0 -99 -63 -171q17 -50 17 -87v-9q0 -80 -49 -147q10 -32 10 -65.5t-10 -68.5q-17 -65 -62 -107q1 -17 1 -33q0 -106 -57 -174q-73 -87 -225 -89h-41h-87h-20q-75 0 -164 17.5t-139 33t-138 45.5q-140 49 -180 50q-30 1 -51.5 22t-21.5 51z" />
<glyph unicode="N" horiz-adv-x="1902" d="M0 512q0 -30 21.5 -51.5t51.5 -21.5h329q30 0 51.5 21.5t21.5 51.5v731q0 30 -21.5 52t-51.5 22h-329q-30 0 -51.5 -22t-21.5 -52v-731zM146 1097q0 31 21.5 52t51.5 21t52 -21t22 -52q0 -30 -22 -51.5t-52 -21.5t-51.5 21.5t-21.5 51.5zM549 511v732q0 30 21.5 51 t51.5 23q40 1 180 50q88 30 138 45t139 33t164 18h20h87h41q152 -2 225 -89q57 -69 57 -174q0 -16 -1 -33q45 -42 62 -108q10 -34 10 -67.5t-10 -65.5q49 -66 49 -148v-9q0 -36 -17 -87q63 -69 63 -170q-2 -89 -66.5 -154t-153.5 -65h-316q4 -16 8.5 -27.5t12.5 -25.5 l12 -21q20 -42 30.5 -65t22 -67t11.5 -87q0 -27 -0.5 -44.5t-6 -51.5t-14 -57t-27.5 -51.5t-45.5 -46.5t-68.5 -30t-94 -12q-30 0 -52 22q-23 23 -39 57.5t-22 59.5t-14 69q-10 48 -15.5 69.5t-20 55.5t-35.5 55q-38 38 -115 137q-56 73 -115.5 138t-87.5 68q-28 2 -48.5 23 t-20.5 50z" />
<glyph unicode="O" horiz-adv-x="1755" d="M0 731.5q0 238.5 117.5 440.5t319.5 319.5t441 117.5t440.5 -117.5t319 -319.5t117.5 -440.5t-117.5 -440.5t-319 -319.5t-440.5 -117.5t-441 117.5t-319.5 319.5t-117.5 440.5zM395 731.5q0 -29.5 22 -51.5l519 -519q22 -22 51.5 -22t51.5 22l116 117q22 21 22 51 t-22 52l-350 350l350 351q22 22 22 51.5t-22 51.5l-116 117q-22 21 -51.5 21t-51.5 -21l-519 -519q-22 -22 -22 -51.5z" />
<glyph unicode="P" horiz-adv-x="1755" d="M0 731.5q0 238.5 117.5 440.5t319.5 319.5t441 117.5t440.5 -117.5t319 -319.5t117.5 -440.5t-117.5 -440.5t-319 -319.5t-440.5 -117.5t-441 117.5t-319.5 319.5t-117.5 440.5zM578 329q0 -30 22 -51l117 -117q21 -22 51 -22t51 22l519 519q22 22 22 51.5t-22 51.5 l-519 519q-21 21 -51 21t-51 -21l-117 -117q-22 -22 -22 -51.5t22 -51.5l351 -351l-351 -350q-22 -22 -22 -52z" />
<glyph unicode="Q" horiz-adv-x="1755" d="M0 731.5q0 238.5 117.5 440.5t319.5 319.5t441 117.5t440.5 -117.5t319 -319.5t117.5 -440.5t-117.5 -440.5t-319 -319.5t-440.5 -117.5t-441 117.5t-319.5 319.5t-117.5 440.5zM286 621.5q0 -29.5 21 -51.5l117 -116q22 -22 51.5 -22t51.5 22l351 351l351 -351 q21 -22 51 -22t51 22l117 116q22 22 22 51.5t-22 51.5l-519 519q-22 22 -51.5 22t-51.5 -22l-519 -519q-21 -22 -21 -51.5z" />
<glyph unicode="R" horiz-adv-x="1755" d="M0 731.5q0 238.5 117.5 440.5t319.5 319.5t441 117.5t440.5 -117.5t319 -319.5t117.5 -440.5t-117.5 -440.5t-319 -319.5t-440.5 -117.5t-441 117.5t-319.5 319.5t-117.5 440.5zM286 841q0 -30 21 -51l519 -519q22 -22 51.5 -22t51.5 22l519 519q22 21 22 51t-22 52 l-117 116q-21 22 -51 22t-51 -22l-351 -351l-351 351q-22 22 -51.5 22t-51.5 -22l-117 -116q-21 -22 -21 -52z" />
<glyph unicode="S" horiz-adv-x="1609" d="M0 1609h1609l-146 -1643l-661 -185l-656 185zM299 1273l54 -610h700l-26 -261l-225 -60l-224 60l-15 160h-200l26 -317l413 -115h5v1l410 114l57 621h-736l-17 207h770l19 200h-1011z" />
<glyph unicode="T" horiz-adv-x="1902" d="M0 567q0 271 155 452q-30 94 -30 195q0 132 58 249q123 0 217 -45t216 -141q168 40 353 40q169 0 320 -37q120 94 214 138.5t216 44.5q58 -117 58 -249q0 -100 -31 -192q156 -183 156 -455q0 -237 -70 -378q-43 -88 -120.5 -152t-161.5 -98.5t-194 -54.5t-196 -25 t-191 -5q-89 0 -162 3.5t-168.5 14t-174.5 34t-156.5 59t-138 92.5t-98.5 132q-71 140 -71 378zM256 366q0 -101 36.5 -176t92.5 -117.5t139.5 -68.5t160 -34t170.5 -8h192q94 0 170.5 8t160 34t139.5 68.5t92.5 117.5t36.5 176q0 137 -79 233t-214 96q-47 0 -223 -24 q-81 -13 -179 -13t-180 13q-173 24 -222 24q-135 0 -214 -96t-79 -233zM439 365.5q0 45.5 14 93.5t49 87t83 39t83 -39t49 -87t14 -93.5t-14 -93.5t-49 -87t-83 -39t-83 39t-49 87t-14 93.5zM1170 365.5q0 45.5 14.5 93.5t49.5 87t83 39t82.5 -39t48.5 -87q15 -50 15 -97 q-1 -44 -15 -90q-14 -48 -48.5 -87t-82.5 -39t-83 39t-49.5 87t-14.5 93.5z" />
<glyph unicode="U" horiz-adv-x="1755" d="M0 731.5q0 238.5 117.5 440.5t319.5 319.5t441 117.5t440.5 -117.5t319 -319.5t117.5 -440.5t-117.5 -440.5t-319 -319.5t-440.5 -117.5t-441 117.5t-319.5 319.5t-117.5 440.5zM146 731.5q0 -148.5 58.5 -284t156 -233t233 -156t284 -58.5t284 58.5t233.5 156t156 233 t58 284t-58 284t-156 233t-233.5 156t-284 58.5t-284 -58.5t-233 -156t-156 -233t-58.5 -284zM439 1024q0 61 43 103.5t103.5 42.5t103 -42.5t42.5 -103.5t-42.5 -103.5t-103 -42.5t-103.5 42.5t-43 103.5zM459 527q-9 28 5 55t43 36t56 -4.5t36 -43.5q28 -91 105.5 -147.5 t173.5 -56.5t173 56.5t106 147.5q9 30 36.5 43.5t56 4.5t42 -36t4.5 -55q-42 -138 -157.5 -223t-260.5 -85t-260.5 85t-158.5 223zM1024 1024q0 61 43 103.5t103.5 42.5t103.5 -42.5t43 -103.5t-43 -103.5t-103.5 -42.5t-103.5 42.5t-43 103.5z" />
<glyph unicode="V" horiz-adv-x="2194" d="M0 329v1244q0 75 53.5 128.5t129.5 53.5h1828q76 0 129.5 -53.5t53.5 -128.5v-1244q0 -75 -53.5 -129t-129.5 -54h-621q0 -42 18 -88.5t36.5 -81t18.5 -49.5q0 -30 -22 -51.5t-51 -21.5h-585q-30 0 -52 21.5t-22 51.5q0 16 18.5 50t37 80t18.5 89h-622q-76 0 -129.5 54 t-53.5 129zM146 622q0 -15 11 -26t26 -11h1828q15 0 26 11t11 26v951q0 14 -11 25t-26 11h-1828q-15 0 -26 -11t-11 -25v-951z" />
<glyph unicode="W" horiz-adv-x="2194" d="M0 110v109h183h1828h183v-109q0 -46 -53.5 -78t-129.5 -32h-1828q-76 0 -129.5 32t-53.5 78zM293 475v805q0 75 53.5 129t128.5 54h1244q75 0 129 -54t54 -129v-805q0 -75 -54 -128.5t-129 -53.5h-1244q-75 0 -128.5 53.5t-53.5 128.5zM439 475q0 -14 11 -25t25 -11h1244 q15 0 25.5 11t10.5 25v805q0 15 -10.5 26t-25.5 11h-1244q-14 0 -25 -11t-11 -26v-805zM987 128q0 -18 19 -18h183q18 0 18 18t-18 18h-183q-19 0 -19 -18z" />
<glyph unicode="X" horiz-adv-x="1317" d="M0 183v1243q0 76 53.5 129.5t129.5 53.5h951q75 0 129 -53.5t54 -129.5v-1243q0 -76 -54 -129.5t-129 -53.5h-951q-76 0 -129.5 53.5t-53.5 129.5zM146 329q0 -15 11 -25.5t26 -10.5h951q15 0 25.5 10.5t10.5 25.5v1097q0 15 -10.5 26t-25.5 11h-951q-15 0 -26 -11 t-11 -26v-1097zM585 146.5q0 -29.5 22 -51.5t51.5 -22t51 22t21.5 51.5t-21.5 51t-51 21.5t-51.5 -21.5t-22 -51z" />
<glyph unicode="Y" horiz-adv-x="878" d="M0 146v1171q0 59 43.5 102.5t102.5 43.5h585q60 0 103.5 -43.5t43.5 -102.5v-1171q0 -59 -43.5 -102.5t-103.5 -43.5h-585q-59 0 -102.5 43.5t-43.5 102.5zM110 329q0 -15 10.5 -25.5t25.5 -10.5h585q15 0 26 10.5t11 25.5v805q0 15 -11 25.5t-26 10.5h-585 q-15 0 -25.5 -10.5t-10.5 -25.5v-805zM329 1298.5q0 -18.5 18 -18.5h183q19 0 19 18.5t-19 18.5h-183q-18 0 -18 -18.5zM347 146.5q0 -37.5 27 -64.5t65 -27t64.5 27t26.5 64.5t-26.5 64.5t-64.5 27t-65 -27t-27 -64.5z" />
<glyph unicode="Z" horiz-adv-x="731" d="M51 658q0 15 12 27l532 532q12 12 27 12t26 -12l57 -57q12 -11 12 -26t-12 -27l-449 -449l449 -449q12 -11 12 -26t-12 -26l-57 -58q-11 -11 -26 -11t-27 11l-532 533q-12 11 -12 26z" />
<glyph unicode="[" horiz-adv-x="731" d="M15 183q0 15 11 26l449 449l-449 449q-11 12 -11 27t11 26l57 57q12 12 27 12t26 -12l533 -532q11 -12 11 -27t-11 -26l-533 -533q-11 -11 -26 -11t-27 11l-57 58q-11 11 -11 26z" />
<glyph unicode="\" horiz-adv-x="1317" d="M88 402q0 15 11 27l533 532q11 12 26 12t27 -12l532 -532q12 -12 12 -27t-12 -26l-57 -57q-11 -12 -26 -12t-27 12l-449 449l-449 -449q-11 -12 -26 -12t-26 12l-58 57q-11 11 -11 26z" />
<glyph unicode="]" horiz-adv-x="1317" d="M88 914q0 15 11 27l58 57q11 11 26 11t26 -11l449 -449l449 449q12 11 27 11t26 -11l57 -57q12 -12 12 -27t-12 -26l-532 -533q-12 -11 -27 -11t-26 11l-533 533q-11 11 -11 26z" />
<glyph unicode="^" horiz-adv-x="2048" d="M0 37v907q50 -56 115 -99q414 -282 568 -395q66 -48 106.5 -74.5t108 -54.5t125.5 -28h1h1q58 0 125.5 28t108 54.5t106.5 74.5q194 141 569 395q65 44 114 99v-907q0 -76 -53.5 -129.5t-129.5 -53.5h-1682q-76 0 -129.5 53.5t-53.5 129.5zM0 1255q0 89 47.5 148.5 t135.5 59.5h1682q74 0 128.5 -54t54.5 -129q0 -90 -56 -172.5t-139 -140.5q-430 -298 -535 -372q-12 -8 -49 -34.5t-61.5 -43t-59.5 -37.5t-66 -31t-57 -10h-1h-1q-26 0 -57 10t-66 31t-59.5 37.5t-61.5 43t-49 34.5q-104 74 -299.5 209t-233.5 163q-71 48 -134 132t-63 156 z" />
<glyph unicode="_" horiz-adv-x="2194" d="M0 627v212q0 11 8 22t18 12l177 28q13 40 37 86q-39 55 -103 132q-8 12 -8 23q0 13 8 23q25 34 93.5 101.5t90.5 67.5q13 0 24 -8l132 -103q38 20 88 36q12 124 26 176q8 28 34 28h213q12 0 22.5 -8.5t11.5 -20.5l26 -175q39 -11 86 -35l135 102q9 8 23 8q12 0 24 -9 q164 -152 164 -183q0 -11 -8 -22q-13 -18 -47.5 -61.5t-51.5 -68.5q26 -55 39 -94l173 -26q12 -3 20 -12.5t8 -22.5v-211q0 -11 -8 -22t-18 -12l-178 -28q-12 -40 -36 -87q39 -54 103 -131q8 -11 8 -23q0 -14 -8 -22q-27 -34 -95 -102t-89 -68q-13 0 -24 8l-132 103 q-42 -22 -88 -35q-12 -124 -26 -178q-8 -27 -34 -27h-213q-12 0 -22.5 8.5t-11.5 20.5l-26 174q-39 12 -86 36l-135 -102q-8 -8 -23 -8q-12 0 -24 9q-164 152 -164 183q0 10 8 22q11 16 46.5 60.5t53.5 69.5q-26 50 -40 94l-174 27q-11 1 -19 11t-8 22zM439 731.5 q0 -121.5 85.5 -207t207 -85.5t207 85.5t85.5 207t-85.5 207t-207 85.5t-207 -85.5t-85.5 -207zM1317 66v160q0 19 170 36q15 33 34 59q-58 129 -58 158q0 4 4 8q5 2 40.5 22.5t67.5 39t34 18.5q9 0 52.5 -53t59.5 -77q23 2 34.5 2t34.5 -2q58 81 105 128l7 2q4 0 141 -80 q5 -4 5 -8q0 -29 -58 -158q19 -26 34 -59q170 -17 170 -36v-160q0 -18 -170 -35q-14 -31 -34 -60q58 -129 58 -157q0 -5 -5 -8q-139 -81 -141 -81q-9 0 -52.5 53.5t-59.5 77.5q-23 -2 -34.5 -2t-34.5 2q-16 -24 -59.5 -77.5t-52.5 -53.5q-2 0 -142 81q-4 3 -4 8q0 28 58 157 q-20 29 -34 60q-170 17 -170 35zM1317 1237v160q0 18 170 35q15 33 34 59q-58 130 -58 158q0 5 4 8q5 2 40.5 23t67.5 39t34 18q9 0 52.5 -53t59.5 -77q23 2 34.5 2t34.5 -2q58 81 105 128l7 2q4 0 141 -80q5 -3 5 -8q0 -28 -58 -158q19 -26 34 -59q170 -17 170 -35v-160 q0 -19 -170 -36q-14 -31 -34 -59q58 -129 58 -158q0 -5 -5 -8q-139 -81 -141 -81q-9 0 -52.5 53.5t-59.5 77.5q-23 -2 -34.5 -2t-34.5 2q-16 -24 -59.5 -77.5t-52.5 -53.5q-2 0 -142 81q-4 3 -4 8q0 29 58 158q-20 28 -34 59q-170 17 -170 36zM1609 146q0 -60 43 -103 t103.5 -43t103.5 43t43 103t-43.5 103.5t-103 43.5t-103 -43.5t-43.5 -103.5zM1609 1317q0 -61 43 -104t103.5 -43t103.5 43t43 104q0 59 -43.5 102.5t-103 43.5t-103 -43.5t-43.5 -102.5z" />
<glyph unicode="`" horiz-adv-x="1755" d="M0 607v254q0 13 9 25.5t22 15.5l212 32q16 52 45 105q-46 65 -122 158q-12 13 -12 27q0 11 11 26q29 41 112 123t108 82q15 0 30 -12l158 -122q50 26 104 44q18 155 33 212q8 32 41 32h254q16 0 28 -9.5t13 -24.5l32 -210q56 -19 103 -43l162 123q10 10 27 10 q15 0 29 -12q147 -136 188 -194q8 -9 8 -25q0 -14 -9 -26q-17 -24 -58 -76t-62 -81q30 -57 47 -112l209 -32q15 -2 24 -14t9 -27v-254q0 -13 -9 -26t-23 -15l-211 -32q-22 -62 -45 -104q40 -57 123 -158q11 -13 11 -28t-10 -26q-31 -43 -113.5 -124t-107.5 -81q-13 0 -29 10 l-158 124q-50 -27 -104 -44q-18 -155 -33 -212q-8 -32 -41 -32h-254q-16 0 -28 9.5t-13 24.5l-32 210q-56 19 -103 43l-161 -123q-12 -10 -29 -10q-16 0 -28 13q-144 130 -189 192q-8 11 -8 26q0 14 9 26q17 24 58.5 76t61.5 81q-31 57 -47 113l-209 31q-15 2 -24 14t-9 27z M585 731.5q0 -121.5 86 -207t207 -85.5t206.5 85.5t85.5 207t-85.5 207t-206.5 85.5t-207 -85.5t-86 -207z" />
<glyph unicode="a" horiz-adv-x="1902" d="M31 727.5q1 15.5 12 24.5l822 685q37 29 87 29t87 -29l279 -234v223q0 16 10 26.5t26 10.5h220q16 0 26 -10.5t10 -26.5v-466l250 -208q12 -9 13 -24.5t-8 -26.5l-71 -85q-9 -10 -24 -13h-3q-15 0 -24 8l-791 660l-791 -660q-14 -9 -27 -8q-15 3 -24 13l-71 85 q-9 11 -8 26.5zM294 73v549q0 1 0.5 3t0.5 4l657 541l657 -541q1 -3 1 -7v-549q0 -30 -21.5 -51.5t-51.5 -21.5h-439v439h-292v-439h-439q-30 0 -51.5 21.5t-21.5 51.5z" />
<glyph unicode="b" horiz-adv-x="1902" d="M0 1016q0 42 64 53l574 83l257 520q22 47 56 47t56 -47l257 -520l574 -83q64 -11 64 -53q0 -25 -30 -55l-415 -404l98 -572q2 -8 2 -23q0 -24 -12 -40.5t-35 -16.5q-22 0 -46 14l-513 270l-513 -270q-25 -14 -46 -14q-24 0 -36 16.5t-12 40.5q0 7 2 23l99 572l-416 404 q-29 31 -29 55z" />
<glyph unicode="c" horiz-adv-x="1902" d="M0 1016q0 42 64 53l574 83l257 520q22 47 56 47t56 -47l257 -520l574 -83q64 -11 64 -53q0 -25 -30 -55l-415 -404l98 -572q2 -8 2 -23q0 -57 -47 -57q-22 0 -46 14l-513 270l-513 -270q-25 -14 -46 -14q-24 0 -36 16.5t-12 40.5q0 7 2 23l99 572l-416 404q-29 31 -29 55 zM253 947l349 -339l-83 -481l432 227l431 -227l-83 481l350 339l-482 71l-216 437l-216 -437z" />
<glyph unicode="d" horiz-adv-x="1609" d="M0 150q0 60 4 118t16 124.5t30.5 124t49 111.5t70.5 92.5t98 61.5t127 23q11 0 48.5 -25t85 -55t123.5 -54.5t152.5 -24.5t152.5 24.5t123.5 54.5t85 55t48.5 25q69 0 127 -23t98 -61.5t71 -92.5t49 -111.5t30 -124t16 -124.5t4 -118q0 -137 -83.5 -216.5t-221.5 -79.5 h-999q-138 0 -221.5 79.5t-83.5 216.5zM366 1170.5q0 181.5 128.5 310t310 128.5t310 -128.5t128.5 -310t-128.5 -310.5t-310 -129t-310 129t-128.5 310.5z" />
<glyph unicode="e" horiz-adv-x="1609" d="M0 0v731h731v-731h-731zM0 878v731h731v-731h-731zM146 147h439v438h-439v-438zM146 1024h439v439h-439v-439zM293 293v146h146v-146h-146zM293 1170v147h146v-147h-146zM878 0v731h439v-146h146v146h146v-438h-439v146h-146v-439h-146zM878 878v731h731v-731h-731z M1024 1024h439v439h-439v-439zM1170 0v146h147v-146h-147zM1170 1170v147h147v-147h-147zM1463 0v146h146v-146h-146z" />
<glyph unicode="f" horiz-adv-x="2048" d="M0 341q10 226 70 407.5t177 329t314 235.5t463 102v462l1024 -773l-1024 -764v513q-162 -3 -312.5 -34t-290 -89t-250.5 -157.5t-171 -231.5z" />
<glyph unicode="g" horiz-adv-x="1170" d="M0 73q0 60 29.5 110.5t80.5 79.5v937q-51 29 -80.5 79.5t-29.5 110.5q0 91 64 155t155.5 64t155.5 -64t64 -155q0 -60 -30 -110.5t-80 -79.5v-568q62 30 176 65q63 20 100 34t80.5 35t67.5 45t46.5 58.5t32 79.5t9.5 105q-50 28 -80 79t-30 110q0 92 64 156t155.5 64 t155.5 -64t64 -156q0 -59 -29.5 -110t-79.5 -79q-3 -328 -259 -473q-77 -44 -232 -93q-146 -46 -193.5 -81.5t-47.5 -113.5v-30q50 -29 80 -79.5t30 -110.5q0 -91 -64 -155t-155.5 -64t-155.5 64t-64 155zM110 73q0 -46 32 -78t77.5 -32t77.5 32t32 78t-32 78t-77.5 32 t-77.5 -32t-32 -78zM110 1389.5q0 -45.5 32 -77.5t77.5 -32t77.5 32t32 77.5t-32 77.5t-77.5 32t-77.5 -32t-32 -77.5zM841 1243.5q0 -45.5 32 -77.5t78 -32t78 32t32 77.5t-32 77.5t-78 32t-78 -32t-32 -77.5z" />
<glyph unicode="h" horiz-adv-x="2048" d="M0 658q0 39 23 79q160 262 427 419q273 161 574 161t574 -161q267 -157 427 -419q23 -40 23 -79t-23 -79q-159 -262 -427 -419q-273 -160 -574 -160t-574 160q-267 157 -427 419q-23 40 -23 79zM146 658q152 -234 375 -369q236 -143 503 -143t503 143q223 135 375 369 q-174 270 -436 404q70 -119 70 -257q0 -212 -150 -362t-362 -150t-362 150t-150 362q0 138 70 257q-262 -134 -436 -404zM677 805q0 -23 16 -39t38 -16q23 0 39 16t16 39q0 97 70 167t168 70q22 0 39 17q16 16 16 38t-16 39q-17 16 -39 16q-143 0 -245 -102t-102 -245z" />
<glyph unicode="i" horiz-adv-x="2003" d="M34 -216q2 -2 0 -10l4 -8q2 -4 6 -6t7 -4t9 -2h8h10h6q69 2 115 9t99.5 33t93.5 71q94 112 175 331l56 179q2 14 8 40.5t10 49.5t6 43q2 36 14 55t31 25t54 6q79 1 158.5 1t160.5 -1h4l4 2q-6 8 -8 14q-10 57 -38 100t-74 43h-223q-27 0 -43 12t-14 42q6 51 6 120 t2 136.5t6 119.5q4 37 20.5 51t52.5 14q60 -2 119 -2t118 2q60 0 62 2q2 1 2 5q0 18 -44 93l-4 8q-6 8 -11 14t-12 10t-12 6t-13 3t-12 1h-16h-16h-477q-52 0 -52 40q0 16 8 37q4 10 8 21t7 23t7 26t7 27t7 26.5t8 25.5t7 23t5 21q10 38 0 36q-8 -6 -53 -31t-65.5 -38 t-48.5 -37.5t-38 -48.5q-24 -62 -96.5 -253t-110.5 -282q-6 -12 0 -12t38 8q157 39 213 147q37 75 62 89q16 9 55 9q22 0 52 -3q16 -2 26 -6t15 -14t5 -27q-6 -245 -6 -369q0 -41 -17 -60t-55 -19q-24 1 -73 1h-55q-92 -1 -127 -1q-8 2 -16 0t-16 -5t-15.5 -7t-15.5 -10 l-12 -12q-8 -6 -14 -14t-11 -17t-9 -18t-7 -20t-3 -20q-4 -10 -8 -19l-4 -9v-4q40 0 183 -1h84q72 0 99 1q40 2 54 -11t8 -53q-30 -197 -116 -356q-107 -201 -292 -356q-2 0 -8 -4t-6 -5t-6 -6t-6 -6t-4 -7t-2 -8zM593 269q16 -8 48 -47q34 -40 79.5 -99t89.5 -112.5 t82 -97.5q35 -40 37 -42q4 4 6 10q16 50 21 66t13 51t7 53.5t-11 30.5q-24 28 -260 311zM1144 -73h159l46 -175l241 175h366v1449h-812v-1449zM1303 70v1162h494v-1162h-159l-225 -145l-46 145h-64z" />
<glyph unicode="j" horiz-adv-x="2258" d="M66 671.5q0 215.5 84 412.5t226 339t339 226t412.5 84t412.5 -84t339 -226t226 -339t84 -412.5t-84 -412.5t-226 -339t-339 -226t-412.5 -84t-412.5 84t-339 226t-226 339t-84 412.5zM221 669q0 -170 61.5 -326.5t171.5 -278.5q14 27 39 63.5t94.5 118t148 152t201 146.5 t255.5 119q16 4 35 11q-33 72 -75 153q-201 -60 -436 -92t-332 -35q-61 -3 -110 -3q-29 0 -53 1v-29zM240 856q58 0 143 2t295.5 30t399.5 78q-156 278 -336 524q-191 -91 -324.5 -258t-177.5 -376zM572 -46q245 -191 556 -191q184 0 354 73q-56 330 -193 686q-4 0 -6 -2 q-145 -50 -269.5 -124.5t-198 -139.5t-133.5 -139t-80 -106t-30 -57zM916 1551q180 -243 338 -531q110 43 204.5 97t150 106t80.5 79t40 45q-257 231 -601 231q-108 0 -212 -27zM1322 885q34 -66 61 -131l20 -45q131 10 222 11h15q84 0 181 -10q105 -12 145.5 -19t67.5 -13 q-3 319 -204 566q-16 -21 -44 -50t-88 -85t-160 -116t-216 -108zM1457 566q127 -344 176 -647q156 104 257.5 262.5t132.5 344.5q-19 7 -44.5 13t-86 17.5t-122.5 17.5q-53 5 -123 5h-24q-85 -1 -166 -13z" />
<glyph unicode="k" horiz-adv-x="1963" d="M16 1110q0 128 91 216l156 156q89 88 217 88t217 -91l219 -220q89 -89 89 -216q0 -132 -94 -223l94 -94q91 94 221 94q128 0 218 -90l221 -221q90 -90 90 -218t-91 -216l-156 -156q-89 -88 -217 -88t-217 91l-219 220q-89 89 -89 216q0 132 94 223l-94 94 q-91 -94 -221 -94q-128 0 -218 90l-221 221q-90 90 -90 218zM221 1110q0 -43 29 -73l222 -221q29 -29 73 -29t76 33q-3 3 -20 19.5t-23 23t-16 20.5t-13.5 27t-3.5 29q0 43 29.5 72.5t72.5 29.5q16 0 29 -3.5t27 -13.5t20.5 -16t23 -23t19.5 -20q35 33 35 78q0 42 -30 72 l-219 221q-30 29 -72 29t-73 -28l-157 -156q-29 -30 -29 -71zM970 358q0 -42 30 -72l219 -221q29 -28 72 -28t73 27l157 156q29 30 29 71q0 43 -29 73l-222 221q-30 30 -73 30q-44 0 -76 -34q3 -3 20 -19.5t23 -23t16 -20.5t13.5 -27t3.5 -29q0 -43 -29.5 -72.5t-72.5 -29.5 q-16 0 -29 3.5t-27 13.5t-20.5 16t-23 23t-19.5 20q-35 -33 -35 -78z" />
<glyph unicode="l" horiz-adv-x="2502" d="M19 504v24q0 400 263 747q46 58 135 145q164 140 300 200q91 44 209 77q157 37 236 37h6q49 0 71 -59q1 -6 1 -13v-468q0 -44 -50 -67l-101 -19q-203 -59 -322 -206q-137 -175 -137 -386q0 -278 227 -476q86 -64 156 -90q108 -40 163 -40q57 -4 57 -14q7 -7 7 -18v-5 q0 -25 -32 -29q-102 0 -273 -38q-145 -41 -247 -93q-96 -61 -170 -61h-18q-159 0 -264 169q-217 320 -217 683zM1283 1160v3q24 33 24 142v102q1 4 3 4h147q3 -1 3 -4v-88q0 -3 -3 -3h-17q-3 0 -3 3v11h-107v-34h57v26q0 3 3 3h17q3 0 3 -3v-26h59q3 0 3 -3v-17q0 -3 -3 -3 h-59v-29h44q3 0 3 -3v-101q0 -3 -3 -3h-15q-3 0 -3 3v14h-74v-14q0 -3 -3 -3h-17q-3 0 -3 3v101q1 3 3 3h45v29h-57q0 -84 -32 -131q-2 0 -15 18zM1291 1662q3 29 27 29q23 0 26 -30l2 -8q-5 -49 -31 -49h-11q-8 0 -9 5v5q1 3 3 3q6 -3 12 -3q18 0 23 21v9q-8 -8 -15 -8h-3 q-21 0 -24 26zM1292 -111l3 1h17q0 8 3 8q2 -3 2 -8h7q-3 4 -3 5v3h2q5 -8 9 -8q3 0 3 -3l-3 -1h-15q0 -10 4 -10h2q4 0 4 6h5v-1l-8 -9q0 -2 11 -11v-1h-5q-12 9 -12 13h-1v-15q0 -2 -5 -5h-6q-3 0 -3 4q9 2 9 4v8l-18 -9l-2 3q0 3 20 10v13h-17q-3 0 -3 3zM1292 1525 q27 15 50 41h10q5 -18 45 -36v-5l-4 -6l-11 6q0 -8 -3 -8h-29v-15h32q3 0 3 -3v-3q0 -3 -3 -3h-32v-18h41q3 -1 3 -3v-3q0 -4 -3 -4h-91q-3 0 -3 4v3q0 3 3 3h41v18h-32q-3 0 -3 3v3q0 3 3 3h32v15h-28q-3 0 -3 8l-12 -8q-2 0 -6 8zM1297 -118h3q2 0 6 -6q0 -3 -3 -3l-6 8v1 zM1303 1661q0 -15 17 -15q13 3 13 15q0 20 -13 20h-8q-9 -6 -9 -14v-6zM1313 1527h65q-26 21 -32 29q-26 -28 -33 -28v-1zM1330 1353h107v36h-107v-36zM1338 -118q6 6 6 13l3 1h5q3 0 3 -3q-3 -1 -6 -1v-6q4 0 4 -4q0 -3 -4 -3v-16q0 -3 -3 -3q-4 0 -4 3v16q-4 0 -4 3z M1355 1646q0 45 29 45q27 0 27 -42q0 -38 -24 -45h-6q-26 0 -26 42zM1356 -128q2 14 14 14t12 -14q-2 -14 -14 -14q-9 0 -12 14zM1362 -124v-4q0 -9 8 -9q6 1 6 9v4q0 3 -5 5h-4q-2 0 -5 -5zM1362 1175h74v46h-74v-46zM1367 1641q0 -22 12 -27h3q17 0 17 32q0 31 -11 35h-6 q-15 0 -15 -28v-12zM1388 -107q1 3 3 3l2 -3v-30q0 -3 -3 -3l-2 3v30zM1402 -107q0 3 3 3l2 -3v-30q0 -3 -3 -3l-2 3v30zM1413 -128q2 14 13 14q13 0 13 -13v-1q-2 -14 -14 -14q-9 0 -12 14zM1413 1502q15 26 15 35h-11q-3 0 -3 3v3q1 3 3 3h12v19q1 3 4 3h3q3 -1 3 -3v-19 h9q3 0 3 -3v-3q0 -3 -3 -3h-9v-10l3 1q10 -13 10 -17l-4 -3q-4 0 -8 11h-1v-54q0 -3 -3 -3h-3q-4 0 -4 3v49h-1q-8 -20 -11 -20t-4 8zM1416 1601q12 12 12 43v41q0 3 3 3q29 0 81 6l4 -7q0 -5 -77 -8v-14h81q3 0 3 -3v-3q0 -3 -3 -3h-81q0 -47 -17 -64q-6 3 -6 9zM1419 -128 v-3q3 -6 7 -6q7 2 7 4v9q0 3 -5 5q-9 0 -9 -9zM1443 -114h2q4 0 6 -17h3q2 17 6 17t8 -19h1q2 19 6 19h2v-2q-4 -24 -9 -24t-6 15h-4q-1 -15 -6 -15t-9 22v4zM1446 1594v44q1 3 3 3h61q3 0 3 -3v-44q0 -3 -3 -3h-4q-3 0 -3 7h-46q0 -7 -3 -7h-5q-3 0 -3 3zM1448 1473v5 q26 5 30 12q-4 10 -4 20q-3 -1 -17 -3l-2 3v3q0 4 17 4v2q-1 14 -3 14l-14 -2l-1 3v3q0 4 17 5l-2 18v5q1 3 3 3h3q5 0 5 -20v-5h1q10 0 32 3q3 -5 3 -7t-36 -5v-1l1 -14l35 4l2 -3v-3q0 -3 -35 -7q0 -3 3 -17q1 0 20 14h1q3 0 5 -5q0 -1 -21 -18q8 -10 12 -11h1q5 0 6 18h6 l5 -3q-6 -26 -15 -26q-12 0 -23 19q-25 -12 -32 -12q-3 3 -3 4zM1457 1607h46v25h-46v-25zM1481 1163q2 0 2 2q32 -3 38 -3q18 0 18 21v237q1 3 3 3h17q3 -1 3 -3v-245q-3 -36 -26 -36h-47q-4 0 -8 24zM1484 1206v185q1 3 3 3h16q3 -1 3 -3v-185q0 -3 -3 -3h-16q-3 0 -3 3z M1486 1562q0 2 5 4h1q14 -8 14 -10v-2q0 -2 -5 -5q-15 11 -15 13zM1501 -72q3 6 11 6h6q3 0 3 -3l-1 -3l-8 2h-2q-3 -1 -3 -3v-2q16 -9 16 -13q0 -9 -16 -10q-6 3 -6 5l2 3l3 -2h9v7q-14 4 -14 7v6zM1501 -137q6 5 6 13l5 3h4q4 0 4 -3q-8 -2 -8 -4v-6q8 0 8 -3t-8 -3v-22 q0 -3 -3 -3t-3 3v22q-5 0 -5 3zM1524 -148q2 14 14 14h3q14 0 14 -17q0 -13 -17 -15q-14 2 -14 13v5zM1527 -69l8 11h1q4 -8 6 -8q3 0 3 -3t-6 -3v-20q6 0 6 -3t-3 -3q-10 0 -10 14v12q-5 0 -5 3zM1530 -145v-6q1 -9 5 -9h7q7 2 7 10q0 11 -11 11h-2q-2 0 -6 -6zM1535 1499 v2q0 3 3 3h99q3 -1 3 -3v-2q0 -3 -3 -3h-53q-3 0 -20 -20h14q9 0 30 2l-9 10l6 5q2 0 26 -26l-6 -5h-2q-6 7 -9 7q-26 0 -67 -4q0 3 -3 8q7 0 24 21v2h-30q-3 0 -3 3zM1538 1525v15q0 3 3 3h41v22q1 3 3 3h5q3 -1 3 -3v-22h41q3 0 3 -3v-15q0 -3 -3 -3h-3q-3 0 -3 3v9h-79 v-9q0 -3 -4 -3h-4q-3 0 -3 3zM1544 1594q21 15 21 24h-18q-3 0 -3 3t3 3h20v11h-17q-3 0 -3 3t3 3h41q3 0 3 -3t-3 -3h-18v-11h20q3 0 3 -3t-3 -3h-20q3 -11 23 -23q0 -3 -5 -3q-9 0 -20 20h-3q-11 -21 -23 -21zM1550 1519v1q1 3 3 3h69q3 0 3 -3v-1q0 -3 -3 -3h-69 q-3 0 -3 3zM1550 1560v3l8 2l12 -14q0 -2 -6 -6zM1552 -87q0 8 18 11v3q0 3 -3 3h-2q-4 0 -9 -3l-1 3q1 4 9 4h6q8 -3 8 -15v-12q0 -3 -4 -3h-3q-1 0 -1 1q-5 -3 -8 -3q-10 0 -10 11zM1558 -87v-1q0 -4 3 -4h7l2 8v2h-8q-2 0 -4 -5zM1564 -124q0 3 3 3t3 -3v-38q0 -3 -3 -3 t-3 3v38zM1564 1059q0 3 3 3h29v20h-23q-3 0 -3 3t3 3h55q3 0 3 -3t-3 -3h-25v-20h31q3 0 3 -3t-3 -3h-31v-32q0 -3 -3 -3h-1q-3 0 -3 3v32h-29q-3 0 -3 3zM1581 -124q0 3 3 3t3 -3v-23q1 0 12 13h4v-2q-4 -6 -10 -14l12 -13v-2h-6l-12 12q0 -12 -3 -12t-3 3v38zM1587 -69 q0 3 3 3l4 -3q1 3 3 3h3q3 0 3 -3q-10 -2 -10 -10v-14q0 -3 -3 -3t-3 3v24zM1597 1598q0 3 10 3v13l-5 -4l-2 4v19q7 6 8 11h2q1 -9 9 -9v-18q0 -3 -8 -3v-13h2q0 8 3 8q3 -6 3 -12v-3h-2q-3 0 -3 4q-4 -1 -15 -3zM1605 1549v2q0 2 14 14h1q2 0 5 -5q0 -2 -14 -14h-3 q-3 0 -3 3zM1605 1618h2v14h-2v-14zM1608 1229v131q1 3 3 3h112v61q0 3 3 3h21q3 0 3 -3v-61h113q3 0 3 -3v-131q0 -3 -3 -3h-20q-3 0 -3 3v12h-90v-107q0 -3 -3 -3h-21q-3 0 -3 3v107h-89v-12q0 -3 -3 -3h-20q-3 0 -3 3zM1611 1618h3v14h-3v-14zM1617 1612q8 9 8 11 q-5 0 -5 3v13q1 4 3 4h22q3 -1 3 -4v-15l-2 -3l-7 2h-11v-5h18q3 0 3 -3v-12q0 -12 -12 -12h-3q-3 0 -3 3q0 2 14 4v16h-6q-3 -1 -3 -4q6 0 6 -4l-3 -2l-5 3q-2 0 -5 -4q14 0 14 -3v-2h-20q-1 0 -6 14zM1622 1610q3 0 3 -7h3l-2 3l6 8h-7q-3 -1 -3 -4zM1626 1627h17v3h-17 v-3zM1626 1635h17v3h-17v-3zM1634 1265h89v74h-89v-74zM1639 -140q0 3 3 3h21q0 7 5 7h3v-4l-2 -3h37q3 -1 3 -3v-2q0 -3 -3 -3h-41l-2 -6h35q3 -1 3 -3v-32q0 -14 -10 -14h-8q-3 0 -3 3v3h11q3 0 3 3v6h-36v-12q0 -3 -3 -3t-3 3v32l-10 -9q-3 0 -3 3v2q18 19 18 24h-15 q-3 0 -3 3v2zM1640 1029v1l8 8v24q-8 0 -8 4q1 3 3 3h9q3 -1 3 -3v-31q12 -5 17 -5h34l3 2l1 -3v-2q0 -3 -3 -3h-36q-10 0 -20 8q-1 0 -8 -8q-3 4 -3 5zM1643 1088q1 3 3 3h2q1 0 9 -10v-2q0 -3 -3 -3h-3q0 3 -8 12zM1645 -11q0 3 3 3h4q3 0 5 -4v-5q-2 -4 -9 -4l-3 4v6z M1645 -38q0 3 3 3h6q3 -1 3 -3v-54q0 -3 -3 -3h-6q-3 0 -3 3v54zM1654 1527v3q0 3 3 3h15q3 -1 3 -3v-43l12 11h2v-10l-20 -19q-2 0 -6 6q3 5 3 9v39h-9q-3 0 -3 4zM1655 1592v5q13 0 19 10h-19v5h17q3 0 3 3v2h-7l-8 -2l-2 3v21q1 4 3 4h37q3 -1 3 -4v-21l-1 -3l-8 2h-12 v-5h21l3 -2q-2 -18 -7 -18h-11q-3 0 -3 3v2h11q2 0 4 4v6h-20q0 -10 -20 -15h-3zM1658 -157v-8h36v8h-36zM1658 -171v-8h36v8h-36zM1660 1076q0 3 3 3h29v11q1 3 3 3q3 0 3 -3v-11h9q3 0 3 -3t-3 -3h-9v-32q0 -2 -6 -6h-12q-3 0 -3 3t15 5v30h-29q-3 0 -3 3zM1660 1559v1 q0 2 5 5q2 0 16 -17q0 -2 -6 -6q-1 0 -15 17zM1663 1623h14v4h-14v-4zM1663 1632h14v4h-14v-4zM1665 1064q0 3 3 3h3q0 -2 9 -14q0 -3 -3 -3h-2q-1 0 -10 14zM1666 -38q0 3 9 3v3q0 27 22 27q7 -1 7 -4v-3q0 -3 -15 -5l-2 -7v-11h11q3 -1 3 -3v-3q0 -3 -3 -3h-11v-48 q0 -3 -3 -3h-6q-3 0 -3 3v48q-9 0 -9 3v3zM1672 43q3 10 6 10h11q3 0 3 -3v-15q-1 -12 -11 -12q-7 2 -7 5q1 0 1 1l3 -1h5q2 0 4 4v3l-6 -3q-9 4 -9 11zM1677 43q2 -6 4 -6h3q3 0 3 3v7q0 3 -3 3h-3q-3 0 -4 -7zM1683 1623h14v4h-14v-4zM1683 1632h14v4h-14v-4zM1684 954v2 q1 3 3 3h71q3 -1 3 -3v-2q0 -3 -3 -3h-71q-3 0 -3 3zM1684 1472v6q16 1 16 4v31h-13q-3 0 -3 3v3q1 3 3 3h33q3 -1 3 -3v-3q0 -3 -3 -3h-11v-31h1q2 0 16 2l1 -3v-3q0 -4 -41 -9zM1684 1540v3q1 3 3 3h37v20q1 3 3 3h5q3 0 3 -3v-20h23q3 0 3 -3v-3q0 -3 -3 -3h-23v-4 q0 -48 14 -61q3 0 4 19h5l4 -3q-2 -27 -12 -27q-21 0 -24 70v6h-39q-3 0 -3 3zM1697 37v13q0 3 3 3l1 -3v-13q0 -3 -3 -3zM1697 92q1 0 1 1l3 -1h3q3 0 3 3q-10 4 -10 7v2q0 2 4 4h6q3 0 3 -3h-9v-1l9 -8v-4q0 -3 -7 -5q-6 2 -6 5zM1698 58v5h3v-5h-3zM1706 52q2 8 4 8 q0 -7 6 -7v-3h-4v-10q0 -3 4 -3v-2q0 -3 -3 -3q-5 0 -7 20zM1707 -38q1 3 3 3h5q3 0 3 -9h2q0 8 16 10q3 0 3 -3v-6l-1 -3l-3 2h-2q-15 0 -15 -25v-23q0 -3 -3 -3h-5q-3 0 -3 3v54zM1713 105v3q3 0 3 5h5q0 -5 3 -5v-3h-3v-13h3v-3h-4q-4 0 -4 3v13h-3zM1715 -174l3 2h31v4 h-26q-3 0 -3 3t3 3h26v3h-13l-10 -1l-2 3v10q1 4 3 4h22v3h-29q-4 0 -4 3q1 3 4 3h29q0 4 3 4t3 -4h29q3 -1 3 -3q0 -3 -3 -3h-29v-3h19q4 -1 4 -4v-10l-2 -3l-11 1h-10v-3h21q3 0 3 -3v-7q8 0 8 -4q-3 -1 -8 -1v-11q0 -3 -3 -3q-4 3 -5 3h-16q0 -10 -6 -12h-11q-3 0 -3 3 t14 5v4h-26q-3 0 -3 3t3 3h26v5h-31q-3 0 -3 3zM1715 1066q0 3 3 3h9q3 -1 3 -3v-28l9 5l2 -3v-2q0 -1 -14 -11l-4 3l1 8v24q-9 0 -9 4zM1721 37v24q1 3 3 3q2 -1 2 -12l3 1h4q2 0 5 -4v-12q0 -3 -3 -3q-2 16 -5 16h-1q-3 0 -5 -16h-1zM1721 1087l5 3q2 0 9 -11q0 -3 -3 -3 h-2q-2 0 -9 11zM1729 92v13q0 3 3 3l1 -3v-13q0 -3 -3 -3zM1729 116l3 2l1 -3l-3 -2zM1730 -150v-4h19v4h-19zM1733 1024v2l22 12q-5 1 -19 28q11 9 11 24h26q3 -1 3 -3v-15h8q3 -1 3 -3q0 -3 -3 -3h-11q-5 0 -5 12v6h-15q0 -14 -12 -23h35q3 -1 3 -3q0 -7 -14 -23 q22 -7 22 -9q-4 -3 -6 -3q-3 0 -23 9q0 -4 -23 -11zM1738 95v7q4 8 12 8l3 -5q-5 0 -11 -1v-11q6 -1 11 -1q0 -3 -6 -5q-6 2 -9 8zM1739 1560v2q1 3 3 3h2q9 -5 12 -11q0 -2 -4 -5h-2q-2 0 -11 11zM1742 43v7q1 3 3 3q2 -16 5 -16h5q1 16 4 16l2 -3v-13q0 -3 -3 -3 q-2 0 -2 1l-6 -3q-8 2 -8 11zM1742 -76q0 20 37 20v3q0 10 -11 10h-1q-8 0 -18 -6l-2 3v5q0 5 18 7h8q18 0 18 -30v-28q0 -3 -3 -3h-6q-3 0 -3 7q-9 -8 -15 -8h-6q-16 3 -16 15v5zM1750 1053q6 -11 11 -13q10 13 10 15h-21v-2zM1750 1265h90v74h-90v-74zM1753 -79 q2 -8 11 -8q10 0 15 11v10q-26 0 -26 -13zM1755 -150v-4h16v4h-16zM1755 -168v-4h18v4h-18zM1755 -177v-5h18v5h-18zM1756 92v24q1 3 3 3l2 -3v-15l9 7h1v-1l-6 -8l8 -9v-1h-3l-9 7q0 -7 -3 -7zM1765 37v24q1 3 3 3q2 -1 2 -12l3 1h8q4 -1 4 -9q0 -9 -9 -12q-5 2 -5 3l-3 -1 q-3 0 -3 3zM1770 41q0 -2 4 -4h2q2 0 5 4v6q0 3 -3 3h-4q-2 0 -4 -4v-5zM1770 930v3q1 4 9 4v28q-9 0 -9 3v1q0 3 9 3v16q1 3 3 3h2q3 -1 3 -3v-16q9 0 9 -3v-1q0 -3 -9 -3v-25h1l8 2l1 -3q0 -5 -26 -9h-1zM1776 1499v2q5 3 44 21q0 1 3 1v2h-44q-3 0 -3 3v2q0 3 3 3h38v13 h-27q-3 0 -3 3v2q0 3 3 3h27v11q1 3 3 3h5q3 -1 3 -3v-11h23q3 0 3 -6q2 0 12 12q6 -1 6 -6q0 -3 -20 -21h26q3 -1 3 -3v-2q0 -3 -3 -3h-33q-3 0 -20 -9v-2h36q4 0 4 -3v-47q0 -3 -4 -3h-3q-3 0 -3 8h-48q0 -8 -4 -8h-3q-3 0 -3 3v37h-1q-12 -7 -17 -7q-3 4 -3 5zM1788 921 v1q20 16 20 24h-12q-3 0 -3 4q0 3 3 3h14v18h-10q-3 0 -3 3q1 3 3 3h11v11q1 3 3 3q3 -1 3 -3v-11h15q4 0 4 -3v-21q7 0 7 -3q0 -4 -3 -4h-21v-1q11 -20 21 -20v-3q0 -2 -4 -5q-8 3 -23 23q0 -8 -22 -24zM1790 43v3h9v-3h-9zM1790 1066q0 3 3 3h10q4 -1 4 -3v-31h1l9 6h3v-4 q-15 -13 -20 -13q0 2 -1 2l1 15v21h-7q-3 0 -3 4zM1793 -153q0 3 3 3q11 -6 11 -9v-1q0 -3 -4 -3q-10 7 -10 9v1zM1793 -195q8 26 10 26l5 -3q-8 -28 -11 -28q-2 0 -4 5zM1794 -134q1 3 3 3h2q11 -7 11 -9v-2q0 -3 -3 -3q-13 8 -13 11zM1794 1087v1q1 3 3 3q3 0 11 -10v-3 q-2 0 -5 -2q-9 10 -9 11zM1796 -252q3 11 12 11q1 0 6 -2q3 2 5 2l1 -3v-22q0 -13 -17 -13q-6 2 -6 4q2 0 2 2l8 -2h3q2 0 4 5v4q-5 -3 -9 -3q-9 0 -9 17zM1799 95v20q0 3 3 3l1 -3v-22l8 -1q2 0 5 4v20h4v-17q0 -12 -12 -12q-6 2 -9 8zM1802 -255v-4q1 -5 9 -5l3 5v12l-7 1 q-5 -1 -5 -9zM1803 53h2q4 0 5 -12q2 0 6 12h1q5 -6 5 -12h3q0 12 4 12l2 -3q-5 -16 -8 -16t-6 12h-1q-2 -12 -6 -12q-7 11 -7 19zM1803 256q0 45 36 62q5 3 12 3h12q18 0 27 -17h2q0 15 3 15h15q3 0 3 -3v-102q0 -66 -58 -66h-12q-30 3 -30 9v16q0 3 3 3q15 -10 30 -10h8 q38 0 38 49v5h-2q-12 -22 -38 -22q-49 8 -49 58zM1805 -38q0 3 3 3h5q3 0 3 -8h1q4 9 14 9h5q8 0 16 -10q0 7 16 10h6q14 0 16 -21v-37q0 -3 -3 -3h-4q-3 0 -3 3v28q0 21 -12 21q-14 -2 -14 -13v-36q0 -3 -3 -3h-6q-3 0 -3 3v37q0 12 -13 12t-13 -18v-31q0 -3 -3 -3h-5 q-3 0 -3 3v54zM1807 1476h48v11h-48v-11zM1807 1494h48v13h-45q-3 -1 -3 -3v-10zM1810 -194q21 5 21 9q-6 3 -14 19q-3 0 -3 3l2 3q-3 0 -5 4q12 9 12 23h26q3 0 5 -18q9 0 9 -3t-3 -3h-5q-8 0 -9 4v14h-18q0 -14 -11 -21h35q3 -1 3 -3v-2q0 -7 -13 -21q19 -8 19 -9v-2 q0 -3 -3 -3q-4 0 -22 9q-16 -9 -25 -9h-1v6zM1813 1066q0 3 3 3h18v21q0 3 3 3t3 -3v-21h18q3 -1 3 -3q0 -4 -3 -4h-18v-38q0 -3 -3 -3t-3 3v38h-18q-3 0 -3 4zM1817 953h12v18h-12v-18zM1819 737q15 27 33 74q6 -3 11 -3v-4q0 -7 -31 -74q-13 3 -13 7zM1823 116l3 2h3l3 -2 l-1 -8v-15l1 -3l-3 -1h-4l1 7v15zM1825 -166q6 -12 12 -16q10 8 11 16h-23zM1825 -259q0 6 15 9v1q0 3 -4 3l-8 -1v1q0 2 4 5h8q6 -3 6 -11v-12q0 -3 -3 -3h-1q-2 0 -2 1q-5 -3 -8 -3q-7 3 -7 10zM1826 258q5 -40 26 -40l6 -1q30 0 34 38v12q0 28 -23 35h-12q-26 0 -31 -41 v-3zM1828 1533h4q9 0 20 13h-24v-13zM1831 -256v-5q0 -3 3 -3h2q2 0 4 5v4zM1834 37v13q0 3 3 3l2 -3v-13q0 -3 -3 -3zM1834 61l3 2l2 -3l-3 -2zM1843 38v9q3 6 9 8q3 -2 5 -2v8q0 3 3 3l1 -3v-24q0 -3 -10 -5q-7 3 -8 6zM1848 40q0 -3 3 -3h3q3 0 3 3v7q0 3 -3 3h-3 q-3 0 -3 -3v-7zM1852 -234q1 4 3 4l2 -4v-30q0 -3 -3 -3l-2 3v30zM1854 713l3 1q8 0 21 -1q9 0 9 11v116q1 3 3 3h8q3 -1 3 -3v-121q0 -20 -21 -20h-20q-3 0 -6 14zM1854 942l14 15v2l-2 7h-1q-7 -6 -8 -6q-3 4 -3 5t9 9q-2 0 -8 9v3h5q6 -7 8 -7q4 7 6 7h1q3 0 3 -3l-7 -11 q4 -14 4 -26v-12q0 -12 -7 -15h-10q-3 0 -3 3v3h10q4 2 4 9v16h-1q0 -5 -10 -11h-1q-3 0 -3 3zM1857 92q1 0 1 1l8 -1h2q3 0 3 3q0 2 -14 12v3q0 8 14 8l3 -5q-13 0 -13 -3q14 -11 14 -17q-8 -6 -10 -6q-8 2 -8 5zM1857 577l3 2h17v4h-6l-8 -1l-2 3v16q0 4 8 4l-1 3v1h1 l6 -4h8l6 6h1v-3l-1 -3q8 0 8 -4v-16l-2 -3l-8 1h-6v-4h17q3 -1 3 -3l-3 -2h-17v-8h-4v8h-17q-3 0 -3 3zM1858 630v26q1 3 3 3h7q3 0 3 -3v-26q0 -3 -3 -3q0 3 -3 3l-5 -3zM1860 435q2 2 8 2v16l-3 -1h-5v1q0 4 8 5v11q-7 0 -7 3q7 3 7 9q0 3 3 3q1 -11 7 -11v-1q0 -3 -6 -3 v-9l3 1q3 0 3 -3q-3 -3 -6 -3v-20q-1 -4 -9 -4zM1861 521q3 1 7 1v14q0 3 3 3l1 -3v-12h11v-5h-8q-3 0 -3 -3v-15l11 6l1 -3q0 -3 -13 -11h-2l-3 2l2 7v16q-7 0 -7 3zM1863 635h3v20h-3v-20zM1865 -234q0 4 3 4l1 -4v-30q0 -3 -3 -3l-1 3v30zM1866 43q0 9 9 12q5 -2 5 -3 l3 1q3 0 3 -3v-7q0 -20 -12 -20q-6 2 -6 5q1 0 1 1l3 -1h5q3 0 4 7l-3 -1h-7q-5 1 -5 9zM1866 588h11v3h-11v-3zM1866 595h11v5h-11v-5zM1868 1027v51q10 6 12 15h3q3 0 3 -3q-3 -6 -3 -9h11q3 0 3 -14h1q9 25 12 26h3v-3l-1 -8h18q3 0 3 -3v-39q0 -12 -7 -16h-17q-3 0 -3 3 v2l1 3l3 -2h13q4 0 4 40v5h-20q-3 -11 -6 -11q-3 2 -4 2v-39q0 -3 -3 -3h-2q-3 0 -3 5h-14q0 -5 -3 -5h-1q-3 0 -3 3zM1869 -137q1 3 3 3h29q0 4 3 4h2q3 0 3 -4h29q3 -1 3 -3q0 -3 -3 -3h-29v-3h20q3 -1 3 -4v-10l-2 -3l-11 1h-10v-3h21q3 0 3 -3v-7q8 0 8 -4q-3 -1 -8 -1 v-11q0 -3 -3 -3l-4 3h-17q-2 -12 -6 -12h-11q-2 0 -5 5l3 1h11v6h-24q-3 0 -3 3t3 3h24v5h-29q-3 0 -3 3l3 2h29v4h-24q-3 0 -3 3t3 3h24v3h-11l-10 -1l-2 3v10q1 4 3 4h20v3h-29q-3 0 -3 3zM1871 40q0 -3 3 -3h3q2 0 4 4v5q0 2 -4 4h-2q-2 0 -4 -4v-6zM1874 621v35 q10 7 10 10h2v-7h9q3 0 3 -3v-32q0 -3 -3 -3h-5q-3 0 -3 3q3 2 8 2v29h-18v-34h-3zM1875 -255q0 14 12 14h3q8 -4 8 -14l-3 -1h-14v-3q0 -3 6 -5l10 1v-1q0 -4 -11 -5q-9 0 -11 13v1zM1875 432v2q15 10 15 12v1h-12q-3 0 -3 3q3 2 5 2v11l-2 7l12 14h2v-5h12q3 0 3 -3l-4 -6 v-1q7 0 7 -3v-14q5 0 5 -3q0 -2 -17 -2q0 -4 15 -13q-3 -2 -4 -2q-12 5 -12 11h-3q0 -7 -16 -11h-3zM1875 1035h14v17h-14v-17zM1875 1059h14v16h-14v-16zM1877 485v4q12 10 12 32v9q-9 0 -9 3l3 1h26q3 0 3 -4q0 -43 -8 -43q-2 -2 -6 -2q-6 3 -6 5q14 0 14 15v25h-11 q0 -34 -14 -45h-4zM1877 948q0 3 3 3h44q3 0 3 -3t-3 -3h-21q3 -9 6 -9l10 7q4 0 4 -3v-1l-10 -8q14 -7 14 -9q-4 -3 -6 -3q-24 13 -24 26h-8v-20l11 6h3v-3q-11 -11 -19 -11l-3 2l2 8v18q-6 0 -6 3zM1878 95v3q0 9 9 12q10 -3 10 -12l-3 -2h-11v-1q0 -3 3 -3h4l4 1l1 -3 l-8 -3q-6 2 -9 8zM1880 634v13q0 3 3 3h6q3 0 3 -3v-12q0 -2 -11 -5zM1881 -250v-2h11v3q0 3 -3 3h-3q-2 0 -5 -4zM1881 588h11v3h-11v-3zM1881 595h11v5h-11v-5zM1881 956v27q1 3 3 3h35q4 0 4 -3v-27q0 -3 -4 -3q-3 3 -4 3h-26l-5 -3q-3 0 -3 3zM1883 101h9v1q0 3 -3 3h-3 q-3 0 -3 -3v-1zM1883 635h4v12h-4v-12zM1884 -150v-4h17v4h-17zM1884 452h8v11h-8v-11zM1884 469h11q2 0 6 6h-14q0 -3 -3 -6zM1887 962h13v7h-13v-7zM1887 974h13v6h-13v-6zM1889 44q4 11 11 11q7 -3 7 -6v-5q0 -3 -13 -3q0 -2 4 -4h3l3 1l2 -3l-6 -3q-9 0 -11 12zM1894 46 h9v1q0 3 -3 3h-2q-2 0 -4 -4zM1895 1157v3q77 39 116 147q14 37 21 116h23l3 -2q0 -6 -6 -61q4 -33 45 -108q29 -53 93 -87l-22 -26q-78 40 -120 159q-5 10 -5 15h-1q-38 -122 -118 -171q-9 -6 -12 -6zM1897 452h9v11h-8q0 -5 -1 -11zM1900 92v26h4v-26q0 -3 -3 -3z M1901 -61q5 27 26 27h3q23 -3 23 -22v-10q0 -3 -3 -3h-38q0 -18 18 -18q10 0 18 6l2 -3v-4q0 -6 -17 -8h-7q-21 0 -25 26v9zM1903 -244q0 3 3 3q0 -3 3 -3q0 3 3 3h1q3 -1 3 -3q-10 0 -10 -23h-2l-1 3v20zM1904 1064h3q3 -1 12 -14v-1q0 -3 -3 -3q-12 10 -12 18zM1906 566 l17 13l3 15h-11v-17h-5v18q1 3 3 3h10l1 7h-15q-3 0 -3 3l3 1h36q3 0 3 -3l-3 -1h-16l-2 -7h14q3 0 3 -3v-18h-5v17h-10v-15q3 0 18 -8v-5h-2q-17 10 -19 10q-6 -10 -19 -10h-1zM1906 621v3q3 10 3 14v18q0 3 3 3h15v7h2q5 -8 19 -8v-2l-3 -1h-30v-6l3 1q6 -9 6 -18l-3 -2 q-5 12 -5 17h-1q0 -22 -9 -26zM1906 962h10v7h-10v-7zM1906 974h10v6h-10v-6zM1909 95v3q0 9 9 12q9 -3 9 -12l-3 -2h-11v-1q1 -3 3 -3h5l3 1l2 -3l-8 -3q-6 2 -9 8zM1909 -150v-4h17v4h-17zM1909 -168v-4h18v4h-18zM1909 -177v-5h18v5h-18zM1910 52q2 8 5 8q0 -7 6 -7v-3 h-5v-10q0 -3 5 -3v-2q0 -3 -3 -3q-5 0 -8 20zM1910 -299q1 3 3 3q3 -1 3 -3v-31q0 -3 -3 -3t-3 3v31zM1913 -58h29v2q-2 13 -13 13q-16 -2 -16 -15zM1913 101h10v1q0 3 -4 3h-3q-3 0 -3 -3v-1zM1913 626l3 1h16q2 1 10 25h2l1 -3l-7 -22q10 0 10 -3l-3 -1h-29q-3 0 -3 3z M1918 -243l3 2q3 -3 8 -20h1q4 20 8 20q3 -1 3 -3q-13 -35 -18 -35h-2q-3 0 -3 3q8 2 8 10q-8 20 -8 23zM1919 804v2l11 3q35 -63 35 -73l-12 -5q-34 71 -34 73zM1923 -321q0 14 12 14h4q9 -6 9 -14q0 -11 -15 -13q-10 4 -10 13zM1926 43v3h9v-3h-9zM1927 652h2q3 0 6 -17 l-3 -1q-5 0 -5 18zM1929 98q0 7 10 12q3 -2 5 -2v-3q-11 0 -11 -7q3 -6 5 -6h3l3 1l1 -3l-6 -3q-7 0 -10 11zM1929 -316v-9q0 -4 7 -5q6 2 6 9q0 8 -4 10h-5q-2 0 -4 -5zM1933 446q17 17 25 32q-12 19 -22 33q0 3 6 7q19 -28 20 -28q8 21 8 35h-32q-3 0 -3 3v3q0 3 3 3h39 q4 0 4 -3q0 -16 -13 -52q14 -22 14 -24l-6 -5l-14 19q-3 -12 -23 -29q-2 0 -6 6zM1938 930v1q0 3 10 5v18q-9 0 -9 3t9 3v17h-7q-3 0 -3 3t3 3h21q3 0 3 -3t-3 -3h-7v-17q9 0 9 -3t-9 -3v-17h1l8 2q0 -2 1 -2q0 -6 -26 -10zM1941 38v12q0 3 3 3q1 -16 4 -16h2q3 0 5 16h1 l2 -3v-13q0 -3 -3 -3h-10q-2 0 -4 4zM1941 359q2 14 14 14q10 0 13 -14q-3 -14 -15 -14q-10 0 -12 14zM1941 1079q0 3 3 3h18v2l-3 4v2q1 3 3 3q6 0 6 -11h16q0 6 7 11q3 0 3 -3l-4 -8h18q3 0 3 -3t-3 -3h-64q-3 0 -3 3zM1942 205v111q1 3 3 3h17q3 0 3 -3v-111q0 -3 -3 -3 h-17q-3 0 -3 3zM1945 1024v43q1 3 3 3h26q3 0 3 -3v-40q0 -2 -4 -4h-9q-3 0 -3 3t3 3h7v11h-19v-16q0 -3 -4 -3q-3 0 -3 3zM1947 -192q17 7 17 35v23q0 3 3 3h1q3 -1 3 -3v-9q0 -47 -21 -57q-3 4 -3 5v3zM1948 107q2 8 5 8q1 -7 5 -7v-3h-3v-13q4 0 4 -3l-3 -2q-6 0 -8 20z M1952 -327q2 11 16 11q-1 3 -1 5h-2l-10 -2v2q1 4 9 4h3q2 0 6 -6v-17q0 -3 -3 -3q0 3 -3 3q0 -2 -5 -4q-8 0 -10 7zM1952 1046h19v6h-19v-6zM1952 1058h19v6h-19v-6zM1953 606l3 2h38q3 -1 3 -3l-3 -2h-18q0 -2 -2 -5h17q3 0 3 -3v-27q0 -3 -3 -3q0 3 -3 3h-26l-4 -3l-2 3 v27q1 3 3 3h11q0 2 1 5h-15q-3 0 -3 3zM1953 627q6 3 9 3v11q-7 0 -7 3l3 2h15q3 -1 3 -3q-3 -2 -8 -2v-11l8 2h1v-5q-3 0 -22 -3zM1953 655l3 1h21q0 10 4 10q1 -3 1 -10h12q3 0 3 -3l-3 -1h-12q0 -13 6 -26h5q0 8 3 8l1 -4q-1 -9 -4 -9q-16 0 -16 31h-21q-3 0 -3 3z M1958 -325v-2q0 -3 4 -3q6 2 6 9h-1q-9 -1 -9 -4zM1961 572h6v23h-6v-23zM1962 37q2 0 2 1l3 -1h4v4q-6 0 -9 6v2q1 3 8 6q6 -2 6 -5q-2 0 -2 -1l-3 1h-4v-4q9 -1 9 -5v-4q0 -3 -8 -5q-6 2 -6 5zM1962 92v13q1 3 3 3l2 -3v-13q0 -3 -3 -3zM1962 116l3 2l2 -3l-3 -2z M1962 919v3q17 0 22 24v11q0 3 3 3t3 -3v-21q6 0 21 -15q0 -4 -5 -4l-18 14h-3q0 -8 -21 -15zM1964 -38q0 3 3 3h6q3 0 3 -8q9 9 15 9h3q3 0 3 -3v-6l-1 -3l-3 2h-3q-14 0 -14 -19v-29q0 -3 -3 -3h-6q-3 0 -3 3v54zM1967 936v29q0 3 3 3h14v20q0 3 3 3q3 -1 3 -3v-20h15 q3 -1 3 -3v-29q0 -3 -3 -3h-2q-3 0 -3 3v26h-27v-26q0 -3 -3 -3t-3 3zM1967 985l3 1q4 0 9 -14l-5 -3q-7 12 -7 16zM1970 443q22 12 32 24q-12 15 -18 60q-2 0 -2 1v3q1 3 3 3h46q3 0 3 -3q0 -29 -20 -64q3 -5 26 -23l-8 -6q-22 16 -22 22h-2q-15 -16 -32 -25q-6 7 -6 8z M1970 711q12 18 12 60v62q1 4 3 4h70q3 -1 3 -4v-42q0 -3 -3 -3h-4q-3 0 -3 7h-54v-16h28v12q0 3 3 3h6q3 -1 3 -3v-12h29q3 -1 3 -4v-4q0 -3 -3 -3h-29v-15h21q3 -1 3 -3v-48q0 -3 -3 -3h-6q-3 0 -3 8h-36q0 -8 -4 -8h-4q-3 0 -3 3v48q0 3 3 3h20v15h-28q-6 -66 -17 -66z M1971 95v3q2 12 11 12t9 -11v-4q-3 -6 -9 -8q-9 3 -11 8zM1971 -244q1 3 3 3l2 -3v-15q0 -3 5 -5h1q2 0 5 5v15q0 3 3 3q3 -1 3 -3v-20q0 -3 -3 -3h-2q-1 0 -1 1q-5 -3 -8 -3q-7 3 -8 6v19zM1971 572h10v5h-10v-5zM1971 582h10v4h-10v-4zM1971 589h10v6h-10v-6zM1976 96 q0 -2 5 -4h3q3 0 3 3v7q0 3 -3 3h-3q-3 0 -5 -4v-5zM1979 44q0 6 6 9h8q4 -1 4 -9q0 -3 -13 -3q0 -2 4 -4h3l3 1l2 -3q-5 -3 -8 -3q-9 3 -9 12zM1979 -317q3 10 12 10l6 -1v9q1 3 3 3q3 -1 3 -3v-31q0 -3 -3 -3h-1q-2 0 -2 2q-5 -3 -9 -3q-9 0 -9 17zM1982 304v12q1 3 3 3 h17v24q0 5 20 10l1 -3v-31h26q3 0 3 -3v-12q0 -3 -3 -3h-26v-67q0 -17 16 -17q11 3 13 3v-14q0 -5 -20 -8q-30 5 -30 29v74h-17q-3 0 -3 3zM1984 46h9v1q0 3 -3 3h-2q-2 0 -4 -4zM1985 -134q1 3 3 3h2q3 -1 3 -3v-54q0 -3 3 -3h12q2 19 5 19q2 0 4 -5q0 -21 -14 -21h-6 q-12 0 -12 15v49zM1985 -316v-9q2 -5 9 -5l3 5v12l-7 2q-3 0 -5 -5zM1985 572h5v23h-5v-23zM1985 663v1h3q2 0 5 -5l-3 -1q-3 0 -5 5zM1985 1040v27q1 3 3 3q3 0 3 -3v-27q0 -3 -3 -3t-3 3zM1987 1026v3h9q2 0 4 4v37q1 3 3 3q3 0 3 -3v-41q0 -2 -6 -6h-10q-3 0 -3 3z M1993 525q4 -32 13 -50q8 0 17 50h-30zM1994 808h54v16h-54v-16zM1994 974q5 9 11 12l3 -4q-8 -11 -9 -11h-2q-3 0 -3 3zM1996 92v13q0 3 3 3q1 0 1 -1l6 3q8 0 8 -14v-4q0 -3 -3 -3q-1 3 -3 16h-5q-3 0 -4 -16h-2zM1999 -244q0 3 3 3q3 -1 3 -3q5 3 9 3q9 0 9 -11v-4 q0 -13 -12 -13l-6 3q0 -13 -3 -13t-3 3v32zM2000 37v13q1 3 3 3t2 -1l3 1h5q-10 -6 -10 -19h-1zM2000 649l3 1h5q3 0 3 -3v-15l3 2q3 -1 3 -4l-9 -6h-2v22q-6 0 -6 3zM2002 571q14 8 15 8v1q-15 0 -15 3l3 2h17q0 2 3 6v14q0 3 3 3h12q3 -1 3 -3v-16l-11 2h-1q-2 0 -5 -5v-1 h19v-5h-16q16 -9 16 -11l-3 -1q-2 0 -16 9q0 -12 -3 -12q-1 1 -1 14q-15 -11 -16 -11h-1q-3 0 -3 3zM2002 586v3q6 7 6 12q-6 0 -6 4q2 0 9 6q2 -3 2 -5h7q3 0 3 -3q-1 -15 -6 -15h-3q-3 0 -3 3q8 1 8 10h-6q0 -9 -10 -15h-1zM2005 -250v-9q1 -5 9 -5q5 6 5 11q0 7 -9 7 q-3 0 -5 -4zM2005 661v2h3q2 0 5 -5v-3h-2q-2 0 -6 6zM2010 -321q0 14 12 14h3q7 -4 7 -14l-3 -1h-13v-3q0 -2 6 -5l9 2v-2q0 -3 -11 -4q-9 0 -10 12v1zM2010 719h36v23h-36v-23zM2013 621v5q2 0 12 3v1q-11 16 -11 19q4 0 8 15h13q4 0 5 -12q6 0 6 -3l-3 -2h-3q-6 0 -6 12 h-9q-2 -12 -8 -12v-1h22q3 -1 3 -3t-10 -14q13 -3 13 -6l-3 -2q-7 2 -13 6q-10 -6 -15 -6h-1zM2016 -316v-1h10v3q0 3 -3 3h-3q-2 0 -4 -5zM2016 1033q0 4 12 5q4 31 7 31l4 -2l-5 -29l3 2q3 -1 3 -3q0 -5 -23 -7zM2016 1076q0 3 3 3h9v2l-6 9l3 1h1q3 0 8 -9q-3 0 -3 -3 q11 0 11 -3t-3 -3h-20q-3 0 -3 3zM2017 1067l3 2q5 0 6 -26l-3 -2q-3 3 -6 26zM2022 -34q0 4 3 4q1 0 1 -2l6 3q7 -3 8 -6v-9q-3 -6 -9 -8h-5q0 -7 -3 -7l-1 3v22zM2022 -78q0 3 3 3h6q3 0 6 -1q3 1 6 1h3q2 0 5 -4v-13q0 -3 -3 -3q-2 17 -5 17h-1q-3 0 -5 -17h-2 q-1 17 -4 17h-2q-3 0 -4 -17h-2l-1 3v14zM2023 -157q1 3 3 3h9q4 -1 4 -3v-29q2 -6 10 -6h41q3 -1 3 -3q0 -3 -3 -3h-41q-6 0 -15 7q-7 -7 -8 -7q-3 0 -3 3v1l8 9v23q-8 0 -8 3v2zM2023 640q0 -3 6 -6q4 0 6 7h-12v-1zM2023 921v54q0 3 9 5q3 6 3 9h5q3 0 3 -3q-3 -5 -3 -7 h11q3 0 3 -16h1q9 21 9 26h5q3 0 3 -3l-3 -7h21l3 -2q-1 -15 -1 -23v-23q-2 -14 -14 -14h-10q-4 0 -4 4v1q1 3 4 3h13q5 0 5 40v6h-18q-4 0 -7 -11h-4l-3 2v-41q0 -4 -3 -4h-2q-3 0 -3 7h-15q0 -7 -3 -7h-2q-3 0 -3 4zM2026 -37v-7q1 -3 3 -3h3q3 0 3 3v7q0 3 -3 3h-3 q-3 0 -3 -3zM2028 -134q0 3 3 3t9 -11v-3q0 -3 -3 -3l-9 12v2zM2029 -234q1 4 3 4l2 -4v-30q0 -3 -3 -3l-2 3v30zM2029 595h10v8h-10v-8zM2031 930h15v18h-15v-18zM2031 954h15v17h-15v-17zM2039 -310q0 3 3 3q0 -3 3 -3q0 3 3 3h1q3 0 3 -3q-10 0 -10 -23h-2l-1 3v20z M2040 -253q0 12 12 12t12 -12v-3q0 -13 -13 -13q-9 0 -11 13v3zM2040 1062q1 4 3 4h41q3 -1 3 -4t-3 -3h-20v-6h17q3 0 3 -3v-17q0 -8 -6 -10h-3q-3 0 -3 4l-3 -1q-3 0 -3 3v20h-6v-20q0 -3 -3 -3t-3 3v20h-6v-23q0 -3 -3 -3t-3 3v24q0 3 3 3h13v6h-15q-3 0 -3 3zM2043 -43 q0 5 12 5v4h-6l-3 -1l-1 3l7 3q7 -3 8 -6v-12q0 -3 -3 -3q-2 0 -2 1l-3 -1h-6q-3 0 -3 3v4zM2043 -157q1 3 3 3h20v9h-12q-1 -8 -5 -8h-1q-3 0 -3 3q8 19 10 19q3 -1 3 -3q-1 -3 -1 -5h9q0 9 3 9t3 -9h15q3 0 3 -3t-3 -3h-15v-9h20q3 -1 3 -3q0 -3 -3 -3h-46q-3 0 -3 3z M2043 1075v10q1 3 3 3q3 0 3 -3v-7h11v12q0 3 3 3t3 -3v-12h9v7q1 3 3 3q3 0 3 -3v-12l-1 -3l-11 2h-23q-3 0 -3 3zM2045 -256q3 -7 6 -8h3q6 3 6 9q0 9 -9 9q-6 -2 -6 -10zM2048 -44v-3h4q3 0 3 3v3h-4q-3 -1 -3 -3zM2049 -168q1 3 3 3h32q3 0 3 -3v-18q0 -3 -3 -3h-1l-5 3 h-21l-5 -3q-3 0 -3 3v18zM2049 580v2l6 15q-6 0 -6 3q6 0 8 11h1q2 -8 6 -13v-1h-4v-3l4 -6v-2h-1l-3 2v-19q0 -3 -3 -3l-2 3v16h-1q0 -5 -3 -5h-2zM2049 649l3 1h5q3 0 3 -3v-18l4 3h4v-2q0 -2 -10 -7h-4l1 7v16q-6 0 -6 3zM2052 661v3h2q2 0 6 -6v-3h-2q-2 0 -6 6z M2054 -85q2 10 6 10h9v9h5v-26q0 -3 -3 -3q-2 0 -2 2l-6 -3q-9 4 -9 11zM2054 514v2q0 3 3 3h30q3 0 3 -3v-5l-12 -18v-4l3 1h2q2 0 12 -12v-3l-8 -2q-5 9 -7 9h-2v-44q0 -3 -3 -3h-3q-3 0 -3 3v43l-11 -9h-3v7q18 20 25 32h-23q-3 0 -3 3zM2055 -171v-9h25v9h-25zM2058 -85 q3 -7 5 -7h3q3 0 3 4v7q0 3 -3 3h-3q-4 0 -5 -7zM2060 35v98q0 3 3 3h6q3 -1 3 -3v-98q0 -3 -3 -3h-6q-3 0 -3 3zM2061 959l3 1q4 -1 14 -15q0 -2 -4 -5q-13 14 -13 19zM2063 649l3 1h11v13q0 3 3 3l1 -3v-13h9q3 0 3 -3l-3 -1h-9v-23q0 -3 -3 -3l-1 3v23h-11q-3 0 -3 3z M2064 -34q1 4 4 4q1 0 1 -2l6 3q8 -2 8 -11v-7q0 -3 -3 -3q-2 16 -5 16h-1q-5 0 -6 -16h-2l-2 3v13zM2064 592q1 10 10 19l1 -3l-1 -3h15q3 -1 3 -4v-24q0 -8 -6 -11h-8q-3 0 -3 3v2h9q3 0 3 3v26h-16q-2 -8 -5 -8h-2zM2066 537l5 3h1q4 0 9 -13l-7 -5q-8 12 -8 15z M2066 580q7 17 11 17v-2q0 -2 -5 -13h8l-3 6l3 1q6 -8 6 -12q-2 0 -2 -1l-3 1h-10l-3 -1q-2 2 -2 4zM2068 -261q2 11 16 11q-1 3 -1 4h-2l-10 -1v1q1 5 9 5h3q2 0 6 -6v-17q0 -3 -3 -3q0 3 -3 3q0 -2 -5 -5q-8 0 -10 8zM2069 205v166q1 3 3 3h15q3 0 3 -3v-70h2q12 20 30 20 h13q33 0 33 -55v-61q0 -3 -3 -3h-17q-3 0 -3 3v73q-3 24 -19 24h-8q-23 0 -28 -33v-64q0 -3 -3 -3h-15q-3 0 -3 3zM2071 710q0 3 3 3h19q3 0 5 4v123q1 3 3 3h6q3 -1 3 -3v-124q-2 -15 -15 -15h-20q-4 1 -4 9zM2071 736v88q0 3 3 3h6q3 0 3 -3v-88q0 -3 -3 -3h-6q-3 0 -3 3z M2072 1029h6v20h-6v-20zM2074 -259v-2q0 -3 4 -3q6 1 6 9h-1q-9 -1 -9 -4zM2078 -78q1 3 3 3l2 -3v-14q0 -3 -3 -3l-2 3v14zM2080 -66h3v-4h-3v4zM2084 441q35 14 35 60v17q1 3 3 3h4q3 -1 3 -3v-33l-2 -3q8 0 8 -3v-29q0 -3 3 -3h10q3 0 5 5v14h5q4 0 4 -6q0 -22 -14 -22 h-10q-9 0 -12 8v24h-2q0 -17 -34 -35h-1zM2086 -40q4 11 11 11q7 -3 7 -6v-5q0 -3 -14 -3q0 -2 5 -4h3l3 1l2 -3l-6 -3q-9 0 -11 12zM2087 -75q3 0 3 5h5q0 -5 3 -5v-3h-3v-14h3v-3h-5q-3 0 -3 3v14h-3v3zM2089 66q4 38 32 38h9q26 0 31 -35q-5 -38 -32 -38h-8q-26 0 -32 35 zM2090 -38h10v1q0 3 -3 3h-2q-2 0 -5 -4zM2090 1030q1 3 3 3h29v48h-24q-3 0 -3 3t3 3h57q3 -1 3 -3q0 -3 -3 -3h-25v-48h28q3 0 3 -3t-3 -3h-65q-3 0 -3 3zM2093 -256q0 10 10 15h6l4 -3q0 14 3 14l2 -4v-30q0 -3 -3 -3q0 3 -3 3q0 -4 -8 -5q-11 6 -11 13zM2098 472v61 q1 3 3 3h49q3 -1 3 -3v-61q0 -3 -3 -3h-5q-3 0 -3 3v55h-35v-55q0 -3 -3 -3h-3q-3 0 -3 3zM2100 -143l10 6q1 7 5 7q3 0 3 -3l-2 -7h13q3 -1 3 -3q0 -4 -3 -4h-16q0 -2 -6 -18h8v12q0 3 3 3t3 -3v-12q9 0 9 -3t-9 -3v-8h8q3 0 3 -3t-3 -3h-8v-13q0 -3 -3 -3t-3 3v12h-2 q-1 0 -12 -2l-1 3q0 5 15 5v9h-11q-3 0 -3 5q5 13 5 19q-6 0 -6 4zM2100 -255q0 -9 9 -9q4 6 4 11q-1 7 -4 7q-9 0 -9 -9zM2101 -84q0 8 11 11q9 0 10 -12q-3 -11 -10 -11q-9 0 -11 12zM2103 67q0 -26 23 -26q19 0 21 26q-2 26 -21 26q-23 0 -23 -26zM2106 -82v-5q0 -2 4 -5 h3q4 0 5 8q-2 6 -5 6h-3q-2 0 -4 -4zM2106 936q16 36 18 36h2q3 0 3 -3q-12 -31 -19 -36zM2109 -23q0 3 3 3l1 -3v-24q0 -3 -3 -3l-1 3v24zM2115 571v53q0 3 3 3h4q4 0 4 -7q8 9 18 9h1q20 0 20 -28v-30q0 -3 -3 -3h-6q-3 0 -3 3v37q0 12 -12 12q-14 0 -15 -19v-30 q0 -3 -4 -3h-4q-3 0 -3 3zM2122 -255q3 14 14 14q9 0 9 -11v-1q0 -3 -3 -3h-13v-2q1 -6 7 -6l8 1v-1q-2 -5 -9 -5q-9 0 -13 14zM2122 756q5 3 48 9q14 4 14 6q-4 0 -22 17q-20 -17 -21 -17h-2q-2 0 -6 6v2q28 21 38 36v2h-29v-16q0 -3 -3 -3h-6q-3 0 -3 3v23q1 3 3 3h61 l-7 11v2q0 2 7 6h2q2 0 10 -13v-3l-1 -3h56q3 0 3 -3v-23q0 -3 -3 -3h-6q-3 0 -3 3v16h-78v-2l8 -1v-3l-5 -7h65q3 0 3 -3v-7q-22 -23 -31 -23q0 -7 57 -9l1 -3q-6 -9 -9 -9q-30 0 -64 13q-28 -12 -70 -17q-7 8 -7 10zM2124 921v1q0 3 3 3h12v61q1 3 3 3h2q3 0 3 -3v-62 q-3 -7 -11 -7h-9q-3 0 -3 4zM2126 -78q0 3 3 3q1 0 1 -1l3 1h5q-9 -5 -9 -20h-2l-1 3v14zM2126 -156q9 8 21 26h1q16 -23 22 -23v-3q0 -3 -3 -3q-5 0 -20 20q0 -5 -17 -20h-1q-3 0 -3 3zM2129 -252h12v2q0 2 -5 4h-3q-2 0 -4 -6zM2135 -160q0 3 3 3q3 -1 3 -3v-12h1 q7 4 14 10h3q3 0 3 -3l-21 -17v-7q0 -3 3 -3h14q1 0 6 13h1q3 0 3 -3q-2 -16 -7 -16h-22q-4 1 -4 9v29zM2138 -40q4 11 10 11q7 -3 8 -6v-5q0 -3 -14 -3q0 -2 5 -4h3l3 1l2 -3l-7 -3q-8 0 -10 12zM2142 -38h9v1q0 3 -3 3h-1q-2 0 -5 -4zM2148 701v42q1 3 3 3h92q3 0 3 -3 v-42q0 -3 -3 -3h-6q-3 0 -3 6h-73q0 -6 -3 -6h-7q-3 0 -3 3zM2150 -244q0 3 3 3l5 -3q0 3 3 3h1q3 -1 3 -3q-9 -3 -9 -6v-14q0 -3 -3 -3t-3 3v20zM2156 971l3 1h2q18 -28 18 -36l-3 -2h-2q-4 0 -18 37zM2159 -30h2q3 0 6 -14h1q3 14 6 14h2v-2q-4 -18 -9 -18q-4 0 -8 20z M2161 -76q2 7 4 7q1 -6 5 -6v-3h-3v-14q4 0 4 -3l-3 -1q-5 0 -7 20zM2161 714h73v22h-73v-22zM2165 1041v2q8 9 8 23q-8 0 -8 3q1 3 3 3h8v10l-8 -1l-1 3q0 4 24 6l2 -3q0 -3 -9 -3v-12q9 0 9 -3t-9 -3v-7q6 0 9 -10l-3 -2l-6 5v-28q0 -3 -3 -3h-2q-3 0 -3 3v26h-2 q0 -8 -6 -12q-3 0 -3 3zM2170 95v4q0 3 3 3h8v5q1 30 21 30h8q2 0 4 -4v-5q0 -3 -3 -3l-8 2q-9 -3 -9 -12v-13h14q3 0 3 -3v-4q0 -3 -3 -3h-14v-57q0 -3 -3 -3h-7q-3 0 -3 3v57h-8q-3 0 -3 3zM2173 594v7q4 28 27 28h6q22 0 26 -28v-6q-5 -29 -27 -29h-6q-22 0 -26 28z M2173 794q16 -19 27 -19q18 9 28 19h-55zM2174 -81q5 8 11 8q6 -2 9 -8v-3q-1 -12 -10 -12q-7 2 -10 8v7zM2176 -165q0 3 3 3h31q0 12 18 20v2h-41q-3 0 -3 3v1q0 3 3 3h52q3 0 3 -3v-1l-25 -22v-3h28q3 0 3 -3t-3 -3h-28v-21q0 -11 -11 -11h-9q-3 0 -3 3v2q1 3 3 3l9 -2 q4 0 4 3v23h-31q-3 0 -3 3zM2179 -37q3 6 9 8q9 -3 9 -12l-3 -2h-10v-1q0 -3 3 -3h4l3 1l2 -3l-8 -3q-9 0 -9 11v4zM2179 -81v-7q0 -4 3 -4l8 2v11l-8 1q-3 0 -3 -3zM2181 438v96q0 3 3 3h90q3 0 3 -3v-96q0 -3 -3 -3h-3q-3 0 -3 6h-78q0 -6 -3 -6h-3q-3 0 -3 3zM2184 -37 v-1h9q-2 3 -2 4h-4q-3 0 -3 -3zM2184 595q0 -19 21 -19q15 3 15 15v10q0 19 -20 19q-15 0 -16 -25zM2190 450h78v80h-78v-80zM2190 922v3q7 2 33 3l2 -3q0 -4 -34 -6zM2190 972l13 19q3 -1 3 -3v-2l-1 -3q14 0 14 -3v-3l-5 -8q8 0 8 -3v-30l-2 -3l-7 1h-13l-4 -3q-3 0 -3 3 v26q-3 11 -3 12zM2190 1029q0 3 3 3h17v9h-13q-3 0 -3 3q1 3 3 3h13v8h-14q-3 0 -3 3t3 3h36q3 -1 3 -3q0 -3 -3 -3h-15v-8h12q3 0 3 -3t-3 -3h-12v-9h17q3 -1 3 -3q0 -3 -3 -3h-41q-3 0 -3 3zM2191 487q26 8 29 8q0 2 -12 12q-4 -8 -12 -8l-2 3v2q10 9 23 24h2q2 0 4 -4 l-3 -5h35q3 0 3 -3v-3q-13 -15 -18 -15v-3l24 -5l-1 -8q-9 0 -34 8q-26 -9 -36 -9zM2193 252v64q0 3 3 3h15q3 0 3 -3v-56q0 -43 28 -43q25 0 29 38v61q0 3 3 3h15q3 0 3 -3v-111q0 -3 -3 -3h-15q-3 0 -3 16q-17 -20 -36 -20q-42 0 -42 54zM2196 1067v20q0 3 3 3h30 q3 -1 3 -3v-20q0 -3 -3 -3h-1q-4 3 -5 3h-20l-4 -3q-3 0 -3 3zM2197 -78q1 3 3 3q2 -3 3 -17h5q3 0 5 17h1l2 -3v-14q0 -3 -3 -3q-2 0 -2 2l-6 -3q-8 0 -8 14v4zM2197 969h8q2 0 6 6v2h-11q0 -2 -3 -6v-2zM2199 940h6v10h-6v-10zM2199 956h6v7h-6v-7zM2200 -34q1 4 3 4t2 -2 l6 3q8 -2 8 -11v-7q0 -3 -3 -3q-2 16 -5 16h-1q-5 0 -7 -16h-1l-2 3v13zM2200 464q0 2 5 5q49 -5 49 -9v-2q0 -2 -5 -5q-49 7 -49 11zM2202 1073h23v11h-23v-11zM2211 940h5v10h-5v-10zM2211 956h5v7h-5v-7zM2213 475v9q33 -4 33 -8v-3q0 -3 -3 -3q-24 5 -30 5zM2216 510 q1 -4 13 -11q12 6 16 12h-29v-1zM2217 67v3q6 34 32 34h8q25 0 30 -32v-8q-5 -33 -32 -33h-7q-27 0 -31 36zM2220 -81q4 8 12 8l3 -5q-4 0 -10 -1v-11q6 -2 10 -2q0 -2 -6 -4q-6 2 -9 8v7zM2222 -30q3 0 3 4h4q0 -4 3 -4v-4h-3v-13h3v-3h-4q-3 0 -3 3v13h-3v4zM2223 937 q1 3 3 3h14v13h-12q-3 0 -3 3t3 3h12v10h-14q-3 0 -3 3t11 3q-6 10 -6 14h3q2 0 8 -7v-2l-4 -5h8q7 16 11 16l3 -5l-8 -11q14 0 14 -3t-3 -3h-14v-10h12q3 -1 3 -3q0 -3 -3 -3h-12v-13h14q3 0 3 -3t-3 -3h-14v-15q0 -3 -3 -3t-3 3v15h-14q-3 0 -3 3zM2231 64q3 -23 20 -23h1 q22 0 22 22v9q0 21 -22 21h-1q-17 0 -20 -23v-6zM2235 -35q0 2 5 5h6q3 -1 3 -4h-9v-1l9 -8v-4q0 -3 -7 -5q-7 2 -7 5q2 0 2 1l3 -1h3q3 0 3 3q-10 4 -11 7v2zM2237 597v3q4 29 26 29h5q5 0 13 -6v30q1 3 3 3h6q3 0 3 -3v-82q0 -3 -3 -3h-6q-3 0 -3 6q-9 -8 -15 -8h-8 q-21 0 -21 31zM2239 -67q0 3 3 3q1 -2 1 -12l3 1h6q2 0 5 -4v-13q0 -3 -3 -3q-2 17 -5 17h-1q-5 0 -6 -17h-2l-1 3v25zM2243 1043v42q1 3 3 3h2q3 0 3 -3v-42q0 -3 -3 -3h-2q-3 0 -3 3zM2246 1027q11 9 11 28v35q0 3 3 3t3 -3v-37q0 -21 -12 -30q-2 0 -5 4zM2249 591 q3 -15 15 -15h2q15 3 15 15v15q0 14 -17 14q-12 0 -15 -17v-12zM2260 -84q4 11 11 11q7 -3 7 -6v-5q0 -3 -14 -3q0 -2 5 -5h3l3 2l2 -3l-6 -3q-9 0 -11 12zM2264 -82h10v1q0 3 -3 3h-2q-2 0 -5 -4zM2268 1087q0 3 3 3h38q3 -1 3 -3q0 -3 -3 -3h-17v-9h14q3 -1 3 -3v-32 q0 -3 -6 -7h-6q-4 0 -4 4l10 6v26h-11v-45q0 -3 -3 -3t-3 3v45h-9v-34q0 -3 -3 -3t-3 3v37q0 3 3 3h12v9h-15q-3 0 -3 3zM2275 -32q2 8 5 8q0 -6 4 -6v-4h-3v-13h3v-3h-4q-3 0 -5 18zM2275 756q20 30 23 47h-18q-3 0 -3 3v5q0 3 3 3h18v27q1 3 3 3h6q3 0 3 -3v-27h16 q3 -1 3 -3v-5q0 -3 -3 -3h-16v-15h2q3 1 4 1l14 -20v-1q-3 -6 -9 -6q-9 15 -9 17h-2v-78q0 -3 -3 -3h-6q-3 0 -3 3v70h-1q0 -5 -14 -29h-2q-3 0 -6 14zM2278 919v58q1 3 3 3h26v8q1 3 3 3h2q3 -1 3 -3v-5l-2 -3h26q3 0 3 -3v-53q-2 -7 -10 -7h-8q-2 0 -5 7l3 1h13v49h-23v-2 q0 -1 20 -15v-1q0 -3 -3 -3l-19 12l-15 -12h-3q-3 0 -3 3q16 12 17 16v2h-20v-55q0 -3 -3 -3h-2q-3 0 -3 3zM2283 -78q0 3 3 3q1 0 1 -1l3 1h3v-3q-6 0 -6 -10q0 -7 -3 -7l-1 3v14zM2289 -23l3 2l1 -3l-3 -2zM2289 -34q0 4 3 4l1 -4v-13q0 -3 -3 -3l-1 3v13zM2289 931v2 q20 13 20 26h1q2 0 6 -14q8 -1 16 -11q0 -2 -5 -4q0 2 -15 12h-2q-14 -14 -20 -14zM2297 32v3l21 31v1l-21 34l3 1h9q4 0 17 -27l19 27h11v-3l-21 -32q21 -32 21 -35h-12q-4 0 -17 28h-1q-12 -24 -19 -28h-10zM2298 -37q3 6 9 8q9 -3 9 -12l-3 -2h-10v-1q0 -3 3 -3h4l3 1 l2 -3l-8 -3q-9 0 -9 11v4zM2298 452v4h40q3 0 3 -3l-3 -1h-20q-2 0 -8 -8h19l-3 5v1h1q2 0 9 -9v-3h-1q-4 3 -6 3q-6 0 -26 -1l-2 3q8 4 9 9h-12zM2298 466v4q0 3 11 3l-5 6l3 2q5 -5 5 -8h4q0 9 3 9q2 -2 2 -9h6q0 8 5 8h3v-2l-5 -6q11 0 11 -3v-4q0 -3 -3 -3q-2 2 -2 6 h-33q0 -6 -3 -6zM2300 495v1q3 14 3 20v17q0 3 3 3h32q3 -1 3 -3v-6q0 -3 -3 -3h-31v-5q-1 -24 -6 -24h-1zM2301 597v1q5 31 28 31h3q19 0 23 -26v-6q0 -3 -4 -3h-38v-2q3 -16 17 -16h2q3 0 18 4v-6q0 -5 -17 -8h-6q-23 0 -26 31zM2303 -37v-1h9q-2 3 -2 4h-4q-3 0 -3 -3z M2304 463l3 1h25q3 0 3 -3l-3 -1h-25q-3 0 -3 3zM2307 528h29v3h-29v-3zM2309 498v9q0 3 4 3l-1 3v6q0 3 3 3h20q2 0 4 -14q2 0 2 -1v-8q0 -3 -3 -3h-6v3h6v6h-11v-9q0 -3 -3 -3l-2 3v9h-9v-7q0 -3 -3 -3zM2313 605h31q-2 15 -14 15h-1q-16 -4 -16 -15zM2315 510h7v1h-7v-1z M2316 516h17v2h-17v-2zM2321 205v166q0 3 3 3h17q3 0 3 -3v-69q16 19 36 19h5q40 0 46 -52v-9q-6 -62 -54 -62q-17 0 -33 17q0 -13 -3 -13h-17q-3 0 -3 3zM2322 716q0 2 37 14q8 4 8 6q-5 12 -8 27l-23 -3q-3 8 -3 11q25 3 25 6v8l-2 10h-3l-18 -1l-2 3v6q0 5 23 5v1 q-1 13 -1 21v11q0 3 3 3h6q4 0 4 -20v-15l48 6q3 -8 3 -11q-6 -3 -49 -6v-18q0 -3 3 -3l46 6l1 -3v-6q0 -4 -47 -9v-2q3 -23 7 -23l25 20h1q3 0 7 -6v-1q0 -2 -29 -25q11 -15 19 -15q4 0 10 26h1q4 0 11 -5q-7 -35 -20 -35h-3q-15 0 -29 25q-35 -17 -44 -17zM2327 510h8v1 h-8v-1zM2344 246q0 -24 30 -29q30 0 34 39v16q-6 30 -24 30h-11q-23 0 -29 -30v-26zM2351 443l4 1h18v-3l-15 -1h-3q-4 0 -4 3zM2351 470q8 12 10 12h1q0 -6 8 -6v-1l-3 -5q6 0 6 -3v-14h9v7q-8 0 -8 3q3 1 8 1v6q-9 0 -9 3q4 2 4 3q-1 3 -1 5h1q5 0 5 -6h2q6 7 7 7l2 -3 l-3 -4q6 0 6 -3q-3 -2 -9 -2v-6q9 0 9 -3q-3 -1 -9 -1v-7h7q3 0 3 -3l-3 -1h-7v-8q0 -3 -3 -3l-2 3v8h-23l-3 -2l-1 3v16zM2355 495v4h42v-4h-42zM2355 521q11 16 12 16l1 -3l-7 -12h1q8 2 8 6h4v-3l-10 -15h9v-2q0 -3 -3 -3h-11q-3 0 -3 3q3 0 9 11h-1l-8 -1zM2355 569v8 h13q6 0 8 17v55q0 3 3 3h6q3 -1 3 -3v-48q0 -35 -21 -35h-9q-3 0 -3 3zM2358 453h3v5h-3v-5zM2358 461h3v6h-3v-6zM2358 470h3q2 0 4 5h-4q-3 -1 -3 -3v-2zM2365 453h3v5h-3v-5zM2365 461h3v6h-3v-6zM2374 521q10 11 10 15h4v-2l-8 -12h8l2 6h4v-3l-10 -15h10v-2q0 -3 -3 -3 h-12q-3 0 -3 3q2 0 8 10q-10 0 -10 3zM2377 833v4q0 2 7 6h1q20 -13 20 -16v-1q-4 -8 -6 -8q-19 15 -22 15zM2399 572v10q14 -5 18 -5h9q12 0 12 12q0 8 -35 26q-4 8 -4 12v3q0 23 32 23q17 -1 17 -6v-6q0 -3 -3 -3q-8 5 -16 5h-1q-17 0 -17 -13q0 -10 32 -24q8 -9 8 -18 q0 -20 -29 -22h-3q-20 1 -20 6zM2408 440l1 15v23q1 3 4 3l1 -3v-9h3v10q1 3 3 3q2 -13 5 -16l-3 -2h-8v-4q8 0 8 -10v-7h1l3 10v23q0 4 23 5l2 -3q-9 -3 -20 -3v-6h15q3 -1 3 -3v-2q0 -6 -6 -15q0 -4 8 -5v-4h-3q-6 4 -10 4q0 -2 -7 -6q-3 0 -3 3q-6 -3 -9 -3l-2 3v14h-3 q0 -4 -3 -15h-3zM2409 495l2 15v23q0 3 3 3l2 -3v-9h3v10q0 3 3 3q2 -13 4 -16l-3 -2h-7v-5q7 0 7 -9v-7h2l3 10v23q0 4 23 5l1 -3q-9 -3 -20 -3v-6h16q3 -1 3 -3v-2q0 -6 -6 -15q0 -4 7 -5v-4h-3q-6 4 -9 4q0 -2 -8 -6q-3 0 -3 3q-6 -3 -9 -3l-1 3v14h-3q0 -4 -3 -15h-4z M2428 443h1q7 3 8 6q-5 8 -5 15h-1q0 -12 -3 -21zM2429 498h2q7 3 7 6q-4 8 -4 15h-2q0 -12 -3 -21zM2435 464q4 -12 7 -12q3 10 3 12h-10zM2437 519q3 -12 6 -12q3 10 3 12h-9z" />
<glyph unicode="m" horiz-adv-x="2410" d="M37 787v11q0 67 82 97h26q32 0 144 -69l914 -529h5q948 549 1035 596l31 2q100 -17 100 -100v-8q0 -70 -111 -118l-1058 -611q-1105 635 -1137 660q-31 32 -31 69zM37 1198v10q0 68 82 98h26q32 0 144 -69l914 -529h5q948 549 1035 595l31 3q100 -17 100 -100v-8 q0 -70 -111 -118l-1058 -611q-1105 635 -1137 660q-31 32 -31 69z" />
<glyph unicode="n" horiz-adv-x="2630" d="M10 984q0 173 136 319.5t371.5 231.5t512 85t511.5 -85t371 -231.5t136 -319t-136 -319t-371 -231.5t-512 -85q-124 0 -255 20q-179 -110 -402 -159q-52 -11 -125 -20h-4q-16 0 -29.5 10t-16.5 26q-2 4 -2 8t1 8t3 7.5t3.5 6t5 7t6 6.5t6.5 6t6 5q7 8 33 31.5t37.5 36.5 t32.5 36t36.5 48t29.5 55q-179 89 -282 219.5t-103 277.5zM195 984q0 -101 77 -195.5t216 -164.5l140 -69l-51 -104q50 24 90 48l64 38l77 -12q113 -17 221 -17q222 0 414.5 64.5t306 175t113.5 237t-113.5 237t-306 175t-414 64.5t-414 -64.5t-306.5 -175t-114 -237.5z M902 195q84 -5 127 -5q233 0 447.5 56t382.5 160q180 114 277 263t97 315q0 96 -33 189q187 -88 295.5 -221t108.5 -285q0 -149 -103 -279t-282 -219q14 -30 29.5 -55t36.5 -48t32.5 -36t37.5 -36.5t33 -30.5l6 -6t6.5 -6t6 -6.5t5 -7t3.5 -6t3 -7.5t1 -8t-2 -8 q-4 -17 -18.5 -27t-31.5 -9q-73 9 -125 20q-223 50 -402 159q-131 -20 -255 -20q-392 0 -683 164z" />
<glyph unicode="&#xad;" horiz-adv-x="670" d="M116 437v83q0 29 41 29h356q41 0 41 -29v-83q0 -28 -40 -28h-358q-40 0 -40 28z" />
<glyph unicode="&#x2000;" horiz-adv-x="938" />
<glyph unicode="&#x2001;" horiz-adv-x="1877" />
<glyph unicode="&#x2002;" horiz-adv-x="938" />
<glyph unicode="&#x2003;" horiz-adv-x="1877" />
<glyph unicode="&#x2004;" horiz-adv-x="625" />
<glyph unicode="&#x2005;" horiz-adv-x="469" />
<glyph unicode="&#x2006;" horiz-adv-x="312" />
<glyph unicode="&#x2007;" horiz-adv-x="312" />
<glyph unicode="&#x2008;" horiz-adv-x="234" />
<glyph unicode="&#x2009;" horiz-adv-x="375" />
<glyph unicode="&#x200a;" horiz-adv-x="104" />
<glyph unicode="&#x2010;" horiz-adv-x="670" d="M116 437v83q0 29 41 29h356q41 0 41 -29v-83q0 -28 -40 -28h-358q-40 0 -40 28z" />
<glyph unicode="&#x2011;" horiz-adv-x="670" d="M116 437v83q0 29 41 29h356q41 0 41 -29v-83q0 -28 -40 -28h-358q-40 0 -40 28z" />
<glyph unicode="&#x2012;" horiz-adv-x="670" d="M116 437v83q0 29 41 29h356q41 0 41 -29v-83q0 -28 -40 -28h-358q-40 0 -40 28z" />
<glyph unicode="&#x2013;" horiz-adv-x="1256" d="M116 437v83q0 29 96 29h832q96 0 96 -29v-83q0 -28 -94 -28h-836q-94 0 -94 28z" />
<glyph unicode="&#x2014;" horiz-adv-x="2280" d="M116 437v83q0 29 192 29h1664q192 0 192 -29v-83q0 -28 -187 -28h-1674q-187 0 -187 28z" />
<glyph unicode="&#x202f;" horiz-adv-x="375" />
<glyph unicode="&#x205f;" horiz-adv-x="469" />
<glyph unicode="&#x25fc;" horiz-adv-x="500" d="M0 0z" />
</font>
</defs>
</svg>
