<svg xmlns="http://www.w3.org/2000/svg" xmlns:xlink="http://www.w3.org/1999/xlink" version="1.1" width="1218" height="801" contenteditable="true" style="font-family:Microsoft Yahei" viewBox="121 -167 1218 801">
<defs ><linearGradient x1="0" y1="0" x2="0" y2="1"><stop offset="0" stop-color="rgb(255, 255, 255)"></stop><stop offset="1" stop-color="rgb(204, 204, 204)"></stop></linearGradient><marker orient="auto" refX="6" refY="0" viewBox="-7 -7 14 14" markerWidth="7" markerHeight="7" markerUnits="userSpaceOnUse"><path fill="white" stroke="none" d="M6,0A6,6,0,1,1,-6,0A6,6,0,1,1,6,0"></path></marker></defs><g transform="translate(0.5, 0.5)"><g text-rendering="optimize-speed" transform="translate( 701 376 )"><g ><path fill="none" stroke="white" stroke-width="3" marker-end="url(#kity_marker_2)" d="M96 0A154,0,0,0,1,250 0" transform="translate( 0 0 )"></path><path fill="none" stroke="white" stroke-width="2" d="M346 0C351,0,351,-210,356 -210L422 -210" transform="translate( 0.5 0.5 )"></path><path fill="none" stroke="white" stroke-width="2" d="M422 -210C427,-210,427,-338,432 -338L516 -338" transform="translate( 0.5 0.5 )"></path><path fill="none" stroke="white" stroke-width="2" d="M516 -338C521,-338,521,-498,526 -498L587 -498" transform="translate( 0.5 0.5 )"></path><path fill="none" stroke="white" stroke-width="2" d="M516 -338C521,-338,521,-466,526 -466L594 -466" transform="translate( 0.5 0.5 )"></path><path fill="none" stroke="white" stroke-width="2" d="M516 -338C521,-338,521,-434,526 -434L587 -434" transform="translate( 0.5 0.5 )"></path><path fill="none" stroke="white" stroke-width="2" d="M516 -338C521,-338,521,-402,526 -402L585 -402" transform="translate( 0.5 0.5 )"></path><path fill="none" stroke="white" stroke-width="2" d="M516 -338C521,-338,521,-370,526 -370L592 -370" transform="translate( 0.5 0.5 )"></path><path fill="none" stroke="white" stroke-width="2" d="M516 -338C521,-338,521,-338,526 -338L610 -338" transform="translate( 0.5 0.5 )"></path><path fill="none" stroke="white" stroke-width="2" d="M516 -338C521,-338,521,-306,526 -306L618 -306" transform="translate( 0.5 0.5 )"></path><path fill="none" stroke="white" stroke-width="2" d="M516 -338C521,-338,521,-274,526 -274L607 -274" transform="translate( 0.5 0.5 )"></path><path fill="none" stroke="white" stroke-width="2" d="M516 -338C521,-338,521,-242,526 -242L592 -242" transform="translate( 0.5 0.5 )"></path><path fill="none" stroke="white" stroke-width="2" d="M516 -338C521,-338,521,-210,526 -210L582 -210" transform="translate( 0.5 0.5 )"></path><path fill="none" stroke="white" stroke-width="2" d="M516 -338C521,-338,521,-178,526 -178L594 -178" transform="translate( 0.5 0.5 )"></path><path fill="none" stroke="white" stroke-width="2" d="M422 -210C427,-210,427,-82,432 -82L524 -82" transform="translate( 0.5 0.5 )"></path><path fill="none" stroke="white" stroke-width="2" d="M524 -82C529,-82,529,-146,534 -146L589 -146" transform="translate( 0.5 0.5 )"></path><path fill="none" stroke="white" stroke-width="2" d="M524 -82C529,-82,529,-114,534 -114L587 -114" transform="translate( 0.5 0.5 )"></path><path fill="none" stroke="white" stroke-width="2" d="M524 -82C529,-82,529,-82,534 -82L611 -82" transform="translate( 0.5 0.5 )"></path><path fill="none" stroke="white" stroke-width="2" d="M524 -82C529,-82,529,-50,534 -50L583 -50" transform="translate( 0.5 0.5 )"></path><path fill="none" stroke="white" stroke-width="2" d="M524 -82C529,-82,529,-18,534 -18L584 -18" transform="translate( 0.5 0.5 )"></path><path fill="none" stroke="white" stroke-width="2" d="M346 0C351,0,351,30,356 30L422 30" transform="translate( 0.5 0.5 )"></path><path fill="none" stroke="white" stroke-width="2" d="M422 30C427,30,427,14,432 14L518 14" transform="translate( 0.5 0.5 )"></path><path fill="none" stroke="white" stroke-width="2" d="M422 30C427,30,427,46,432 46L500 46" transform="translate( 0.5 0.5 )"></path><path fill="none" stroke="white" stroke-width="2" d="M346 0C351,0,351,142,356 142L434 142" transform="translate( 0.5 0.5 )"></path><path fill="none" stroke="white" stroke-width="2" d="M434 142C439,142,439,78,444 78L506 78" transform="translate( 0.5 0.5 )"></path><path fill="none" stroke="white" stroke-width="2" d="M434 142C439,142,439,110,444 110L530 110" transform="translate( 0.5 0.5 )"></path><path fill="none" stroke="white" stroke-width="2" d="M434 142C439,142,439,142,444 142L536 142" transform="translate( 0.5 0.5 )"></path><path fill="none" stroke="white" stroke-width="2" d="M434 142C439,142,439,174,444 174L512 174" transform="translate( 0.5 0.5 )"></path><path fill="none" stroke="white" stroke-width="2" d="M434 142C439,142,439,206,444 206L513 206" transform="translate( 0.5 0.5 )"></path><path fill="none" stroke="white" stroke-width="2" d="M346 0C351,0,351,238,356 238L434 238" transform="translate( 0.5 0.5 )"></path><path fill="none" stroke="white" stroke-width="3" marker-end="url(#kity_marker_2)" d="M96 0A0,227,0,0,1,96 -227" transform="translate( 0 0 )"></path><path fill="none" stroke="white" stroke-width="2" d="M-74 -227C-79,-227,-79,-277,-84 -277L-173 -277" transform="translate( 0.5 0.5 )"></path><path fill="none" stroke="white" stroke-width="2" d="M-74 -227C-79,-227,-79,-245,-84 -245L-158 -245" transform="translate( 0.5 0.5 )"></path><path fill="none" stroke="white" stroke-width="2" d="M-74 -227C-79,-227,-79,-213,-84 -213L-142 -213" transform="translate( 0.5 0.5 )"></path><path fill="none" stroke="white" stroke-width="2" d="M-74 -227C-79,-227,-79,-181,-84 -181L-146 -181" transform="translate( 0.5 0.5 )"></path><path fill="none" stroke="white" stroke-width="2" d="M-74 -227C-79,-227,-79,-149,-84 -149L-153 -149" transform="translate( 0.5 0.5 )"></path><path fill="none" stroke="white" stroke-width="3" marker-end="url(#kity_marker_2)" d="M96 0A154,0,0,0,1,-58 0" transform="translate( 0 0 )"></path><path fill="none" stroke="white" stroke-width="2" d="M-209 0C-214,0,-214,-110,-219 -110L-394 -110" transform="translate( 0.5 0.5 )"></path><path fill="none" stroke="white" stroke-width="2" d="M-394 -110C-399,-110,-399,-246,-404 -246L-524 -246" transform="translate( 0.5 0.5 )"></path><path fill="none" stroke="white" stroke-width="2" d="M-394 -110C-399,-110,-399,-214,-404 -214L-467 -214" transform="translate( 0.5 0.5 )"></path><path fill="none" stroke="white" stroke-width="2" d="M-394 -110C-399,-110,-399,-182,-404 -182L-465 -182" transform="translate( 0.5 0.5 )"></path><path fill="none" stroke="white" stroke-width="2" d="M-394 -110C-399,-110,-399,-150,-404 -150L-500 -150" transform="translate( 0.5 0.5 )"></path><path fill="none" stroke="white" stroke-width="2" d="M-394 -110C-399,-110,-399,-118,-404 -118L-480 -118" transform="translate( 0.5 0.5 )"></path><path fill="none" stroke="white" stroke-width="2" d="M-394 -110C-399,-110,-399,-86,-404 -86L-451 -86" transform="translate( 0.5 0.5 )"></path><path fill="none" stroke="white" stroke-width="2" d="M-394 -110C-399,-110,-399,-54,-404 -54L-476 -54" transform="translate( 0.5 0.5 )"></path><path fill="none" stroke="white" stroke-width="2" d="M-394 -110C-399,-110,-399,-22,-404 -22L-484 -22" transform="translate( 0.5 0.5 )"></path><path fill="none" stroke="white" stroke-width="2" d="M-394 -110C-399,-110,-399,26,-404 26L-458 26" transform="translate( 0.5 0.5 )"></path><path fill="none" stroke="white" stroke-width="2" d="M-458 26C-463,26,-463,10,-468 10L-529 10" transform="translate( 0.5 0.5 )"></path><path fill="none" stroke="white" stroke-width="2" d="M-458 26C-463,26,-463,42,-468 42L-560 42" transform="translate( 0.5 0.5 )"></path><path fill="none" stroke="white" stroke-width="2" d="M-209 0C-214,0,-214,74,-219 74L-280 74" transform="translate( 0.5 0.5 )"></path><path fill="none" stroke="white" stroke-width="2" d="M-209 0C-214,0,-214,106,-219 106L-311 106" transform="translate( 0.5 0.5 )"></path><path fill="none" stroke="white" stroke-width="2" d="M-209 0C-214,0,-214,138,-219 138L-379 138" transform="translate( 0.5 0.5 )"></path></g><g transform="matrix( 1 0 0 1 0 0 )"><path fill="rgba(0, 0, 0, .25)" stroke="none" d="M1,-17h198a22,22,0,0,1,22,22v0a22,22,0,0,1,-22,22h-198a22,22,0,0,1,-22,-22v0a22,22,0,0,1,22,-22z"></path><path fill="rgb(254, 219, 0)" stroke="rgb(254, 219, 0)" d="M-3,-22h198a22,22,0,0,1,22,22v0a22,22,0,0,1,-22,22h-198a22,22,0,0,1,-22,-22v0a22,22,0,0,1,22,-22z"></path><g transform="translate( 0 -3.5999999999999996 )" fill="black" style="cursor: default;"><text text-rendering="inherit" dominant-baseline="text-before-edge" dy="0" font-size="24" y="-12">小剧客栈代码结构</text></g><path fill="rgb(27,171,255)" stroke="none" opacity="0.5" transform="translate( -0.5 -1.5 )" style="cursor: text; display: none;" d="M0,-5h39v14h-39v-14z"></path></g><g ><path fill="none" stroke="none" d="M0,0h0v0h0z"></path></g><g ><path fill="none" stroke="none" d="M0,0h0v0h0z"></path><path fill="none" stroke="none"></path></g><g transform="matrix( 1 0 0 1 267 0 )"><path fill="rgba(0, 0, 0, .25)" stroke="none" d="M-1,-8h74a10,10,0,0,1,10,10v6a10,10,0,0,1,-10,10h-74a10,10,0,0,1,-10,-10v-6a10,10,0,0,1,10,-10z"></path><g transform="translate( -21 0 )" style="cursor: pointer;"><path fill="white" stroke="gray" d="M6,0A6,6,0,1,1,-6,0A6,6,0,1,1,6,0"></path><path fill="none" stroke="gray" d="M-4.5,0L4.5,0"></path></g><path fill="#a4c5c0" stroke="#a4c5c0" d="M-5,-13h74a10,10,0,0,1,10,10v6a10,10,0,0,1,-10,10h-74a10,10,0,0,1,-10,-10v-6a10,10,0,0,1,10,-10z"></path><g transform="translate( 0 -2.4 )" fill="#333"><text text-rendering="inherit" dominant-baseline="text-before-edge" dy="0" font-size="16" y="-8">前端页面</text></g></g><g transform="matrix( 1 0 0 1 376 -224 )"><g transform="translate( -16 0 )" style="cursor: pointer;"><path fill="white" stroke="gray" d="M6,0A6,6,0,1,1,-6,0A6,6,0,1,1,6,0"></path><path fill="none" stroke="gray" d="M-4.5,0L4.5,0"></path></g><path fill="transparent" stroke="none" d="M-5,-11h46a5,5,0,0,1,5,5v12a5,5,0,0,1,-5,5h-46a5,5,0,0,1,-5,-5v-12a5,5,0,0,1,5,-5z"></path><g transform="translate( 0 -1.7999999999999998 )" fill="white"><text text-rendering="inherit" dominant-baseline="text-before-edge" dy="0" font-size="12" y="-6">尝鲜版</text></g></g><g transform="matrix( 1 0 0 1 452 -352 )"><g transform="translate( -16 0 )" style="cursor: pointer;">
<path fill="white" stroke="gray" d="M6,0A6,6,0,1,1,-6,0A6,6,0,1,1,6,0"></path><path fill="none" stroke="gray" d="M-4.5,0L4.5,0"></path></g><path fill="transparent" stroke="none" d="M-5,-11h64a5,5,0,0,1,5,5v12a5,5,0,0,1,-5,5h-64a5,5,0,0,1,-5,-5v-12a5,5,0,0,1,5,-5z"></path><g transform="translate( 0 -1.7999999999999998 )" fill="white"><text text-rendering="inherit" dominant-baseline="text-before-edge" dy="0" font-size="12" y="-6">javascript</text></g></g><g transform="matrix( 1 0 0 1 546 -512 )"><g transform="translate( -16 0 )" style="cursor: pointer;" display="none"><path fill="white" stroke="gray" d="M6,0A6,6,0,1,1,-6,0A6,6,0,1,1,6,0"></path><path fill="none" stroke="gray"></path></g><path fill="transparent" stroke="none" d="M-5,-11h41a5,5,0,0,1,5,5v12a5,5,0,0,1,-5,5h-41a5,5,0,0,1,-5,-5v-12a5,5,0,0,1,5,-5z"></path><g transform="translate( 0 -1.7999999999999998 )" fill="white"><text text-rendering="inherit" dominant-baseline="text-before-edge" dy="0" font-size="12" y="-6">seaJS</text></g></g><g transform="matrix( 1 0 0 1 546 -480 )"><g transform="translate( -16 0 )" style="cursor: pointer;" display="none"><path fill="white" stroke="gray" d="M6,0A6,6,0,1,1,-6,0A6,6,0,1,1,6,0"></path><path fill="none" stroke="gray"></path></g><path fill="transparent" stroke="none" d="M-5,-11h48a5,5,0,0,1,5,5v12a5,5,0,0,1,-5,5h-48a5,5,0,0,1,-5,-5v-12a5,5,0,0,1,5,-5z"></path><g transform="translate( 0 -1.7999999999999998 )" fill="white"><text text-rendering="inherit" dominant-baseline="text-before-edge" dy="0" font-size="12" y="-6">jQuery</text></g></g><g transform="matrix( 1 0 0 1 546 -448 )"><g transform="translate( -16 0 )" style="cursor: pointer;" display="none"><path fill="white" stroke="gray" d="M6,0A6,6,0,1,1,-6,0A6,6,0,1,1,6,0"></path><path fill="none" stroke="gray"></path></g><path fill="transparent" stroke="none" d="M-5,-11h41a5,5,0,0,1,5,5v12a5,5,0,0,1,-5,5h-41a5,5,0,0,1,-5,-5v-12a5,5,0,0,1,5,-5z"></path><g transform="translate( 0 -1.7999999999999998 )" fill="white"><text text-rendering="inherit" dominant-baseline="text-before-edge" dy="0" font-size="12" y="-6">juicer</text></g></g><g transform="matrix( 1 0 0 1 546 -416 )"><g transform="translate( -16 0 )" style="cursor: pointer;" display="none"><path fill="white" stroke="gray" d="M6,0A6,6,0,1,1,-6,0A6,6,0,1,1,6,0"></path><path fill="none" stroke="gray"></path></g><path fill="#e75d66" stroke="none" d="M-5,-11h39a5,5,0,0,1,5,5v12a5,5,0,0,1,-5,5h-39a5,5,0,0,1,-5,-5v-12a5,5,0,0,1,5,-5z"></path><g transform="translate( 0 -1.7999999999999998 )" fill="white"><text text-rendering="inherit" dominant-baseline="text-before-edge" dy="0" font-size="12" y="-6">lofox</text></g></g><g transform="matrix( 1 0 0 1 546 -384 )"><g transform="translate( -16 0 )" style="cursor: pointer;" display="none"><path fill="white" stroke="gray" d="M6,0A6,6,0,1,1,-6,0A6,6,0,1,1,6,0"></path><path fill="none" stroke="gray"></path></g><path fill="#e75d66" stroke="none" d="M-5,-11h46a5,5,0,0,1,5,5v12a5,5,0,0,1,-5,5h-46a5,5,0,0,1,-5,-5v-12a5,5,0,0,1,5,-5z"></path><g transform="translate( 0 -1.7999999999999998 )" fill="white"><text text-rendering="inherit" dominant-baseline="text-before-edge" dy="0" font-size="12" y="-6">dialog</text></g></g><g transform="matrix( 1 0 0 1 546 -352 )"><g transform="translate( -16 0 )" style="cursor: pointer;" display="none"><path fill="white" stroke="gray" d="M6,0A6,6,0,1,1,-6,0A6,6,0,1,1,6,0"></path><path fill="none" stroke="gray"></path></g><path fill="transparent" stroke="none" d="M-5,-11h64a5,5,0,0,1,5,5v12a5,5,0,0,1,-5,5h-64a5,5,0,0,1,-5,-5v-12a5,5,0,0,1,5,-5z"></path><g transform="translate( 0 -1.7999999999999998 )" fill="white"><text text-rendering="inherit" dominant-baseline="text-before-edge" dy="0" font-size="12" y="-6">nicescroll</text></g></g><g transform="matrix( 1 0 0 1 546 -320 )"><g transform="translate( -16 0 )" style="cursor: pointer;" display="none"><path fill="white" stroke="gray" d="M6,0A6,6,0,1,1,-6,0A6,6,0,1,1,6,0"></path><path fill="none" stroke="gray"></path></g><path fill="#e75d66" stroke="none" d="M-5,-11h72a5,5,0,0,1,5,5v12a5,5,0,0,1,-5,5h-72a5,5,0,0,1,-5,-5v-12a5,5,0,0,1,5,-5z"></path><g transform="translate( 0 -1.7999999999999998 )" fill="white"><text text-rendering="inherit" dominant-baseline="text-before-edge" dy="0" font-size="12" y="-6">pagination</text></g></g><g transform="matrix( 1 0 0 1 546 -288 )"><g transform="translate( -16 0 )" style="cursor: pointer;" display="none"><path fill="white" stroke="gray" d="M6,0A6,6,0,1,1,-6,0A6,6,0,1,1,6,0"></path><path fill="none" stroke="gray"></path></g><path fill="#e75d66" stroke="none" d="M-5,-11h61a5,5,0,0,1,5,5v12a5,5,0,0,1,-5,5h-61a5,5,0,0,1,-5,-5v-12a5,5,0,0,1,5,-5z"></path><g transform="translate( 0 -1.7999999999999998 )" fill="white"><text text-rendering="inherit" dominant-baseline="text-before-edge" dy="0" font-size="12" y="-6">selection</text></g></g><g transform="matrix( 1 0 0 1 546 -256 )"><g transform="translate( -16 0 )" style="cursor: pointer;" display="none"><path fill="white" stroke="gray" d="M6,0A6,6,0,1,1,-6,0A6,6,0,1,1,6,0"></path><path fill="none" stroke="gray"></path></g><path fill="#e75d66" stroke="none" d="M-5,-11h46a5,5,0,0,1,5,5v12a5,5,0,0,1,-5,5h-46a5,5,0,0,1,-5,-5v-12a5,5,0,0,1,5,-5z"></path><g transform="translate( 0 -1.7999999999999998 )" fill="white"><text text-rendering="inherit" dominant-baseline="text-before-edge" dy="0" font-size="12" y="-6">mirror</text></g></g><g transform="matrix( 1 0 0 1 546 -224 )"><g transform="translate( -16 0 )" style="cursor: pointer;" display="none"><path fill="white" stroke="gray" d="M6,0A6,6,0,1,1,-6,0A6,6,0,1,1,6,0"></path><path fill="none" stroke="gray"></path></g><path fill="#e75d66" stroke="none" d="M-5,-11h36a5,5,0,0,1,5,5v12a5,5,0,0,1,-5,5h-36a5,5,0,0,1,-5,-5v-12a5,5,0,0,1,5,-5z"></path><g transform="translate( 0 -1.7999999999999998 )" fill="white"><text text-rendering="inherit" dominant-baseline="text-before-edge" dy="0" font-size="12" y="-6">stick</text></g></g><g transform="matrix( 1 0 0 1 546 -192 )"><g transform="translate( -16 0 )" style="cursor: pointer;" display="none"><path fill="white" stroke="gray" d="M6,0A6,6,0,1,1,-6,0A6,6,0,1,1,6,0"></path><path fill="none" stroke="gray"></path></g><path fill="transparent" stroke="none" d="M-5,-11h48a5,5,0,0,1,5,5v12a5,5,0,0,1,-5,5h-48a5,5,0,0,1,-5,-5v-12a5,5,0,0,1,5,-5z"></path><g transform="translate( 0 -1.7999999999999998 )" fill="white"><text text-rendering="inherit" dominant-baseline="text-before-edge" dy="0" font-size="12" y="-6">md5.js</text></g></g><g transform="matrix( 1 0 0 1 452 -96 )"><g transform="translate( -16 0 )" style="cursor: pointer;"><path fill="white" stroke="gray" d="M6,0A6,6,0,1,1,-6,0A6,6,0,1,1,6,0"></path><path fill="none" stroke="gray" d="M-4.5,0L4.5,0"></path></g><path fill="transparent" stroke="none" d="M-5,-11h72a5,5,0,0,1,5,5v12a5,5,0,0,1,-5,5h-72a5,5,0,0,1,-5,-5v-12a5,5,0,0,1,5,-5z"></path><g transform="translate( 0 -1.7999999999999998 )" fill="white"><text text-rendering="inherit" dominant-baseline="text-before-edge" dy="0" font-size="12" y="-6">css（less）</text></g></g><g transform="matrix( 1 0 0 1 554 -160 )"><g transform="translate( -16 0 )" style="cursor: pointer;" display="none"><path fill="white" stroke="gray" d="M6,0A6,6,0,1,1,-6,0A6,6,0,1,1,6,0"></path><path fill="none" stroke="gray"></path></g><path fill="#e75d66" stroke="none" d="M-5,-11h35a5,5,0,0,1,5,5v12a5,5,0,0,1,-5,5h-35a5,5,0,0,1,-5,-5v-12a5,5,0,0,1,5,-5z"></path><g transform="translate( 0 -1.7999999999999998 )" fill="white"><text text-rendering="inherit" dominant-baseline="text-before-edge" dy="0" font-size="12" y="-6">core</text></g></g><g transform="matrix( 1 0 0 1 554 -128 )"><g transform="translate( -16 0 )" style="cursor: pointer;" display="none"><path fill="white" stroke="gray" d="M6,0A6,6,0,1,1,-6,0A6,6,0,1,1,6,0"></path><path fill="none" stroke="gray"></path></g><path fill="#e75d66" stroke="none" d="M-5,-11h33a5,5,0,0,1,5,5v12a5,5,0,0,1,-5,5h-33a5,5,0,0,1,-5,-5v-12a5,5,0,0,1,5,-5z"></path><g transform="translate( 0 -1.7999999999999998 )" fill="white"><text text-rendering="inherit" dominant-baseline="text-before-edge" dy="0" font-size="12" y="-6">grid</text></g></g><g transform="matrix( 1 0 0 1 554 -96 )"><g transform="translate( -16 0 )" style="cursor: pointer;" display="none"><path fill="white" stroke="gray" d="M6,0A6,6,0,1,1,-6,0A6,6,0,1,1,6,0"></path><path fill="none" stroke="gray"></path></g><path fill="#e75d66" stroke="none" d="M-5,-11h57a5,5,0,0,1,5,5v12a5,5,0,0,1,-5,5h-57a5,5,0,0,1,-5,-5v-12a5,5,0,0,1,5,-5z"></path><g transform="translate( 0 -1.7999999999999998 )" fill="white"><text text-rendering="inherit" dominant-baseline="text-before-edge" dy="0" font-size="12" y="-6">fontface</text></g></g><g transform="matrix( 1 0 0 1 554 -64 )"><g transform="translate( -16 0 )" style="cursor: pointer;" display="none"><path fill="white" stroke="gray" d="M6,0A6,6,0,1,1,-6,0A6,6,0,1,1,6,0"></path><path fill="none" stroke="gray"></path></g><path fill="transparent" stroke="none" d="M-5,-11h29a5,5,0,0,1,5,5v12a5,5,0,0,1,-5,5h-29a5,5,0,0,1,-5,-5v-12a5,5,0,0,1,5,-5z"></path><g transform="translate( 0 -1.7999999999999998 )" fill="white"><text text-rendering="inherit" dominant-baseline="text-before-edge" dy="0" font-size="12" y="-6">hljs</text></g></g><g transform="matrix( 1 0 0 1 554 -32 )"><g transform="translate( -16 0 )" style="cursor: pointer;" display="none"><path fill="white" stroke="gray" d="M6,0A6,6,0,1,1,-6,0A6,6,0,1,1,6,0"></path><path fill="none" stroke="gray"></path></g><path fill="transparent" stroke="none" d="M-5,-11h30a5,5,0,0,1,5,5v12a5,5,0,0,1,-5,5h-30a5,5,0,0,1,-5,-5v-12a5,5,0,0,1,5,-5z"></path><g transform="translate( 0 -1.7999999999999998 )" fill="white"><text text-rendering="inherit" dominant-baseline="text-before-edge" dy="0" font-size="12" y="-6">……</text></g></g><g transform="matrix( 1 0 0 1 376 16 )"><g transform="translate( -16 0 )" style="cursor: pointer;"><path fill="white" stroke="gray" d="M6,0A6,6,0,1,1,-6,0A6,6,0,1,1,6,0"></path>
<path fill="none" stroke="gray" d="M-4.5,0L4.5,0"></path></g><path fill="transparent" stroke="none" d="M-5,-11h46a5,5,0,0,1,5,5v12a5,5,0,0,1,-5,5h-46a5,5,0,0,1,-5,-5v-12a5,5,0,0,1,5,-5z"></path><g transform="translate( 0 -1.7999999999999998 )" fill="white"><text text-rendering="inherit" dominant-baseline="text-before-edge" dy="0" font-size="12" y="-6">屌丝版</text></g></g><g transform="matrix( 1 0 0 1 452 0 )"><g transform="translate( -16 0 )" style="cursor: pointer;" display="none"><path fill="white" stroke="gray" d="M6,0A6,6,0,1,1,-6,0A6,6,0,1,1,6,0"></path><path fill="none" stroke="gray"></path></g><path fill="transparent" stroke="none" d="M-5,-11h66a5,5,0,0,1,5,5v12a5,5,0,0,1,-5,5h-66a5,5,0,0,1,-5,-5v-12a5,5,0,0,1,5,-5z"></path><g transform="translate( 0 -1.7999999999999998 )" fill="white"><text text-rendering="inherit" dominant-baseline="text-before-edge" dy="0" font-size="12" y="-6">bootstrap</text></g></g><g transform="matrix( 1 0 0 1 452 32 )"><g transform="translate( -16 0 )" style="cursor: pointer;" display="none"><path fill="white" stroke="gray" d="M6,0A6,6,0,1,1,-6,0A6,6,0,1,1,6,0"></path><path fill="none" stroke="gray"></path></g><path fill="transparent" stroke="none" d="M-5,-11h48a5,5,0,0,1,5,5v12a5,5,0,0,1,-5,5h-48a5,5,0,0,1,-5,-5v-12a5,5,0,0,1,5,-5z"></path><g transform="translate( 0 -1.7999999999999998 )" fill="white"><text text-rendering="inherit" dominant-baseline="text-before-edge" dy="0" font-size="12" y="-6">jQuery</text></g></g><g transform="matrix( 1 0 0 1 376 128 )"><g transform="translate( -16 0 )" style="cursor: pointer;"><path fill="white" stroke="gray" d="M6,0A6,6,0,1,1,-6,0A6,6,0,1,1,6,0"></path><path fill="none" stroke="gray" d="M-4.5,0L4.5,0"></path></g><path fill="transparent" stroke="none" d="M-5,-11h58a5,5,0,0,1,5,5v12a5,5,0,0,1,-5,5h-58a5,5,0,0,1,-5,-5v-12a5,5,0,0,1,5,-5z"></path><g transform="translate( 0 -1.7999999999999998 )" fill="white"><text text-rendering="inherit" dominant-baseline="text-before-edge" dy="0" font-size="12" y="-6">后台管理</text></g></g><g transform="matrix( 1 0 0 1 464 64 )"><g transform="translate( -16 0 )" style="cursor: pointer;" display="none"><path fill="white" stroke="gray" d="M6,0A6,6,0,1,1,-6,0A6,6,0,1,1,6,0"></path><path fill="none" stroke="gray"></path></g><path fill="transparent" stroke="none" d="M-5,-11h42a5,5,0,0,1,5,5v12a5,5,0,0,1,-5,5h-42a5,5,0,0,1,-5,-5v-12a5,5,0,0,1,5,-5z"></path><g transform="translate( 0 -1.7999999999999998 )" fill="white"><text text-rendering="inherit" dominant-baseline="text-before-edge" dy="0" font-size="12" y="-6">React</text></g></g><g transform="matrix( 1 0 0 1 464 96 )"><g transform="translate( -16 0 )" style="cursor: pointer;" display="none"><path fill="white" stroke="gray" d="M6,0A6,6,0,1,1,-6,0A6,6,0,1,1,6,0"></path><path fill="none" stroke="gray"></path></g><path fill="transparent" stroke="none" d="M-5,-11h66a5,5,0,0,1,5,5v12a5,5,0,0,1,-5,5h-66a5,5,0,0,1,-5,-5v-12a5,5,0,0,1,5,-5z"></path><g transform="translate( 0 -1.7999999999999998 )" fill="white"><text text-rendering="inherit" dominant-baseline="text-before-edge" dy="0" font-size="12" y="-6">bootstrap</text></g></g><g transform="matrix( 1 0 0 1 464 128 )"><g transform="translate( -16 0 )" style="cursor: pointer;" display="none"><path fill="white" stroke="gray" d="M6,0A6,6,0,1,1,-6,0A6,6,0,1,1,6,0"></path><path fill="none" stroke="gray"></path></g><path fill="transparent" stroke="none" d="M-5,-11h72a5,5,0,0,1,5,5v12a5,5,0,0,1,-5,5h-72a5,5,0,0,1,-5,-5v-12a5,5,0,0,1,5,-5z"></path><g transform="translate( 0 -1.7999999999999998 )" fill="white"><text text-rendering="inherit" dominant-baseline="text-before-edge" dy="0" font-size="12" y="-6">showdown</text></g></g><g transform="matrix( 1 0 0 1 464 160 )"><g transform="translate( -16 0 )" style="cursor: pointer;" display="none"><path fill="white" stroke="gray" d="M6,0A6,6,0,1,1,-6,0A6,6,0,1,1,6,0"></path><path fill="none" stroke="gray"></path></g><path fill="transparent" stroke="none" d="M-5,-11h48a5,5,0,0,1,5,5v12a5,5,0,0,1,-5,5h-48a5,5,0,0,1,-5,-5v-12a5,5,0,0,1,5,-5z"></path><g transform="translate( 0 -1.7999999999999998 )" fill="white"><text text-rendering="inherit" dominant-baseline="text-before-edge" dy="0" font-size="12" y="-6">jQuery</text></g></g><g transform="matrix( 1 0 0 1 376 224 )"><g transform="translate( -16 0 )" style="cursor: pointer;" display="none"><path fill="white" stroke="gray" d="M6,0A6,6,0,1,1,-6,0A6,6,0,1,1,6,0"></path><path fill="none" stroke="gray"></path></g><path fill="transparent" stroke="none" d="M-5,-11h58a5,5,0,0,1,5,5v12a5,5,0,0,1,-5,5h-58a5,5,0,0,1,-5,-5v-12a5,5,0,0,1,5,-5z"></path><g transform="translate( 0 -1.7999999999999998 )" fill="white"><text text-rendering="inherit" dominant-baseline="text-before-edge" dy="0" font-size="12" y="-6">零散页面</text></g></g><g transform="matrix( 1 0 0 1 -59 -227 )"><path fill="rgba(0, 0, 0, .25)" stroke="none" d="M-1,-8h148a10,10,0,0,1,10,10v6a10,10,0,0,1,-10,10h-148a10,10,0,0,1,-10,-10v-6a10,10,0,0,1,10,-10z"></path><g transform="translate( 0 0 )" style="cursor: pointer;"><path fill="white" stroke="gray" d="M6,0A6,6,0,1,1,-6,0A6,6,0,1,1,6,0"></path><path fill="none" stroke="gray" d="M-4.5,0L4.5,0"></path></g><path fill="#a4c5c0" stroke="#a4c5c0" d="M-5,-13h148a10,10,0,0,1,10,10v6a10,10,0,0,1,-10,10h-148a10,10,0,0,1,-10,-10v-6a10,10,0,0,1,10,-10z"></path><g transform="translate( 0 -2.4 )" fill="#333"><text text-rendering="inherit" dominant-baseline="text-before-edge" dy="0" font-size="16" y="-8">代码构建（grunt）</text></g></g><g transform="matrix( 1 0 0 1 -163 -291 )"><g transform="translate( 75 0 )" style="cursor: pointer;" display="none"><path fill="white" stroke="gray" d="M6,0A6,6,0,1,1,-6,0A6,6,0,1,1,6,0"></path><path fill="none" stroke="gray"></path></g><path fill="transparent" stroke="none" d="M-5,-11h69a5,5,0,0,1,5,5v12a5,5,0,0,1,-5,5h-69a5,5,0,0,1,-5,-5v-12a5,5,0,0,1,5,-5z"></path><g transform="translate( 0 -1.7999999999999998 )" fill="white"><text text-rendering="inherit" dominant-baseline="text-before-edge" dy="0" font-size="12" y="-6">transports</text></g></g><g transform="matrix( 1 0 0 1 -148 -259 )"><g transform="translate( 60 0 )" style="cursor: pointer;" display="none"><path fill="white" stroke="gray" d="M6,0A6,6,0,1,1,-6,0A6,6,0,1,1,6,0"></path><path fill="none" stroke="gray"></path></g><path fill="transparent" stroke="none" d="M-5,-11h54a5,5,0,0,1,5,5v12a5,5,0,0,1,-5,5h-54a5,5,0,0,1,-5,-5v-12a5,5,0,0,1,5,-5z"></path><g transform="translate( 0 -1.7999999999999998 )" fill="white"><text text-rendering="inherit" dominant-baseline="text-before-edge" dy="0" font-size="12" y="-6">concats</text></g></g><g transform="matrix( 1 0 0 1 -132 -227 )"><g transform="translate( 44 0 )" style="cursor: pointer;" display="none"><path fill="white" stroke="gray" d="M6,0A6,6,0,1,1,-6,0A6,6,0,1,1,6,0"></path><path fill="none" stroke="gray"></path></g><path fill="transparent" stroke="none" d="M-5,-11h38a5,5,0,0,1,5,5v12a5,5,0,0,1,-5,5h-38a5,5,0,0,1,-5,-5v-12a5,5,0,0,1,5,-5z"></path><g transform="translate( 0 -1.7999999999999998 )" fill="white"><text text-rendering="inherit" dominant-baseline="text-before-edge" dy="0" font-size="12" y="-6">copy</text></g></g><g transform="matrix( 1 0 0 1 -136 -195 )"><g transform="translate( 48 0 )" style="cursor: pointer;" display="none"><path fill="white" stroke="gray" d="M6,0A6,6,0,1,1,-6,0A6,6,0,1,1,6,0"></path><path fill="none" stroke="gray"></path></g><path fill="transparent" stroke="none" d="M-5,-11h42a5,5,0,0,1,5,5v12a5,5,0,0,1,-5,5h-42a5,5,0,0,1,-5,-5v-12a5,5,0,0,1,5,-5z"></path><g transform="translate( 0 -1.7999999999999998 )" fill="white"><text text-rendering="inherit" dominant-baseline="text-before-edge" dy="0" font-size="12" y="-6">uglify</text></g></g><g transform="matrix( 1 0 0 1 -143 -163 )"><g transform="translate( 55 0 )" style="cursor: pointer;" display="none"><path fill="white" stroke="gray" d="M6,0A6,6,0,1,1,-6,0A6,6,0,1,1,6,0"></path><path fill="none" stroke="gray"></path></g><path fill="transparent" stroke="none" d="M-5,-11h49a5,5,0,0,1,5,5v12a5,5,0,0,1,-5,5h-49a5,5,0,0,1,-5,-5v-12a5,5,0,0,1,5,-5z"></path><g transform="translate( 0 -1.7999999999999998 )" fill="white"><text text-rendering="inherit" dominant-baseline="text-before-edge" dy="0" font-size="12" y="-6">cssmin</text></g></g><g transform="matrix( 1 0 0 1 -194 0 )"><path fill="rgba(0, 0, 0, .25)" stroke="none" d="M-1,-8h129a10,10,0,0,1,10,10v6a10,10,0,0,1,-10,10h-129a10,10,0,0,1,-10,-10v-6a10,10,0,0,1,10,-10z"></path><g transform="translate( 140 0 )" style="cursor: pointer;"><path fill="white" stroke="gray" d="M6,0A6,6,0,1,1,-6,0A6,6,0,1,1,6,0"></path><path fill="none" stroke="gray" d="M-4.5,0L4.5,0"></path></g><path fill="#a4c5c0" stroke="#a4c5c0" d="M-5,-13h129a10,10,0,0,1,10,10v6a10,10,0,0,1,-10,10h-129a10,10,0,0,1,-10,-10v-6a10,10,0,0,1,10,-10z"></path><g transform="translate( 0 -2.4 )" fill="#333"><text text-rendering="inherit" dominant-baseline="text-before-edge" dy="0" font-size="16" y="-8">后端（nodeJS）</text></g></g><g transform="matrix( 1 0 0 1 -384 -124 )"><g transform="translate( 161 0 )" style="cursor: pointer;"><path fill="white" stroke="gray" d="M6,0A6,6,0,1,1,-6,0A6,6,0,1,1,6,0"></path><path fill="none" stroke="gray" d="M-4.5,0L4.5,0"></path></g><path fill="#e75d66" stroke="none" d="M-5,-11h155a5,5,0,0,1,5,5v12a5,5,0,0,1,-5,5h-155a5,5,0,0,1,-5,-5v-12a5,5,0,0,1,5,-5z"></path><g transform="translate( 0 -1.7999999999999998 )" fill="white"><text text-rendering="inherit" dominant-baseline="text-before-edge" dy="0" font-size="12" y="-6">core（核心代码，未命名）</text></g></g><g transform="matrix( 1 0 0 1 -514 -260 )"><g transform="translate( 106 0 )" style="cursor: pointer;" display="none"><path fill="white" stroke="gray" d="M6,0A6,6,0,1,1,-6,0A6,6,0,1,1,6,0"></path><path fill="none" stroke="gray"></path></g><path fill="#e75d66" stroke="none" d="M-5,-11h100a5,5,0,0,1,5,5v12a5,5,0,0,1,-5,5h-100a5,5,0,0,1,-5,-5v-12a5,5,0,0,1,5,-5z"></path>
<g transform="translate( 0 -1.7999999999999998 )" fill="white"><text text-rendering="inherit" dominant-baseline="text-before-edge" dy="0" font-size="12" y="-6">index（APP类）</text></g></g><g transform="matrix( 1 0 0 1 -457 -228 )"><g transform="translate( 49 0 )" style="cursor: pointer;" display="none"><path fill="white" stroke="gray" d="M6,0A6,6,0,1,1,-6,0A6,6,0,1,1,6,0"></path><path fill="none" stroke="gray"></path></g><path fill="#e75d66" stroke="none" d="M-5,-11h43a5,5,0,0,1,5,5v12a5,5,0,0,1,-5,5h-43a5,5,0,0,1,-5,-5v-12a5,5,0,0,1,5,-5z"></path><g transform="translate( 0 -1.7999999999999998 )" fill="white"><text text-rendering="inherit" dominant-baseline="text-before-edge" dy="0" font-size="12" y="-6">cache</text></g></g><g transform="matrix( 1 0 0 1 -455 -196 )"><g transform="translate( 47 0 )" style="cursor: pointer;" display="none"><path fill="white" stroke="gray" d="M6,0A6,6,0,1,1,-6,0A6,6,0,1,1,6,0"></path><path fill="none" stroke="gray"></path></g><path fill="#e75d66" stroke="none" d="M-5,-11h41a5,5,0,0,1,5,5v12a5,5,0,0,1,-5,5h-41a5,5,0,0,1,-5,-5v-12a5,5,0,0,1,5,-5z"></path><g transform="translate( 0 -1.7999999999999998 )" fill="white"><text text-rendering="inherit" dominant-baseline="text-before-edge" dy="0" font-size="12" y="-6">views</text></g></g><g transform="matrix( 1 0 0 1 -490 -164 )"><g transform="translate( 82 0 )" style="cursor: pointer;" display="none"><path fill="white" stroke="gray" d="M6,0A6,6,0,1,1,-6,0A6,6,0,1,1,6,0"></path><path fill="none" stroke="gray"></path></g><path fill="#e75d66" stroke="none" d="M-5,-11h76a5,5,0,0,1,5,5v12a5,5,0,0,1,-5,5h-76a5,5,0,0,1,-5,-5v-12a5,5,0,0,1,5,-5z"></path><g transform="translate( 0 -1.7999999999999998 )" fill="white"><text text-rendering="inherit" dominant-baseline="text-before-edge" dy="0" font-size="12" y="-6">component</text></g></g><g transform="matrix( 1 0 0 1 -470 -132 )"><g transform="translate( 62 0 )" style="cursor: pointer;" display="none"><path fill="white" stroke="gray" d="M6,0A6,6,0,1,1,-6,0A6,6,0,1,1,6,0"></path><path fill="none" stroke="gray"></path></g><path fill="#e75d66" stroke="none" d="M-5,-11h56a5,5,0,0,1,5,5v12a5,5,0,0,1,-5,5h-56a5,5,0,0,1,-5,-5v-12a5,5,0,0,1,5,-5z"></path><g transform="translate( 0 -1.7999999999999998 )" fill="white"><text text-rendering="inherit" dominant-baseline="text-before-edge" dy="0" font-size="12" y="-6">connect</text></g></g><g transform="matrix( 1 0 0 1 -441 -100 )"><g transform="translate( 33 0 )" style="cursor: pointer;" display="none"><path fill="white" stroke="gray" d="M6,0A6,6,0,1,1,-6,0A6,6,0,1,1,6,0"></path><path fill="none" stroke="gray"></path></g><path fill="#e75d66" stroke="none" d="M-5,-11h27a5,5,0,0,1,5,5v12a5,5,0,0,1,-5,5h-27a5,5,0,0,1,-5,-5v-12a5,5,0,0,1,5,-5z"></path><g transform="translate( 0 -1.7999999999999998 )" fill="white"><text text-rendering="inherit" dominant-baseline="text-before-edge" dy="0" font-size="12" y="-6">DB</text></g></g><g transform="matrix( 1 0 0 1 -466 -68 )"><g transform="translate( 58 0 )" style="cursor: pointer;" display="none"><path fill="white" stroke="gray" d="M6,0A6,6,0,1,1,-6,0A6,6,0,1,1,6,0"></path><path fill="none" stroke="gray"></path></g><path fill="#e75d66" stroke="none" d="M-5,-11h52a5,5,0,0,1,5,5v12a5,5,0,0,1,-5,5h-52a5,5,0,0,1,-5,-5v-12a5,5,0,0,1,5,-5z"></path><g transform="translate( 0 -1.7999999999999998 )" fill="white"><text text-rendering="inherit" dominant-baseline="text-before-edge" dy="0" font-size="12" y="-6">session</text></g></g><g transform="matrix( 1 0 0 1 -474 -36 )"><g transform="translate( 66 0 )" style="cursor: pointer;" display="none"><path fill="white" stroke="gray" d="M6,0A6,6,0,1,1,-6,0A6,6,0,1,1,6,0"></path><path fill="none" stroke="gray"></path></g><path fill="#e75d66" stroke="none" d="M-5,-11h60a5,5,0,0,1,5,5v12a5,5,0,0,1,-5,5h-60a5,5,0,0,1,-5,-5v-12a5,5,0,0,1,5,-5z"></path><g transform="translate( 0 -1.7999999999999998 )" fill="white"><text text-rendering="inherit" dominant-baseline="text-before-edge" dy="0" font-size="12" y="-6">staticFile</text></g></g><g transform="matrix( 1 0 0 1 -448 12 )"><g transform="translate( 40 0 )" style="cursor: pointer;"><path fill="white" stroke="gray" d="M6,0A6,6,0,1,1,-6,0A6,6,0,1,1,6,0"></path><path fill="none" stroke="gray" d="M-4.5,0L4.5,0"></path></g><path fill="#e75d66" stroke="none" d="M-5,-11h34a5,5,0,0,1,5,5v12a5,5,0,0,1,-5,5h-34a5,5,0,0,1,-5,-5v-12a5,5,0,0,1,5,-5z"></path><g transform="translate( 0 -1.7999999999999998 )" fill="white"><text text-rendering="inherit" dominant-baseline="text-before-edge" dy="0" font-size="12" y="-6">utils</text></g></g><g transform="matrix( 1 0 0 1 -519 -4 )"><g transform="translate( 47 0 )" style="cursor: pointer;" display="none"><path fill="white" stroke="gray" d="M6,0A6,6,0,1,1,-6,0A6,6,0,1,1,6,0"></path><path fill="none" stroke="gray"></path></g><path fill="#e75d66" stroke="none" d="M-5,-11h41a5,5,0,0,1,5,5v12a5,5,0,0,1,-5,5h-41a5,5,0,0,1,-5,-5v-12a5,5,0,0,1,5,-5z"></path><g transform="translate( 0 -1.7999999999999998 )" fill="white"><text text-rendering="inherit" dominant-baseline="text-before-edge" dy="0" font-size="12" y="-6">parse</text></g></g><g transform="matrix( 1 0 0 1 -550 28 )"><g transform="translate( 78 0 )" style="cursor: pointer;" display="none"><path fill="white" stroke="gray" d="M6,0A6,6,0,1,1,-6,0A6,6,0,1,1,6,0"></path><path fill="none" stroke="gray"></path></g><path fill="#e75d66" stroke="none" d="M-5,-11h72a5,5,0,0,1,5,5v12a5,5,0,0,1,-5,5h-72a5,5,0,0,1,-5,-5v-12a5,5,0,0,1,5,-5z"></path><g transform="translate( 0 -1.7999999999999998 )" fill="white"><text text-rendering="inherit" dominant-baseline="text-before-edge" dy="0" font-size="12" y="-6">pagination</text></g></g><g transform="matrix( 1 0 0 1 -270 60 )"><g transform="translate( 47 0 )" style="cursor: pointer;" display="none"><path fill="white" stroke="gray" d="M6,0A6,6,0,1,1,-6,0A6,6,0,1,1,6,0"></path><path fill="none" stroke="gray"></path></g><path fill="transparent" stroke="none" d="M-5,-11h41a5,5,0,0,1,5,5v12a5,5,0,0,1,-5,5h-41a5,5,0,0,1,-5,-5v-12a5,5,0,0,1,5,-5z"></path><g transform="translate( 0 -1.7999999999999998 )" fill="white"><text text-rendering="inherit" dominant-baseline="text-before-edge" dy="0" font-size="12" y="-6">juicer</text></g></g><g transform="matrix( 1 0 0 1 -301 92 )"><g transform="translate( 78 0 )" style="cursor: pointer;" display="none"><path fill="white" stroke="gray" d="M6,0A6,6,0,1,1,-6,0A6,6,0,1,1,6,0"></path><path fill="none" stroke="gray"></path></g><path fill="transparent" stroke="none" d="M-5,-11h72a5,5,0,0,1,5,5v12a5,5,0,0,1,-5,5h-72a5,5,0,0,1,-5,-5v-12a5,5,0,0,1,5,-5z"></path><g transform="translate( 0 -1.7999999999999998 )" fill="white"><text text-rendering="inherit" dominant-baseline="text-before-edge" dy="0" font-size="12" y="-6">showdown</text></g></g><g transform="matrix( 1 0 0 1 -369 124 )"><g transform="translate( 146 0 )" style="cursor: pointer;" display="none"><path fill="white" stroke="gray" d="M6,0A6,6,0,1,1,-6,0A6,6,0,1,1,6,0"></path><path fill="none" stroke="gray"></path></g><path fill="transparent" stroke="none" d="M-5,-11h140a5,5,0,0,1,5,5v12a5,5,0,0,1,-5,5h-140a5,5,0,0,1,-5,-5v-12a5,5,0,0,1,5,-5z"></path><g transform="translate( 0 -1.7999999999999998 )" fill="white"><text text-rendering="inherit" dominant-baseline="text-before-edge" dy="0" font-size="12" y="-6">mongoDB（连接模块）</text></g></g><g transform="matrix( 1 0 0 1 464 192 )"><g transform="translate( -16 0 )" style="cursor: pointer;" display="none"><path fill="white" stroke="gray" d="M6,0A6,6,0,1,1,-6,0A6,6,0,1,1,6,0"></path><path fill="none" stroke="gray"></path></g><path fill="#e75d66" stroke="none" d="M-5,-11h49a5,5,0,0,1,5,5v12a5,5,0,0,1,-5,5h-49a5,5,0,0,1,-5,-5v-12a5,5,0,0,1,5,-5z"></path><g transform="translate( 0 -1.7999999999999998 )" fill="white" style="cursor: default;"><text text-rendering="inherit" dominant-baseline="text-before-edge" dy="0" font-size="12" y="-6">Mditor</text></g></g></g></g>
<g transform="translate(740 405)"><text text-rendering="inherit" dominant-baseline="text-before-edge" font-size="14">红底部分本人开发</text></g>
</svg>