<?xml version="1.0" standalone="no"?>
<!DOCTYPE svg PUBLIC "-//W3C//DTD SVG 1.1//EN" "http://www.w3.org/Graphics/SVG/1.1/DTD/svg11.dtd" >
<svg xmlns="http://www.w3.org/2000/svg" xmlns:xlink="http://www.w3.org/1999/xlink" version="1.1">
<metadata></metadata>
<defs>
<font id="layiconregular" horiz-adv-x="1014" >
<font-face units-per-em="2048" ascent="1638" descent="-410" />
<missing-glyph horiz-adv-x="508" />
<glyph unicode="&#xd;" horiz-adv-x="508" />
<glyph horiz-adv-x="2048" />
<glyph horiz-adv-x="2048" />
<glyph horiz-adv-x="0" />
<glyph unicode=" "  horiz-adv-x="508" />
<glyph unicode="&#x09;" horiz-adv-x="508" />
<glyph unicode="&#xa0;" horiz-adv-x="508" />
<glyph unicode="!" horiz-adv-x="672" d="M207 136q0 15 16 31l82 84q15 14 29 14q13 0 31 -16l80 -86q12 -16 12 -29q0 -15 -14 -31l-80 -88q-20 -20 -29 -20q-16 0 -29 14l-88 101q-10 13 -10 26zM264 1364q0 46 21 69t62 23q42 0 62.5 -23t20.5 -69l-80 -1036h-37z" />
<glyph unicode="&#x22;" horiz-adv-x="672" d="M101 1500q0 37 20.5 57t59.5 20t60.5 -19.5t21.5 -56.5q0 -8 -4 -34l-62 -359h-30l-62 359q-4 23 -4 33zM413 1500q0 37 20.5 57t59.5 20t60.5 -19.5t21.5 -56.5q0 -8 -4 -34l-62 -359h-30l-62 359q-4 23 -4 33z" />
<glyph unicode="#" horiz-adv-x="1336" d="M117 472l30 98h271l86 290h-295l29 97h295l140 477h93l-141 -477h242l142 477h92l-141 -477h259l-29 -97h-259l-83 -290h279l-30 -98h-280l-140 -472h-92l139 472h-240l-142 -472h-92l140 472h-273zM511 569h242l86 290h-243z" />
<glyph unicode="$" d="M113 1079q0 166 125 271q105 88 266 102v100h73v-102q68 -8 141 -35q10 -6 19 -6q25 0 41 45h50l103 -282h-49q-60 134 -168 179q-74 30 -137 39v-540q241 -93 322.5 -183t81.5 -264q0 -197 -119.5 -300t-284.5 -120v-239h-73v237q-188 3 -266 38q-10 6 -19 6 q-25 0 -41 -45h-50v331h49q50 -183 152.5 -226t174.5 -43v635q-214 67 -299 153q-92 91 -92 249zM219 1139q0 -98 55 -153q52 -54 230 -113v520q-119 -5 -199 -72q-86 -73 -86 -182zM577 45q125 17 211.5 96t86.5 219q0 116 -69 183q-62 59 -229 112v-610z" />
<glyph unicode="%" horiz-adv-x="1610" d="M62 1080q0 100 52 190.5t144.5 139.5t190.5 49t190.5 -49t144.5 -139.5t52 -190.5q0 -99 -50.5 -188.5t-143 -140t-193.5 -50.5q-100 0 -192.5 50.5t-143.5 140t-51 188.5zM202 1128q0 -31 4 -62q13 -92 55.5 -173.5t106.5 -124.5q57 -40 114 -40q7 0 13 1q63 3 115 53 t73 136q13 54 13 111q0 32 -4 65q-12 93 -56 175.5t-107 124.5q-58 38 -115 38h-11q-61 -3 -113 -52t-73 -135q-15 -58 -15 -117zM297 -29l940 1461h84l-938 -1461h-86zM774 359q0 99 52 189.5t144.5 140t190.5 49.5q97 0 190 -49.5t145 -140t52 -189.5q0 -100 -50.5 -189.5 t-143 -139.5t-193.5 -50t-193 50t-143 139.5t-51 189.5zM914 406q0 -31 4 -62q13 -92 55.5 -173.5t106.5 -124.5q59 -39 116 -39h11q63 3 115 53t73 136q13 54 13 111q0 32 -4 65q-12 93 -56 175.5t-107 124.5q-58 38 -115 38h-11q-61 -3 -113 -52t-73 -135 q-15 -58 -15 -117z" />
<glyph unicode="&#x26;" horiz-adv-x="1683" d="M152 520q0 161 76 266.5t225 151.5q-42 61 -62.5 116t-20.5 111q0 105 77 197t182 92q68 0 142 -39q9 -6 18 -6q23 0 38 45h46l96 -281h-46q-55 133 -155 178q-85 37 -141 37q-65 0 -106 -45.5t-41 -117.5q0 -131 102 -267l531 -670q98 146 121 244q17 78 17 130 q0 97 -62 97h-90v50h443v-50h-90q-95 0 -145 -227q-31 -132 -155 -292q109 -136 248 -136h16q143 17 192 128l49 -1l-103 -231h-160q-56 0 -139 25t-167 132q-67 -74 -175 -123.5t-241 -49.5q-229 0 -374.5 150.5t-145.5 385.5zM256 589q0 -91 35.5 -181.5t101.5 -164.5 q72 -83 165 -127t194 -44q88 0 169 33.5t130 90.5l-554 683q-118 0 -179.5 -86t-61.5 -204z" />
<glyph unicode="'" horiz-adv-x="346" d="M101 1500q0 37 20.5 57t59.5 20t60.5 -19.5t21.5 -56.5q0 -8 -4 -34l-62 -359h-30l-62 359q-4 23 -4 33z" />
<glyph unicode="(" horiz-adv-x="758" d="M252 601q2 277 99.5 530t268.5 442h80q-172 -242 -230 -438q-57 -193 -57 -523v-22q0 -330 57 -522q58 -196 230 -438h-80q-171 189 -268.5 441.5t-99.5 529.5z" />
<glyph unicode=")" horiz-adv-x="758" d="M58 -370q172 242 230 438q57 192 57 522v22q0 330 -57 523q-58 196 -230 438h80q171 -189 268.5 -442t99.5 -530q-2 -277 -99.5 -529.5t-268.5 -441.5h-80z" />
<glyph unicode="*" horiz-adv-x="1024" d="M218 1333q0 17 6 36q11 35 36 53q17 12 34 12q9 0 18 -3q20 -6 74 -62q47 -49 112 -75q-4 71 -37 130q-37 66 -37 84q0 32 23.5 51.5t62.5 19.5q37 0 61.5 -18t24.5 -47q0 -21 -36 -89q-33 -61 -37 -130q66 25 113 75q51 55 69 61q11 3 21 3q18 0 35 -10q26 -17 38 -53 q6 -19 6 -36q0 -15 -4 -28q-10 -30 -38 -38q-6 -2 -19 -2q-25 0 -76 9q-28 5 -55 5q-41 0 -81 -11q44 -55 105 -83q68 -32 79 -47q13 -18 13 -38q0 -9 -2 -17q-8 -30 -39 -53q-29 -22 -59 -22q-1 0 -1 1q-31 0 -48 23q-12 17 -22 94q-10 67 -47 125q-38 -58 -46 -124 q-9 -75 -20 -90q-19 -25 -49 -27h-5q-28 0 -57 21q-30 21 -39 51q-4 10 -4 20q0 17 11 32q13 17 83 51q61 29 105 82q-41 11 -80 11q-27 0 -53 -5q-54 -11 -78 -11q-9 0 -14 2q-30 9 -41 38q-6 13 -6 29z" />
<glyph unicode="+" d="M87 647v140h350v369l1 1h139v-370h349l1 -1v-139h-350v-370h-140v370h-350z" />
<glyph unicode="," horiz-adv-x="557" d="M119 91v42l119 125q44 0 88.5 -65.5t44.5 -151.5q0 -109 -71 -226.5t-139 -117.5v43q73 43 87 190q0 119 -129 161z" />
<glyph unicode="-" horiz-adv-x="670" d="M116 437v83q0 29 41 29h356q41 0 41 -29v-83q0 -28 -40 -28h-358q-40 0 -40 28z" />
<glyph unicode="." horiz-adv-x="557" d="M129 136q0 15 16 31l82 84q15 14 29 14q13 0 31 -16l80 -86q12 -16 12 -29q0 -15 -14 -31l-80 -88q-20 -20 -29 -20q-16 0 -29 14l-88 101q-10 13 -10 26z" />
<glyph unicode="/" horiz-adv-x="569" d="M13 -50l541 1484h80l-541 -1484h-80z" />
<glyph unicode="0" d="M77 717q0 194 57.5 372t160.5 274t212 96q108 0 211 -96t161 -274t58 -372t-56.5 -370t-159 -274t-214.5 -98t-214.5 98t-159 274t-56.5 370zM232 814q0 -62 5 -125q14 -180 61.5 -340t118.5 -244q65 -78 129 -78q6 0 12 1q70 7 127.5 104.5t81.5 265.5q15 107 15 220 q0 62 -5 126q-14 181 -62.5 343t-119.5 244q-65 76 -128 76q-6 0 -11 -1q-68 -7 -126 -102.5t-82 -264.5q-16 -110 -16 -225z" />
<glyph unicode="1" d="M218 1208v50q292 63 327 176h50v-1149q0 -235 103 -235h96v-50h-560v50h96q103 0 103 235v794q0 129 -117 129h-98z" />
<glyph unicode="2" d="M114 0l1 50q607 675 607 986q0 148 -86 245t-186 97q-170 0 -275 -131h-22v49q39 50 115 104t185 54q183 0 306.5 -121t123.5 -297q0 -262 -627 -916h422q130 0 209 112h49l-103 -232h-719z" />
<glyph unicode="3" d="M83 105v100h49q0 -83 86 -133t217 -50q151 0 218 116.5t67 280.5q0 104 -44.5 205.5t-176.5 148.5v19q81 45 144 120.5t63 209.5q0 110 -55 189.5t-166 92.5q-68 0 -123.5 -45t-55.5 -111h-42v159q0 20 73.5 33.5t155.5 13.5q155 0 257 -84t102 -249q0 -87 -61 -166 t-193 -139q93 -14 195 -134.5t102 -278.5q0 -163 -144 -294t-325 -131q-152 0 -247.5 39t-95.5 88z" />
<glyph unicode="4" d="M43 338v35l660 1061h34v-996h19q133 0 193 132h49l-103 -232h-158v-171q0 -117 72 -117h76v-50h-442v50h76q81 0 81 120v168h-557zM176 438h424v686z" />
<glyph unicode="5" d="M77 99v106h46q0 -88 86 -135.5t217 -47.5q151 0 217.5 116.5t66.5 347.5q0 159 -110 265t-285 106q-40 0 -86 -5l144 582h396q103 0 112 52h50l-63 -172h-429l-104 -415q226 0 388 -124.5t162 -300.5q0 -234 -143.5 -365t-324.5 -131q-152 0 -248 39q-92 37 -92 82z" />
<glyph unicode="6" d="M77 510q0 320 209 634.5t515 314.5v-48q-177 -12 -326.5 -179.5t-233.5 -467.5q96 93 266 93q108 0 211 -57t161 -162.5t58 -221.5t-56.5 -220.5t-144 -162.5t-169.5 -58q-243 0 -366.5 162.5t-123.5 372.5zM232 469q0 -153 95.5 -305.5t230.5 -152.5q101 0 163 98.5 t62 247.5q0 203 -100 333.5t-216 130.5q-91 0 -163 -101.5t-72 -250.5z" />
<glyph unicode="7" d="M96 1202l103 232h719l-1 -50q-370 -866 -370 -1205q0 -129 67 -129h117v-50h-411v50h67q72 0 72 131q19 296 278 1133h-399q-133 0 -192 -112h-50z" />
<glyph unicode="8" d="M77 403q0 112 57.5 214.5t160.5 158.5q41 21 82 35q-24 9 -48 21q-86 44 -133 123t-47 166t48 167t133.5 123t176.5 43q90 0 176 -43t134 -123t48 -167t-47 -166t-132 -123q-25 -13 -50 -21q42 -14 82 -35q103 -56 161 -158.5t58 -214.5t-56.5 -213.5t-159 -158 t-214.5 -56.5t-214.5 56.5t-159 158t-56.5 213.5zM235 422q0 -18 2 -35q14 -104 61.5 -196.5t118.5 -140.5q64 -44 128 -44h13q70 4 127.5 60t81.5 153q15 62 15 127q0 36 -5 73q-11 112 -73.5 212.5t-231.5 153.5q-114 -21 -181 -157q-56 -115 -56 -206zM278 1165 q0 -28 4 -57q12 -80 51.5 -152t218.5 -126q121 25 156 124q27 75 27 140q0 20 -3 39q-12 81 -52.5 154t-99.5 110q-55 33 -106 33h-9q-57 -3 -105.5 -46t-68.5 -119q-13 -49 -13 -100z" />
<glyph unicode="9" d="M77 1018q0 116 56.5 220.5t144 162.5t169.5 58q243 0 366.5 -162.5t123.5 -372.5q0 -320 -209 -634.5t-515 -314.5v48q177 12 326.5 179.5t233.5 467.5q-95 -93 -266 -93q-108 0 -211 57t-161 162.5t-58 221.5zM232 1077q0 -203 100 -333.5t215 -130.5q91 0 163.5 101.5 t72.5 250.5q0 153 -96 305.5t-231 152.5q-101 0 -162.5 -98.5t-61.5 -247.5z" />
<glyph unicode=":" horiz-adv-x="557" d="M129 136q0 15 16 31l82 84q15 14 29 14q13 0 31 -16l80 -86q12 -16 12 -29q0 -15 -14 -31l-80 -88q-20 -20 -29 -20q-16 0 -29 14l-88 101q-10 13 -10 26zM129 829q0 15 16 31l82 84q15 14 29 14q13 0 31 -16l80 -86q12 -16 12 -29q0 -15 -14 -31l-80 -88 q-20 -20 -29 -20q-16 0 -29 14l-88 101q-10 13 -10 26z" />
<glyph unicode=";" horiz-adv-x="557" d="M119 91v42l119 125q44 0 88.5 -65.5t44.5 -151.5q0 -109 -71 -226.5t-139 -117.5v43q73 43 87 190q0 119 -129 161zM129 828q0 15 16 31l82 84q15 14 29 14q13 0 31 -16l80 -86q12 -16 12 -29q0 -15 -14 -31l-80 -88q-20 -20 -29 -20q-16 0 -29 14l-88 101q-10 13 -10 26 z" />
<glyph unicode="&#x3c;" d="M87 674v83l840 484v-167l-625 -359l625 -355v-167z" />
<glyph unicode="=" d="M87 491v140h840v-140h-840zM87 803v140h840v-140h-840z" />
<glyph unicode="&#x3e;" d="M87 193v167l625 355l-625 359v167l840 -484v-83z" />
<glyph unicode="?" horiz-adv-x="748" d="M132 1266v64q128 104 242 104q132 0 212 -68t80 -182q0 -69 -32.5 -140t-124.5 -186q-90 -113 -141.5 -187.5t-51.5 -142.5q0 -63 35 -189h-47q-50 138 -50 211q0 109 116.5 312t116.5 309q0 82 -47 129t-130 47q-84 0 -178 -81zM207 136q0 15 16 31l82 84q15 14 29 14 q13 0 31 -16l80 -86q12 -16 12 -29q0 -15 -14 -31l-80 -88q-20 -20 -29 -20q-16 0 -29 14l-88 101q-10 13 -10 26z" />
<glyph unicode="@" horiz-adv-x="2019" d="M100 508q0 242 124 464.5t345.5 342t456.5 119.5q362 0 609 -230t247 -566q0 -270 -176 -439q-175 -168 -346 -170q-63 1 -100.5 18t-61.5 54q-29 -37 -82 -64.5t-133 -27.5q-144 0 -256.5 100.5t-112.5 233.5q1 87 53 166.5t132.5 115t173.5 49.5q67 16 110 42.5 t43 74.5q-2 69 -41 125t-129 56q-72 0 -121.5 -59t-50.5 -125h-45v159q0 20 72 40q73 20 178 20q109 -2 193.5 -64.5t84.5 -157.5v-589q0 -117 94 -117q185 35 267 191.5t82 382.5q-20 335 -232 540q-197 188 -480 188q-205 0 -392.5 -137.5t-269.5 -355.5 q-67 -178 -67 -361q0 -313 129.5 -511.5t305 -290.5t318.5 -92q274 0 575 208v-75q-263 -184 -571 -184q-240 0 -461 122.5t-343 342t-122 461.5zM753 343q0 -107 64 -194t183 -87q97 5 126 167v476q-54 -63 -154 -83q-83 -10 -151 -80t-68 -199z" />
<glyph unicode="A" horiz-adv-x="2403" d="M170 646v80q0 343 253 668q340 375 790 375h19q448 0 788 -371q166 -191 236 -493q20 -109 20 -176v-83q0 -266 -173 -554q-207 -311 -554 -429h-22q-41 0 -45 61v307q0 107 -67 179q0 8 99 20q142 29 253 128q125 132 125 393q0 159 -106 282q19 74 19 112v25 q0 65 -32 151h-16q-103 0 -272 -112q-137 35 -262 35q-123 0 -266 -35q-160 112 -275 112h-6q-16 0 -36 -128v-61q0 -29 20 -99q-109 -127 -109 -282q0 -367 259 -483q83 -35 218 -54v-4q-46 -48 -64 -140q-58 -32 -119 -32q-132 0 -208 150q-73 80 -150 80q-39 -3 -39 -19 q10 -27 74 -67q43 -37 112 -189q82 -103 198 -103h42l86 10l4 -3v-173q0 -64 -58 -64q-324 101 -547 406q-189 300 -189 580zM247 690q0 -437 326 -748v3q-24 31 -57 115q-27 56 -109 109q-35 45 -35 70v10q0 63 70 89l54 7q57 0 125 -39q-147 162 -147 436v9q0 162 99 301 l-13 106q23 233 77 233q14 7 55 10q112 0 281 -106q140 29 221 29h58q72 0 227 -29q157 106 272 106q96 0 96 -55q26 -49 38 -176l-13 -121q100 -132 100 -298v-13q0 -439 -372 -566l-60 -16q22 -67 22 -138v-268h3q369 149 541 512q93 203 93 432q0 478 -403 809 q-278 186 -528 186h-36l-3 3l-3 -3h-3l-3 3l-4 -3h-38q-232 0 -493 -163q-283 -189 -400 -557q-38 -141 -38 -279zM688 246q58 -85 77 -103q33 -25 71 -25h16q51 0 51 25l3 10q-120 32 -208 86l-6 7h-4zM711 -164v-3q102 -57 173 -83v64l-26 -4q-69 0 -144 26h-3z" />
<glyph unicode="B" horiz-adv-x="2402" d="M115 712v26q0 312 189 592q119 166 281 275q272 176 573 176h26q311 0 592 -189q166 -119 275 -281q176 -272 176 -573v-26q0 -312 -189 -592q-119 -166 -281 -275q-272 -176 -573 -176h-26q-312 0 -592 189q-166 119 -275 281q-176 272 -176 573zM192 712l3 3h6 q71 0 276 -86l16 -6v3q5 94 124 230q189 179 429 179q220 0 432 -169q46 -48 61 -48l13 3q36 0 73 -74h4q73 0 115 212q33 96 86 96l26 -4q28 52 70 52h7q18 0 41 -13q47 25 58 25h19l19 -6v3q-47 106 -125 215q-319 377 -774 377q-418 0 -723 -320q-256 -285 -256 -672z M198 626q0 -155 131 -403h4v32q0 92 102 204q-98 46 -237 170v-3zM224 667q98 -97 179 -134v3l-3 19q0 17 35 36v3l-173 64zM381 248q22 -109 41 -109q0 58 77 116q36 19 67 19h61l3 -3h3q0 45 23 80q0 48 -112 83l-64 6v-3q-99 -103 -99 -170v-19zM445 543q23 -58 89 -58 q112 -29 151 -86q10 -32 57 -52q130 -51 176 -51l83 39l106 12q70 0 202 -44h9q55 0 125 172q22 60 54 205q15 26 68 77v3q-14 16 -42 16q-50 -40 -109 -269q-43 -112 -112 -112q-43 10 -109 39l-32 6q-34 0 -195 -51l-48 -6q-99 0 -243 115q-126 64 -189 64h-6 q-23 0 -35 -19zM451 63q305 -317 720 -317q451 0 765 368q150 185 201 448l13 134q-41 -61 -144 -61q-41 -57 -125 -57q-99 0 -128 -29q-88 -118 -169 -118v-4q128 -132 128 -179l3 -22q0 -108 -131 -151q-14 -6 -51 -6h-4q-133 0 -176 144q-6 14 -6 51q-26 -2 -26 -6 q32 -75 32 -131v-16q0 -95 -118 -112h-54q-247 19 -295 108l-9 45q-21 -13 -48 -13h-4q-73 0 -89 119q3 34 9 45q-32 21 -57 22l-10 -38q0 -30 55 -144l3 -23q0 -46 -93 -77l-45 -6h-19q-54 0 -128 26zM464 114q75 -29 89 -29v16q0 62 -41 102q-48 -36 -48 -89zM534 603 q188 -66 247 -124q61 -48 121 -48h16q46 0 208 51l26 3q22 0 137 -38l13 -4q62 0 96 192q28 78 71 167q0 40 -244 150q-94 32 -172 32h-10q-306 0 -474 -278q-35 -75 -35 -103zM560 219q41 -62 41 -128l-3 -12h16v3q0 88 -41 144h-7zM621 226q35 -70 35 -122v-13l32 26 q0 18 -45 102v7h-22zM784 242q5 -55 54 -55q55 14 55 52l3 12l-109 32v-3l-3 -19v-19zM918 175q0 -82 128 -112h3q35 98 109 140q59 36 122 42q-25 54 -199 54h-16q-121 -23 -121 -51q-26 -32 -26 -73zM1094 53h3l100 -3l3 -3h3v6q0 43 -54 86q-39 -42 -55 -86zM1187 165 q31 0 61 -112v-3l25 3q-23 128 -67 128q-19 -7 -19 -13v-3zM1261 200q48 -63 48 -96h3v32q0 33 -16 67h-13zM1385 283q0 -71 45 -134h3v38q0 99 148 186v3q-54 61 -93 61h-3q-30 -87 -93 -150l-3 -4h-4zM1481 165q0 -48 16 -48l23 -3h38l7 6q0 56 -68 112q-10 0 -16 -67z M1501 482h3l51 -3h32q67 0 131 92q42 56 211 58q22 0 29 13q-52 0 -118 80l-7 22q19 16 32 16q7 0 36 -41q53 -39 121 -39h3q81 0 100 67q-42 64 -90 64l-99 -19h-13q-67 0 -96 112v26l10 73h-10q-18 0 -77 -192q-44 -118 -131 -118l-42 10q-35 -25 -48 -93 q-27 -83 -28 -128zM1523 264q35 0 77 -115l3 -19h3l23 19v3q0 60 -90 138q-16 -13 -16 -26zM1577 319q80 -82 87 -125h3l3 22q0 71 -61 119zM1878 904q13 -70 61 -70l29 32q-46 0 -51 57q0 39 32 68h9q17 0 29 -10v3q-9 39 -54 77q-45 -14 -55 -118v-39zM2003 1061 q26 -49 26 -74h3q0 15 22 26h10l22 -6v3q-18 64 -64 64zM2019 856l3 -3h13q25 0 42 38q-25 0 -45 16q0 -19 -13 -51zM2089 837l58 -54v6l-13 125q-7 0 -13 -35z" />
<glyph unicode="C" horiz-adv-x="2397" d="M151 739v26q0 436 346 768q209 178 403 227l35 9h16q100 0 202 -92h96q108 92 198 92h16q206 -34 445 -233q349 -332 349 -771v-26q0 -446 -362 -784q-312 -256 -678 -256h-26q-446 0 -784 362q-256 312 -256 678zM228 752q0 -375 265 -669q304 -307 711 -307 q482 0 803 419q173 263 173 557q0 475 -410 797q-191 118 -265 128q0 -39 -74 -39q-93 -34 -93 -57l-3 -4v-374q-9 -38 -35 -38h-195q-36 5 -36 35v377q-48 64 -144 64q-25 10 -25 39q-382 -142 -554 -461q-118 -223 -118 -467zM503 249v4l442 723h-378v-93l-6 -6h-29l-7 6 v128l7 6h477l6 -6l-438 -720h396v102l7 7h29l6 -7v-137l-6 -7h-506zM935 1680h3l23 -3v3l6 51h-3l-26 3v-3zM986 1670l23 -6v3l19 48l-29 10q-13 -34 -13 -55zM1031 1651l19 -10q29 41 29 48l-26 13q-22 -41 -22 -51zM1069 1625l20 -12l38 38l-19 16h-3zM1098 256v29l7 6h76 v685h-76l-7 6v29l7 6h195l6 -6v-29l-6 -6h-77v-685h77l6 -6v-29l-6 -7h-195zM1108 1203h189v266h-52l-6 6v86h-77v-86l-6 -6h-48v-266zM1108 1507h29l3 -3h3l3 3v67l7 7h99l6 -7v-67h39v83q0 8 -45 48h-106l-38 -45v-86zM1146 1248v61l7 6h99l6 -6v-61l-6 -7h-99zM1277 1648 l39 -39l16 20l-35 41zM1322 1686l29 -45l22 13l-25 48l-26 -13v-3zM1361 256v29l6 6h83v685h-83l-6 6v29l6 6h285q179 0 227 -131q16 -55 16 -86q0 -136 -128 -189q-55 -13 -102 -13h-173v-307h80l6 -6v-29l-6 -7h-205zM1377 1712l19 -48l22 6l-13 55q-28 -7 -28 -13z M1434 1731l7 -54h3l22 3v48l-6 6zM1492 640h150q151 0 195 93q13 43 13 67v6q0 116 -118 157q-44 13 -99 13h-141v-336z" />
<glyph unicode="D" horiz-adv-x="1518" d="M30 714v26q0 312 189 592q119 166 281 275q272 176 573 176h26q311 0 592 -189q166 -119 275 -281q176 -272 176 -573v-26q0 -312 -189 -592q-119 -166 -281 -275q-272 -176 -573 -176h-26q-312 0 -592 189q-166 119 -275 281q-176 272 -176 573zM105 715 q0 -280 164 -532q101 -151 255 -261q260 -176 550 -176h24q280 0 532 164q151 101 261 255q176 260 176 550v24q0 280 -163 532q-102 151 -256 261q-261 176 -550 176h-24q-280 0 -532 -163q-151 -102 -261 -256q-176 -260 -176 -550v-24z" />
<glyph unicode="E" horiz-adv-x="2397" d="M120 -98v1388l2 2h94v34l4 13h-3v116l1 1v2l-1 1l1 1h2v-1l1 1h791q11 0 14 -5l1 4h5v-3h2v3h10l1 -1l1 1h2q48 -4 48 -7l1 1h1q32 -7 44 -13l3 -3l1 1h1l7 -3l-2 -5l1 -1l-1 -1h1l3 2l-2 1v3h4l1 -5h-2l2 -3l1 4h3l18 -14q2 -8 7 -8l6 -10v-3l-1 -1v-1q5 -1 5 -4v-2 l-2 -1l3 -9h1q0 6 4 10l-2 1v1q3 6 5 6l1 -1l-1 4q0 7 22 26q3 0 3 4l21 10l3 -1v1l2 -1h2l-1 1v3l30 8l3 -1q0 4 11 5l1 -1q0 3 39 6l1 -2l2 3h11l11 -1l4 1l2 -3q0 3 5 4l1 -1l6 1h792l1 -1h1l2 1l1 -1l-1 -1l1 -9v-96l-1 -7l2 -10v-44h100l2 -2v-1388l-2 -2h-2162z M300 80h719l11 -2l4 1v-1l2 1h2l5 -1l3 1v-1l2 1h3l1 -1l2 1h1l1 -1l1 1l12 -1h7l4 -3l1 1h1q6 0 6 -2l2 1h8l2 -2l2 1h1q56 -11 56 -18l1 1h2q6 -2 6 -7l1 1h1l1 -1l1 1q16 -10 24 -29v-7h3v-3l-3 -4l2 -1h3q0 20 19 39q3 0 12 8q4 0 4 2l1 -1h3l2 2l-1 1l21 8l2 -2 q0 4 8 4v-2h1q1 4 4 4h2l4 -1v1q0 3 29 5v1l1 -1h1l17 3l7 -3h1v1h-2l2 3h5l1 -1l1 1h18l2 -1l1 1h5l4 -1l8 2h716v1296h-29l-3 1l-6 -1h-63l-3 1l-6 -1h-95l-5 1l-5 -1h-1l-1 1l-1 -1h-146l-1 1l-1 -1h-1l-1 1l-2 -1h-225l-1 1l-2 -1h-54l-13 1l-9 -1h-5l-1 1l-2 -1h-15 l-5 1l-1 -1h-1l-4 1l-4 -1v1l-10 -2v1l-2 -1h-6l-1 1h-1l-2 -2l-2 1h-1l-6 -1l-2 2v-1l1 -1h-2l-2 -2l-4 5l-2 -1h-1l-1 1h-1v-1l2 -2v-3l-7 -1l-1 1q0 -1 -17 -6l-4 1v-2h-7v-2h-1l-1 1h-1l-3 -3l-1 2h-1q0 -3 -29 -16q-20 -22 -24 -22v-1h2v-1l-2 -2l-1 1h-1l-2 -1v-2h3 v-1l-6 -20l1 -1l-2 -22l2 -2v-20q0 -25 -23 -32q-7 -5 -14 -5h-10q-10 0 -23 10l-4 2l1 1v4l-1 -1h-3l-5 6v7h-2v55l-2 13l1 2v1q-5 0 -9 8h-1v1l1 2v1q-4 0 -13 12q-18 12 -33 19q-11 2 -20 7l-1 -1l-1 1v1h2v2h-1l-6 -3q0 3 -9 3l-2 3l-1 -1h-5q-8 0 -9 4l1 1l-1 1h-1v-1 l1 -1l-1 -2h-4l-7 3l-5 -1l-16 2l-1 -1l-14 2l-1 -1h-2l-6 1l-7 -1l-1 1l-6 -1h-678v-1296zM1133 1440l3 -3v1l-3 3v-1zM1158 1306h1l1 5q-2 0 -2 -3v-2zM1163 1422l5 -4l1 1l-1 4l-2 -1h-1l-1 1h-1v-1zM1170 44h1l3 2h-2zM1181 1401l6 1v2l-5 1l-1 -1v-3zM1182 1399h2v-1 l4 1v2l-6 -1v-1zM1190 1372l5 -3h1v1q-4 0 -4 5h-2v-3zM1192 1386l2 2l-2 2v-1h1l-1 -1v-2zM1231 1419l4 -1v1l-3 3l-1 -2v-1zM1234 49l2 -3l-1 -1l1 -1h1l1 1v1l-4 4v-1zM1324 74l1 -1h1l1 1v1l-1 1h-1l-1 -1v-1zM1363 74l1 -1h2l1 1v1l-1 1h-2l-1 -1v-1z" />
<glyph unicode="F" horiz-adv-x="2386" d="M208 192v1300q0 69 75 102q19 4 31 4h1732q69 0 102 -74q4 -20 4 -32v-1300q0 -68 -75 -101q-19 -5 -31 -5h-596v-183h217q21 -4 21 -21v-24q-4 -20 -21 -20h-974q-21 3 -21 20v24q4 21 21 21h217v183h-596q-69 0 -102 75q-4 19 -4 31zM316 194h1728v1296h-1728v-1296z M511 864v1l281 281h1l99 -99v-1l-181 -181v-1l181 -182v-1l-99 -98h-1zM1000 674l275 474l115 -67l-276 -474zM1468 681v1l181 182v1l-181 181v1l99 99h1l281 -281v-1l-281 -281h-1z" />
<glyph unicode="G" horiz-adv-x="1902" d="M155 -14q0 52 40 115l574 906v456h-73q-29 0 -51 21.5t-22 51.5t22 51.5t51 21.5h585q30 0 52 -21.5t22 -51.5t-22 -51.5t-52 -21.5h-73v-456l575 -906q40 -63 40 -115q0 -32 -15 -60q-40 -72 -161 -72h-1316q-122 0 -161 72q-15 28 -15 60zM582 439h814l-311 490l-23 36 v42v456h-146v-456v-42l-23 -36z" />
<glyph unicode="H" horiz-adv-x="2496" d="M379 664v10q0 122 93 223q101 96 226 96h10q128 0 232 -102q0 -3 4 -3l634 345q-11 41 -11 79v10q0 122 93 223q101 96 226 96h10q122 0 223 -93q96 -101 96 -226v-10q0 -123 -94 -224q-101 -95 -225 -95h-10q-131 0 -236 106l-634 -345q11 -43 11 -80v-10q0 -37 -11 -80 l635 -345q103 106 235 106h10q122 0 223 -93q96 -101 96 -226v-10q0 -123 -94 -224q-101 -95 -225 -95h-10q-122 0 -223 93q-96 101 -96 226v10q0 38 11 79l-635 345h-1q-43 -44 -78 -63q-77 -42 -156 -42h-10q-122 0 -223 93q-96 101 -96 226z" />
<glyph unicode="I" horiz-adv-x="2487" d="M88 534v23q0 357 227 667q29 45 146 161q70 60 135 102q288 185 607 185h20q359 0 669 -225q52 -37 149 -136q117 -133 156 -215q144 -259 144 -539v-23q0 -323 -190 -616q-41 -62 -88 -107q-76 -62 -166 -62h-10q-72 0 -143 45q-251 132 -531 132q-302 0 -577 -159 q-49 -18 -90 -18h-19q-136 0 -233 147q-206 299 -206 638zM651 546q0 -251 202 -433q165 -131 361 -131q251 0 433 202q131 165 131 362q0 250 -202 432q-165 131 -362 131q-251 0 -432 -202q-131 -165 -131 -361z" />
<glyph unicode="J" horiz-adv-x="2411" d="M60 380q0 144 87 306.5t248 324.5q211 211 429 296q102 39 176 39q84 0 132 -49q48 -47 48 -131q0 -57 -23 -130q-5 -18 -1.5 -25.5t12.5 -8.5t18 0.5t17 3.5l8 4q174 73 308.5 73t191.5 -77q29 -39 29 -95t-29 -127q-2 -17 -5.5 -25.5t5.5 -16t15.5 -9.5t20.5 -8 q72 -21 130 -58t100 -103t42 -146q0 -84 -46 -174t-136.5 -172.5t-211 -147t-283 -103.5t-339.5 -39t-345 41.5t-301.5 116.5t-215 189.5t-81.5 250.5zM286 323q0 -16 1 -32q11 -121 111.5 -213.5t261.5 -136.5q115 -32 241 -32q51 0 104 6q278 28 461 176q168 136 168 301 q0 15 -1 32q-11 120 -111.5 213t-261.5 137q-115 32 -241 32q-51 0 -102 -6q-280 -30 -464 -178q-167 -135 -167 -299zM555 287q0 62 32 127q59 116 190 173q83 38 165 38q49 0 99 -14q139 -36 198 -149q31 -59 31 -121q0 -58 -27 -118q-57 -128 -199 -189q-81 -34 -161 -34 q-59 0 -120 20q-134 43 -185 159q-23 53 -23 108zM677 237q0 -12 4 -25q11 -43 54 -64q23 -11 49 -11q21 0 44 9q50 17 78 59q17 30 17 60q0 13 -3 27q-12 44 -56 63q-22 8 -46 8q-22 0 -45 -7q-49 -17 -76 -57q-20 -31 -20 -62zM944 390q-8 -14 -8 -25q0 -20 25 -31 q17 -7 36 -0.5t27 23.5q10 16 4.5 33t-21.5 24q-18 5 -36 -1.5t-27 -22.5zM1521 1487q-2 9 -2 18q0 25 14 47q19 29 54 37q63 13 125 13q91 0 181 -27q152 -48 261 -169t141 -279q13 -64 13 -124q0 -92 -30 -180q-12 -33 -43 -49q-19 -10 -38 -10q-13 0 -27 4q-33 11 -50 43 q-10 20 -10 40q0 13 4 25q22 62 22 129q0 43 -9 87q-23 113 -101 198q-78 86 -185 120q-64 20 -129 20q-44 0 -89 -10q-9 -2 -18 -2q-25 0 -47 14q-30 20 -37 55zM1595 1203q-7 29 9.5 55t46.5 32q30 7 60 7q45 0 89 -14q75 -23 127.5 -82t67.5 -135q7 -32 7 -62 q0 -45 -14 -87q-11 -28 -38 -42t-56 -5q-28 10 -42 37t-5 55q8 25 8 46q0 52 -39 94q-42 47 -101 47q-16 0 -32 -3q-31 -7 -57.5 9.5t-30.5 47.5z" />
<glyph unicode="K" horiz-adv-x="1806" d="M85 274v69q0 178 191 383q-12 25 -23 69q39 115 39 138q20 30 38 30q0 430 406 597q91 31 206 31q432 0 590 -490q7 -65 7 -107v-8q69 -72 69 -168q0 -41 -15 -77q168 -195 168 -375v-46q-9 -140 -46 -160h-23q-75 40 -107 137h-7q-27 -95 -123 -222q130 -41 130 -137 q8 -13 8 -39v-23q0 -117 -306 -137h-39q-150 0 -267 92h-108q-132 -100 -290 -100q-330 27 -330 161q0 112 115 176h16q-115 162 -115 214q-70 -97 -107 -122h-39q-38 17 -38 114z" />
<glyph unicode="L" horiz-adv-x="2130" d="M70 857v8q17 29 67 29q56 10 129 16q72 10 123 13q70 11 239 28q70 10 103 12q29 11 39 27q13 18 72 147l157 326q15 35 61 128q19 24 33 24h7q19 0 37 -41q3 0 10 -24q41 -86 88 -191q126 -282 145 -326q24 -53 27 -53q14 -26 75 -26q38 -6 157 -17q0 -2 77 -7 q214 -24 314 -30q9 -4 62 -9q19 -13 27 -26v-10q-3 -1 -20 -29q-197 -182 -258 -244q-6 0 -26 -22l-101 -94q-49 -46 -49 -48q-43 -35 -43 -60q0 -12 12 -75l-3 -1q-114 0 -241 8l-3 -2q-59 7 -202 14q-31 6 -155 15q-18 5 -45 5l-1 4v2q9 10 34 25q60 44 428 297q0 2 84 60 q92 63 108 77v3q0 10 -62 14q-109 17 -114 17q-2 0 -2 -2q-100 16 -350 23q-249 -7 -401 -24q-11 0 -214 -31q-49 -9 -49 -14q0 -6 34 -8q6 1 15 1v-1q2 0 2 1q2 0 5 -1q76 -2 118 -2h3q89 -7 168 -7v-2l3 2q89 -5 104 -5v-2q2 0 2 2l8 -2h16q63 -6 147 -10q5 0 191 -24h5 q3 0 3 -3v-2q-17 -15 -88 -63q-152 -111 -292 -208q-157 -114 -217 -154q-57 -41 -58 -41v-2q0 -9 7 -12h15q107 -13 126 -13h11q27 -7 124 -11v-1q2 0 2 1q3 0 3 -1q105 -2 168 -5h56q138 5 159 5l3 1q2 0 2 -1q39 5 55 5v-2l3 2h8l166 17q0 2 26 5v-2q15 5 61 9q4 4 72 13 q10 5 37 9q0 2 33 7q0 3 8 3h4q3 0 3 -3q-42 -26 -118 -51q0 -3 -3 -11q7 -14 22 -112q-1 -10 -1 -14q13 -54 15 -84q5 -11 29 -148q8 -37 12 -67q14 -47 14 -90q0 -23 -21 -29q-12 -2 -14 -2q-26 8 -177 99q-130 74 -152 89l-191 109q-56 38 -89 38q-27 0 -96 -43 l-331 -193q-3 0 -97 -56q-64 -38 -72 -38q-9 -5 -12 -5q-31 5 -31 20q-1 2 -1 14q0 31 30 183l26 136q48 254 53 274q12 71 12 76v6q0 13 -38 44q-82 78 -268 248q-1 3 -84 78q-107 94 -107 109z" />
<glyph unicode="M" horiz-adv-x="1902" d="M0 73v732q0 29 21.5 51t51.5 22h329q30 0 51.5 -22t21.5 -51v-732q0 -30 -21.5 -51.5t-51.5 -21.5h-329q-30 0 -51.5 21.5t-21.5 51.5zM146 219q0 -30 21.5 -51.5t51.5 -21.5t52 21.5t22 51.5t-22 52t-52 22t-51.5 -22t-21.5 -52zM549 73v733q0 28 20.5 49.5t48.5 23.5 t87.5 67t115.5 139q77 99 115 137q21 20 35.5 54.5t20 55.5t15.5 69q8 45 14 70t22 59.5t39 56.5q22 22 52 22q52 0 94 -12t68.5 -29.5t45.5 -46t27.5 -51.5t14 -57.5t6 -51.5t0.5 -44q0 -44 -11 -87.5t-22 -68.5t-31 -64q-4 -7 -12 -20.5t-12.5 -25t-8.5 -27.5h316 q89 0 154.5 -65t65.5 -154q0 -99 -63 -171q17 -50 17 -87v-9q0 -80 -49 -147q10 -32 10 -65.5t-10 -68.5q-17 -65 -62 -107q1 -17 1 -33q0 -106 -57 -174q-73 -87 -225 -89h-41h-87h-20q-75 0 -164 17.5t-139 33t-138 45.5q-140 49 -180 50q-30 1 -51.5 22t-21.5 51z" />
<glyph unicode="N" horiz-adv-x="1902" d="M0 512q0 -30 21.5 -51.5t51.5 -21.5h329q30 0 51.5 21.5t21.5 51.5v731q0 30 -21.5 52t-51.5 22h-329q-30 0 -51.5 -22t-21.5 -52v-731zM146 1097q0 31 21.5 52t51.5 21t52 -21t22 -52q0 -30 -22 -51.5t-52 -21.5t-51.5 21.5t-21.5 51.5zM549 511v732q0 30 21.5 51 t51.5 23q40 1 180 50q88 30 138 45t139 33t164 18h20h87h41q152 -2 225 -89q57 -69 57 -174q0 -16 -1 -33q45 -42 62 -108q10 -34 10 -67.5t-10 -65.5q49 -66 49 -148v-9q0 -36 -17 -87q63 -69 63 -170q-2 -89 -66.5 -154t-153.5 -65h-316q4 -16 8.5 -27.5t12.5 -25.5 l12 -21q20 -42 30.5 -65t22 -67t11.5 -87q0 -27 -0.5 -44.5t-6 -51.5t-14 -57t-27.5 -51.5t-45.5 -46.5t-68.5 -30t-94 -12q-30 0 -52 22q-23 23 -39 57.5t-22 59.5t-14 69q-10 48 -15.5 69.5t-20 55.5t-35.5 55q-38 38 -115 137q-56 73 -115.5 138t-87.5 68q-28 2 -48.5 23 t-20.5 50z" />
<glyph unicode="O" horiz-adv-x="1755" d="M0 731.5q0 238.5 117.5 440.5t319.5 319.5t441 117.5t440.5 -117.5t319 -319.5t117.5 -440.5t-117.5 -440.5t-319 -319.5t-440.5 -117.5t-441 117.5t-319.5 319.5t-117.5 440.5zM395 731.5q0 -29.5 22 -51.5l519 -519q22 -22 51.5 -22t51.5 22l116 117q22 21 22 51 t-22 52l-350 350l350 351q22 22 22 51.5t-22 51.5l-116 117q-22 21 -51.5 21t-51.5 -21l-519 -519q-22 -22 -22 -51.5z" />
<glyph unicode="P" horiz-adv-x="1755" d="M0 731.5q0 238.5 117.5 440.5t319.5 319.5t441 117.5t440.5 -117.5t319 -319.5t117.5 -440.5t-117.5 -440.5t-319 -319.5t-440.5 -117.5t-441 117.5t-319.5 319.5t-117.5 440.5zM578 329q0 -30 22 -51l117 -117q21 -22 51 -22t51 22l519 519q22 22 22 51.5t-22 51.5 l-519 519q-21 21 -51 21t-51 -21l-117 -117q-22 -22 -22 -51.5t22 -51.5l351 -351l-351 -350q-22 -22 -22 -52z" />
<glyph unicode="Q" horiz-adv-x="1755" d="M0 731.5q0 238.5 117.5 440.5t319.5 319.5t441 117.5t440.5 -117.5t319 -319.5t117.5 -440.5t-117.5 -440.5t-319 -319.5t-440.5 -117.5t-441 117.5t-319.5 319.5t-117.5 440.5zM286 621.5q0 -29.5 21 -51.5l117 -116q22 -22 51.5 -22t51.5 22l351 351l351 -351 q21 -22 51 -22t51 22l117 116q22 22 22 51.5t-22 51.5l-519 519q-22 22 -51.5 22t-51.5 -22l-519 -519q-21 -22 -21 -51.5z" />
<glyph unicode="R" horiz-adv-x="1755" d="M0 731.5q0 238.5 117.5 440.5t319.5 319.5t441 117.5t440.5 -117.5t319 -319.5t117.5 -440.5t-117.5 -440.5t-319 -319.5t-440.5 -117.5t-441 117.5t-319.5 319.5t-117.5 440.5zM286 841q0 -30 21 -51l519 -519q22 -22 51.5 -22t51.5 22l519 519q22 21 22 51t-22 52 l-117 116q-21 22 -51 22t-51 -22l-351 -351l-351 351q-22 22 -51.5 22t-51.5 -22l-117 -116q-21 -22 -21 -52z" />
<glyph unicode="S" horiz-adv-x="1609" d="M0 1609h1609l-146 -1643l-661 -185l-656 185zM299 1273l54 -610h700l-26 -261l-225 -60l-224 60l-15 160h-200l26 -317l413 -115h5v1l410 114l57 621h-736l-17 207h770l19 200h-1011z" />
<glyph unicode="T" horiz-adv-x="1902" d="M0 567q0 271 155 452q-30 94 -30 195q0 132 58 249q123 0 217 -45t216 -141q168 40 353 40q169 0 320 -37q120 94 214 138.5t216 44.5q58 -117 58 -249q0 -100 -31 -192q156 -183 156 -455q0 -237 -70 -378q-43 -88 -120.5 -152t-161.5 -98.5t-194 -54.5t-196 -25 t-191 -5q-89 0 -162 3.5t-168.5 14t-174.5 34t-156.5 59t-138 92.5t-98.5 132q-71 140 -71 378zM256 366q0 -101 36.5 -176t92.5 -117.5t139.5 -68.5t160 -34t170.5 -8h192q94 0 170.5 8t160 34t139.5 68.5t92.5 117.5t36.5 176q0 137 -79 233t-214 96q-47 0 -223 -24 q-81 -13 -179 -13t-180 13q-173 24 -222 24q-135 0 -214 -96t-79 -233zM439 365.5q0 45.5 14 93.5t49 87t83 39t83 -39t49 -87t14 -93.5t-14 -93.5t-49 -87t-83 -39t-83 39t-49 87t-14 93.5zM1170 365.5q0 45.5 14.5 93.5t49.5 87t83 39t82.5 -39t48.5 -87q15 -50 15 -97 q-1 -44 -15 -90q-14 -48 -48.5 -87t-82.5 -39t-83 39t-49.5 87t-14.5 93.5z" />
<glyph unicode="U" horiz-adv-x="1755" d="M0 731.5q0 238.5 117.5 440.5t319.5 319.5t441 117.5t440.5 -117.5t319 -319.5t117.5 -440.5t-117.5 -440.5t-319 -319.5t-440.5 -117.5t-441 117.5t-319.5 319.5t-117.5 440.5zM146 731.5q0 -148.5 58.5 -284t156 -233t233 -156t284 -58.5t284 58.5t233.5 156t156 233 t58 284t-58 284t-156 233t-233.5 156t-284 58.5t-284 -58.5t-233 -156t-156 -233t-58.5 -284zM439 1024q0 61 43 103.5t103.5 42.5t103 -42.5t42.5 -103.5t-42.5 -103.5t-103 -42.5t-103.5 42.5t-43 103.5zM459 527q-9 28 5 55t43 36t56 -4.5t36 -43.5q28 -91 105.5 -147.5 t173.5 -56.5t173 56.5t106 147.5q9 30 36.5 43.5t56 4.5t42 -36t4.5 -55q-42 -138 -157.5 -223t-260.5 -85t-260.5 85t-158.5 223zM1024 1024q0 61 43 103.5t103.5 42.5t103.5 -42.5t43 -103.5t-43 -103.5t-103.5 -42.5t-103.5 42.5t-43 103.5z" />
<glyph unicode="V" horiz-adv-x="2194" d="M0 329v1244q0 75 53.5 128.5t129.5 53.5h1828q76 0 129.5 -53.5t53.5 -128.5v-1244q0 -75 -53.5 -129t-129.5 -54h-621q0 -42 18 -88.5t36.5 -81t18.5 -49.5q0 -30 -22 -51.5t-51 -21.5h-585q-30 0 -52 21.5t-22 51.5q0 16 18.5 50t37 80t18.5 89h-622q-76 0 -129.5 54 t-53.5 129zM146 622q0 -15 11 -26t26 -11h1828q15 0 26 11t11 26v951q0 14 -11 25t-26 11h-1828q-15 0 -26 -11t-11 -25v-951z" />
<glyph unicode="W" horiz-adv-x="2194" d="M0 110v109h183h1828h183v-109q0 -46 -53.5 -78t-129.5 -32h-1828q-76 0 -129.5 32t-53.5 78zM293 475v805q0 75 53.5 129t128.5 54h1244q75 0 129 -54t54 -129v-805q0 -75 -54 -128.5t-129 -53.5h-1244q-75 0 -128.5 53.5t-53.5 128.5zM439 475q0 -14 11 -25t25 -11h1244 q15 0 25.5 11t10.5 25v805q0 15 -10.5 26t-25.5 11h-1244q-14 0 -25 -11t-11 -26v-805zM987 128q0 -18 19 -18h183q18 0 18 18t-18 18h-183q-19 0 -19 -18z" />
<glyph unicode="X" horiz-adv-x="1317" d="M0 183v1243q0 76 53.5 129.5t129.5 53.5h951q75 0 129 -53.5t54 -129.5v-1243q0 -76 -54 -129.5t-129 -53.5h-951q-76 0 -129.5 53.5t-53.5 129.5zM146 329q0 -15 11 -25.5t26 -10.5h951q15 0 25.5 10.5t10.5 25.5v1097q0 15 -10.5 26t-25.5 11h-951q-15 0 -26 -11 t-11 -26v-1097zM585 146.5q0 -29.5 22 -51.5t51.5 -22t51 22t21.5 51.5t-21.5 51t-51 21.5t-51.5 -21.5t-22 -51z" />
<glyph unicode="Y" horiz-adv-x="878" d="M0 146v1171q0 59 43.5 102.5t102.5 43.5h585q60 0 103.5 -43.5t43.5 -102.5v-1171q0 -59 -43.5 -102.5t-103.5 -43.5h-585q-59 0 -102.5 43.5t-43.5 102.5zM110 329q0 -15 10.5 -25.5t25.5 -10.5h585q15 0 26 10.5t11 25.5v805q0 15 -11 25.5t-26 10.5h-585 q-15 0 -25.5 -10.5t-10.5 -25.5v-805zM329 1298.5q0 -18.5 18 -18.5h183q19 0 19 18.5t-19 18.5h-183q-18 0 -18 -18.5zM347 146.5q0 -37.5 27 -64.5t65 -27t64.5 27t26.5 64.5t-26.5 64.5t-64.5 27t-65 -27t-27 -64.5z" />
<glyph unicode="Z" horiz-adv-x="731" d="M51 658q0 15 12 27l532 532q12 12 27 12t26 -12l57 -57q12 -11 12 -26t-12 -27l-449 -449l449 -449q12 -11 12 -26t-12 -26l-57 -58q-11 -11 -26 -11t-27 11l-532 533q-12 11 -12 26z" />
<glyph unicode="[" horiz-adv-x="731" d="M15 183q0 15 11 26l449 449l-449 449q-11 12 -11 27t11 26l57 57q12 12 27 12t26 -12l533 -532q11 -12 11 -27t-11 -26l-533 -533q-11 -11 -26 -11t-27 11l-57 58q-11 11 -11 26z" />
<glyph unicode="\" horiz-adv-x="1317" d="M88 402q0 15 11 27l533 532q11 12 26 12t27 -12l532 -532q12 -12 12 -27t-12 -26l-57 -57q-11 -12 -26 -12t-27 12l-449 449l-449 -449q-11 -12 -26 -12t-26 12l-58 57q-11 11 -11 26z" />
<glyph unicode="]" horiz-adv-x="1317" d="M88 914q0 15 11 27l58 57q11 11 26 11t26 -11l449 -449l449 449q12 11 27 11t26 -11l57 -57q12 -12 12 -27t-12 -26l-532 -533q-12 -11 -27 -11t-26 11l-533 533q-11 11 -11 26z" />
<glyph unicode="^" horiz-adv-x="2048" d="M0 37v907q50 -56 115 -99q414 -282 568 -395q66 -48 106.5 -74.5t108 -54.5t125.5 -28h1h1q58 0 125.5 28t108 54.5t106.5 74.5q194 141 569 395q65 44 114 99v-907q0 -76 -53.5 -129.5t-129.5 -53.5h-1682q-76 0 -129.5 53.5t-53.5 129.5zM0 1255q0 89 47.5 148.5 t135.5 59.5h1682q74 0 128.5 -54t54.5 -129q0 -90 -56 -172.5t-139 -140.5q-430 -298 -535 -372q-12 -8 -49 -34.5t-61.5 -43t-59.5 -37.5t-66 -31t-57 -10h-1h-1q-26 0 -57 10t-66 31t-59.5 37.5t-61.5 43t-49 34.5q-104 74 -299.5 209t-233.5 163q-71 48 -134 132t-63 156 z" />
<glyph unicode="_" horiz-adv-x="2194" d="M0 627v212q0 11 8 22t18 12l177 28q13 40 37 86q-39 55 -103 132q-8 12 -8 23q0 13 8 23q25 34 93.5 101.5t90.5 67.5q13 0 24 -8l132 -103q38 20 88 36q12 124 26 176q8 28 34 28h213q12 0 22.5 -8.5t11.5 -20.5l26 -175q39 -11 86 -35l135 102q9 8 23 8q12 0 24 -9 q164 -152 164 -183q0 -11 -8 -22q-13 -18 -47.5 -61.5t-51.5 -68.5q26 -55 39 -94l173 -26q12 -3 20 -12.5t8 -22.5v-211q0 -11 -8 -22t-18 -12l-178 -28q-12 -40 -36 -87q39 -54 103 -131q8 -11 8 -23q0 -14 -8 -22q-27 -34 -95 -102t-89 -68q-13 0 -24 8l-132 103 q-42 -22 -88 -35q-12 -124 -26 -178q-8 -27 -34 -27h-213q-12 0 -22.5 8.5t-11.5 20.5l-26 174q-39 12 -86 36l-135 -102q-8 -8 -23 -8q-12 0 -24 9q-164 152 -164 183q0 10 8 22q11 16 46.5 60.5t53.5 69.5q-26 50 -40 94l-174 27q-11 1 -19 11t-8 22zM439 731.5 q0 -121.5 85.5 -207t207 -85.5t207 85.5t85.5 207t-85.5 207t-207 85.5t-207 -85.5t-85.5 -207zM1317 66v160q0 19 170 36q15 33 34 59q-58 129 -58 158q0 4 4 8q5 2 40.5 22.5t67.5 39t34 18.5q9 0 52.5 -53t59.5 -77q23 2 34.5 2t34.5 -2q58 81 105 128l7 2q4 0 141 -80 q5 -4 5 -8q0 -29 -58 -158q19 -26 34 -59q170 -17 170 -36v-160q0 -18 -170 -35q-14 -31 -34 -60q58 -129 58 -157q0 -5 -5 -8q-139 -81 -141 -81q-9 0 -52.5 53.5t-59.5 77.5q-23 -2 -34.5 -2t-34.5 2q-16 -24 -59.5 -77.5t-52.5 -53.5q-2 0 -142 81q-4 3 -4 8q0 28 58 157 q-20 29 -34 60q-170 17 -170 35zM1317 1237v160q0 18 170 35q15 33 34 59q-58 130 -58 158q0 5 4 8q5 2 40.5 23t67.5 39t34 18q9 0 52.5 -53t59.5 -77q23 2 34.5 2t34.5 -2q58 81 105 128l7 2q4 0 141 -80q5 -3 5 -8q0 -28 -58 -158q19 -26 34 -59q170 -17 170 -35v-160 q0 -19 -170 -36q-14 -31 -34 -59q58 -129 58 -158q0 -5 -5 -8q-139 -81 -141 -81q-9 0 -52.5 53.5t-59.5 77.5q-23 -2 -34.5 -2t-34.5 2q-16 -24 -59.5 -77.5t-52.5 -53.5q-2 0 -142 81q-4 3 -4 8q0 29 58 158q-20 28 -34 59q-170 17 -170 36zM1609 146q0 -60 43 -103 t103.5 -43t103.5 43t43 103t-43.5 103.5t-103 43.5t-103 -43.5t-43.5 -103.5zM1609 1317q0 -61 43 -104t103.5 -43t103.5 43t43 104q0 59 -43.5 102.5t-103 43.5t-103 -43.5t-43.5 -102.5z" />
<glyph unicode="`" horiz-adv-x="1755" d="M0 607v254q0 13 9 25.5t22 15.5l212 32q16 52 45 105q-46 65 -122 158q-12 13 -12 27q0 11 11 26q29 41 112 123t108 82q15 0 30 -12l158 -122q50 26 104 44q18 155 33 212q8 32 41 32h254q16 0 28 -9.5t13 -24.5l32 -210q56 -19 103 -43l162 123q10 10 27 10 q15 0 29 -12q147 -136 188 -194q8 -9 8 -25q0 -14 -9 -26q-17 -24 -58 -76t-62 -81q30 -57 47 -112l209 -32q15 -2 24 -14t9 -27v-254q0 -13 -9 -26t-23 -15l-211 -32q-22 -62 -45 -104q40 -57 123 -158q11 -13 11 -28t-10 -26q-31 -43 -113.5 -124t-107.5 -81q-13 0 -29 10 l-158 124q-50 -27 -104 -44q-18 -155 -33 -212q-8 -32 -41 -32h-254q-16 0 -28 9.5t-13 24.5l-32 210q-56 19 -103 43l-161 -123q-12 -10 -29 -10q-16 0 -28 13q-144 130 -189 192q-8 11 -8 26q0 14 9 26q17 24 58.5 76t61.5 81q-31 57 -47 113l-209 31q-15 2 -24 14t-9 27z M585 731.5q0 -121.5 86 -207t207 -85.5t206.5 85.5t85.5 207t-85.5 207t-206.5 85.5t-207 -85.5t-86 -207z" />
<glyph unicode="a" horiz-adv-x="1902" d="M31 727.5q1 15.5 12 24.5l822 685q37 29 87 29t87 -29l279 -234v223q0 16 10 26.5t26 10.5h220q16 0 26 -10.5t10 -26.5v-466l250 -208q12 -9 13 -24.5t-8 -26.5l-71 -85q-9 -10 -24 -13h-3q-15 0 -24 8l-791 660l-791 -660q-14 -9 -27 -8q-15 3 -24 13l-71 85 q-9 11 -8 26.5zM294 73v549q0 1 0.5 3t0.5 4l657 541l657 -541q1 -3 1 -7v-549q0 -30 -21.5 -51.5t-51.5 -21.5h-439v439h-292v-439h-439q-30 0 -51.5 21.5t-21.5 51.5z" />
<glyph unicode="b" horiz-adv-x="1902" d="M0 1016q0 42 64 53l574 83l257 520q22 47 56 47t56 -47l257 -520l574 -83q64 -11 64 -53q0 -25 -30 -55l-415 -404l98 -572q2 -8 2 -23q0 -24 -12 -40.5t-35 -16.5q-22 0 -46 14l-513 270l-513 -270q-25 -14 -46 -14q-24 0 -36 16.5t-12 40.5q0 7 2 23l99 572l-416 404 q-29 31 -29 55z" />
<glyph unicode="c" horiz-adv-x="1902" d="M0 1016q0 42 64 53l574 83l257 520q22 47 56 47t56 -47l257 -520l574 -83q64 -11 64 -53q0 -25 -30 -55l-415 -404l98 -572q2 -8 2 -23q0 -57 -47 -57q-22 0 -46 14l-513 270l-513 -270q-25 -14 -46 -14q-24 0 -36 16.5t-12 40.5q0 7 2 23l99 572l-416 404q-29 31 -29 55 zM253 947l349 -339l-83 -481l432 227l431 -227l-83 481l350 339l-482 71l-216 437l-216 -437z" />
<glyph unicode="d" horiz-adv-x="1609" d="M0 150q0 60 4 118t16 124.5t30.5 124t49 111.5t70.5 92.5t98 61.5t127 23q11 0 48.5 -25t85 -55t123.5 -54.5t152.5 -24.5t152.5 24.5t123.5 54.5t85 55t48.5 25q69 0 127 -23t98 -61.5t71 -92.5t49 -111.5t30 -124t16 -124.5t4 -118q0 -137 -83.5 -216.5t-221.5 -79.5 h-999q-138 0 -221.5 79.5t-83.5 216.5zM366 1170.5q0 181.5 128.5 310t310 128.5t310 -128.5t128.5 -310t-128.5 -310.5t-310 -129t-310 129t-128.5 310.5z" />
<glyph unicode="e" horiz-adv-x="1609" d="M0 0v731h731v-731h-731zM0 878v731h731v-731h-731zM146 147h439v438h-439v-438zM146 1024h439v439h-439v-439zM293 293v146h146v-146h-146zM293 1170v147h146v-147h-146zM878 0v731h439v-146h146v146h146v-438h-439v146h-146v-439h-146zM878 878v731h731v-731h-731z M1024 1024h439v439h-439v-439zM1170 0v146h147v-146h-147zM1170 1170v147h147v-147h-147zM1463 0v146h146v-146h-146z" />
<glyph unicode="f" horiz-adv-x="2048" d="M0 341q10 226 70 407.5t177 329t314 235.5t463 102v462l1024 -773l-1024 -764v513q-162 -3 -312.5 -34t-290 -89t-250.5 -157.5t-171 -231.5z" />
<glyph unicode="g" horiz-adv-x="1170" d="M0 73q0 60 29.5 110.5t80.5 79.5v937q-51 29 -80.5 79.5t-29.5 110.5q0 91 64 155t155.5 64t155.5 -64t64 -155q0 -60 -30 -110.5t-80 -79.5v-568q62 30 176 65q63 20 100 34t80.5 35t67.5 45t46.5 58.5t32 79.5t9.5 105q-50 28 -80 79t-30 110q0 92 64 156t155.5 64 t155.5 -64t64 -156q0 -59 -29.5 -110t-79.5 -79q-3 -328 -259 -473q-77 -44 -232 -93q-146 -46 -193.5 -81.5t-47.5 -113.5v-30q50 -29 80 -79.5t30 -110.5q0 -91 -64 -155t-155.5 -64t-155.5 64t-64 155zM110 73q0 -46 32 -78t77.5 -32t77.5 32t32 78t-32 78t-77.5 32 t-77.5 -32t-32 -78zM110 1389.5q0 -45.5 32 -77.5t77.5 -32t77.5 32t32 77.5t-32 77.5t-77.5 32t-77.5 -32t-32 -77.5zM841 1243.5q0 -45.5 32 -77.5t78 -32t78 32t32 77.5t-32 77.5t-78 32t-78 -32t-32 -77.5z" />
<glyph unicode="h" horiz-adv-x="2048" d="M0 658q0 39 23 79q160 262 427 419q273 161 574 161t574 -161q267 -157 427 -419q23 -40 23 -79t-23 -79q-159 -262 -427 -419q-273 -160 -574 -160t-574 160q-267 157 -427 419q-23 40 -23 79zM146 658q152 -234 375 -369q236 -143 503 -143t503 143q223 135 375 369 q-174 270 -436 404q70 -119 70 -257q0 -212 -150 -362t-362 -150t-362 150t-150 362q0 138 70 257q-262 -134 -436 -404zM677 805q0 -23 16 -39t38 -16q23 0 39 16t16 39q0 97 70 167t168 70q22 0 39 17q16 16 16 38t-16 39q-17 16 -39 16q-143 0 -245 -102t-102 -245z" />
<glyph unicode="i" horiz-adv-x="2003" d="M34 -216q2 -2 0 -10l4 -8q2 -4 6 -6t7 -4t9 -2h8h10h6q69 2 115 9t99.5 33t93.5 71q94 112 175 331l56 179q2 14 8 40.5t10 49.5t6 43q2 36 14 55t31 25t54 6q79 1 158.5 1t160.5 -1h4l4 2q-6 8 -8 14q-10 57 -38 100t-74 43h-223q-27 0 -43 12t-14 42q6 51 6 120 t2 136.5t6 119.5q4 37 20.5 51t52.5 14q60 -2 119 -2t118 2q60 0 62 2q2 1 2 5q0 18 -44 93l-4 8q-6 8 -11 14t-12 10t-12 6t-13 3t-12 1h-16h-16h-477q-52 0 -52 40q0 16 8 37q4 10 8 21t7 23t7 26t7 27t7 26.5t8 25.5t7 23t5 21q10 38 0 36q-8 -6 -53 -31t-65.5 -38 t-48.5 -37.5t-38 -48.5q-24 -62 -96.5 -253t-110.5 -282q-6 -12 0 -12t38 8q157 39 213 147q37 75 62 89q16 9 55 9q22 0 52 -3q16 -2 26 -6t15 -14t5 -27q-6 -245 -6 -369q0 -41 -17 -60t-55 -19q-24 1 -73 1h-55q-92 -1 -127 -1q-8 2 -16 0t-16 -5t-15.5 -7t-15.5 -10 l-12 -12q-8 -6 -14 -14t-11 -17t-9 -18t-7 -20t-3 -20q-4 -10 -8 -19l-4 -9v-4q40 0 183 -1h84q72 0 99 1q40 2 54 -11t8 -53q-30 -197 -116 -356q-107 -201 -292 -356q-2 0 -8 -4t-6 -5t-6 -6t-6 -6t-4 -7t-2 -8zM593 269q16 -8 48 -47q34 -40 79.5 -99t89.5 -112.5 t82 -97.5q35 -40 37 -42q4 4 6 10q16 50 21 66t13 51t7 53.5t-11 30.5q-24 28 -260 311zM1144 -73h159l46 -175l241 175h366v1449h-812v-1449zM1303 70v1162h494v-1162h-159l-225 -145l-46 145h-64z" />
<glyph unicode="j" horiz-adv-x="2258" d="M66 671.5q0 215.5 84 412.5t226 339t339 226t412.5 84t412.5 -84t339 -226t226 -339t84 -412.5t-84 -412.5t-226 -339t-339 -226t-412.5 -84t-412.5 84t-339 226t-226 339t-84 412.5zM221 669q0 -170 61.5 -326.5t171.5 -278.5q14 27 39 63.5t94.5 118t148 152t201 146.5 t255.5 119q16 4 35 11q-33 72 -75 153q-201 -60 -436 -92t-332 -35q-61 -3 -110 -3q-29 0 -53 1v-29zM240 856q58 0 143 2t295.5 30t399.5 78q-156 278 -336 524q-191 -91 -324.5 -258t-177.5 -376zM572 -46q245 -191 556 -191q184 0 354 73q-56 330 -193 686q-4 0 -6 -2 q-145 -50 -269.5 -124.5t-198 -139.5t-133.5 -139t-80 -106t-30 -57zM916 1551q180 -243 338 -531q110 43 204.5 97t150 106t80.5 79t40 45q-257 231 -601 231q-108 0 -212 -27zM1322 885q34 -66 61 -131l20 -45q131 10 222 11h15q84 0 181 -10q105 -12 145.5 -19t67.5 -13 q-3 319 -204 566q-16 -21 -44 -50t-88 -85t-160 -116t-216 -108zM1457 566q127 -344 176 -647q156 104 257.5 262.5t132.5 344.5q-19 7 -44.5 13t-86 17.5t-122.5 17.5q-53 5 -123 5h-24q-85 -1 -166 -13z" />
<glyph unicode="k" horiz-adv-x="1963" d="M16 1110q0 128 91 216l156 156q89 88 217 88t217 -91l219 -220q89 -89 89 -216q0 -132 -94 -223l94 -94q91 94 221 94q128 0 218 -90l221 -221q90 -90 90 -218t-91 -216l-156 -156q-89 -88 -217 -88t-217 91l-219 220q-89 89 -89 216q0 132 94 223l-94 94 q-91 -94 -221 -94q-128 0 -218 90l-221 221q-90 90 -90 218zM221 1110q0 -43 29 -73l222 -221q29 -29 73 -29t76 33q-3 3 -20 19.5t-23 23t-16 20.5t-13.5 27t-3.5 29q0 43 29.5 72.5t72.5 29.5q16 0 29 -3.5t27 -13.5t20.5 -16t23 -23t19.5 -20q35 33 35 78q0 42 -30 72 l-219 221q-30 29 -72 29t-73 -28l-157 -156q-29 -30 -29 -71zM970 358q0 -42 30 -72l219 -221q29 -28 72 -28t73 27l157 156q29 30 29 71q0 43 -29 73l-222 221q-30 30 -73 30q-44 0 -76 -34q3 -3 20 -19.5t23 -23t16 -20.5t13.5 -27t3.5 -29q0 -43 -29.5 -72.5t-72.5 -29.5 q-16 0 -29 3.5t-27 13.5t-20.5 16t-23 23t-19.5 20q-35 -33 -35 -78z" />
<glyph unicode="l" horiz-adv-x="522" />
<glyph unicode="m" horiz-adv-x="1569" />
<glyph unicode="n" horiz-adv-x="1108" />
<glyph unicode="o" horiz-adv-x="1010" />
<glyph unicode="p" horiz-adv-x="1010" />
<glyph unicode="q" horiz-adv-x="1024" />
<glyph unicode="r" horiz-adv-x="692" />
<glyph unicode="s" horiz-adv-x="702" />
<glyph unicode="t" horiz-adv-x="674" />
<glyph unicode="u" horiz-adv-x="1059" />
<glyph unicode="v" horiz-adv-x="993" />
<glyph unicode="w" horiz-adv-x="1415" />
<glyph unicode="x" horiz-adv-x="1010" />
<glyph unicode="y" horiz-adv-x="868" />
<glyph unicode="z" horiz-adv-x="727" />
<glyph unicode="{" d="M240 638v60q172 5 223 71t51 133v468q0 74 77 141.5t185 67.5h108v-50h-90q-61 0 -107 -33.5t-47 -91.5v-500q0 -83 -60.5 -158.5t-142.5 -76.5v-2q82 -1 143 -76t61 -158l-1 -500q1 -58 47 -91.5t107 -33.5h90v-50h-108q-108 0 -184.5 67.5t-77.5 141.5v468 q0 66 -51 132t-223 71z" />
<glyph unicode="|" d="M427 -418v1995h160v-1995h-160z" />
<glyph unicode="}" d="M130 -192h90q61 0 107 33.5t47 91.5l-1 500q0 83 61 158t144 76v2q-83 1 -143.5 76.5t-60.5 158.5v500q-1 58 -47 91.5t-107 33.5h-90v50h108q108 0 185 -67.5t77 -141.5v-468q0 -67 51 -133t223 -71v-60q-172 -5 -223 -71t-51 -132v-468q-1 -74 -77.5 -141.5 t-184.5 -67.5h-108v50z" />
<glyph unicode="~" d="M94 556v156q64 73 123 99t114 26q64 0 181.5 -49.5t172.5 -49.5q52 0 108.5 28t129.5 112v-156q-63 -72 -122 -97.5t-116 -25.5q-60 0 -177.5 48.5t-176.5 48.5q-51 0 -107.5 -28t-129.5 -112z" />
<glyph unicode="&#xa1;" horiz-adv-x="672" />
<glyph unicode="&#xa2;" horiz-adv-x="1139" />
<glyph unicode="&#xa3;" d="M76 673v60h135q-58 143 -58 253q0 226 123.5 347t306.5 121h4q75 0 185.5 -14t110.5 -34v-161h-58q-5 61 -77 102q-72 31 -160 31h-2q-100 0 -190 -101q-84 -93 -84 -241q0 -15 1 -30q0 -135 53 -273h360v-60h-334q14 -30 31 -60q35 -63 35 -138q0 -161 -162 -375h402 q130 0 189 132l49 -1l-103 -231h-719l1 50q187 238 187 418q0 77 -34 143q-17 32 -31 62h-161z" />
<glyph unicode="&#xa4;" d="M122 413l118 117q-32 46 -48 103q-12 42 -12 84q0 44 13 87q16 55 47 99l-118 118l80 81l118 -118q44 30 99 46q44 14 89 14q41 0 83 -12q57 -17 102 -48l118 118l80 -81l-117 -117q31 -46 48 -102q12 -42 12 -85q0 -42 -12 -85q-17 -56 -48 -102l117 -117l-80 -81 l-118 118q-45 -32 -101 -48q-42 -12 -85 -12q-42 0 -85 12q-57 16 -102 48l-118 -118zM284 716q0 -28 9 -56q16 -59 57 -100q41 -40 99 -57q29 -8 58 -8t58 8q58 17 99 57q40 41 57 99q9 29 9 58t-9 58q-17 58 -57 99q-41 40 -100 57q-29 8 -58 8t-58 -9q-58 -17 -98 -56 q-39 -40 -56 -98q-10 -30 -10 -60z" />
<glyph unicode="&#xa5;" horiz-adv-x="1262" d="M8 1176q0 19 10.5 27.5t32.5 8.5q27 0 123 -8t164 -8h57h31q33 0 41 -6.5t8 -26.5q0 -8 -15 -14t-38 -6q-6 0 -18.5 2t-18.5 2q-24 0 -37.5 -9.5t-13.5 -25.5q0 -18 16.5 -52t46.5 -77l158 -221q13 -19 33 -53q41 -70 71 -70q9 0 16.5 5t14.5 15l277 396q8 12 13 26.5 t5 24.5q0 18 -10 27t-37 14q-15 2 -41 4q-47 3 -47 25q0 15 8 22.5t25 7.5q3 0 15 -1q56 -7 108 -7h139q30 0 65 1t37 1q11 0 18.5 -4.5t8.5 -11.5q0 -28 -38 -34q-18 -3 -27 -5q-63 -15 -147 -117q-7 -9 -12 -15l-169 -206h323q15 0 24 -6t9 -17q0 -15 -6 -20.5t-23 -5.5 h-366q-46 -57 -96.5 -112.5t-52.5 -59.5h511q18 0 25.5 -5.5t7.5 -17.5q0 -14 -7 -21t-22 -7h-530q0 -11 -1 -30.5t-1 -29.5l2 -215q0 -114 5.5 -150t20.5 -44q30 -17 107.5 -19t77.5 -31q0 -12 -10 -20t-25 -8q-2 0 -35.5 4t-64.5 4q-91 0 -208.5 -4t-142.5 -4q-31 0 -40 4 t-9 16t8 18.5t37 12.5q9 2 25 5q74 16 92 32q17 13 24 47t7 102l-2 242q0 19 -1.5 35t-4.5 32l-484 1q-14 0 -21 6.5t-7 19.5t6.5 19t21.5 6h467l-121 172h-344q-17 0 -23.5 5.5t-6.5 18.5q0 14 6 19.5t22 5.5h307q-43 57 -108 155q-131 197 -227 197q-7 0 -13 5.5t-6 11.5z " />
<glyph unicode="&#xa6;" d="M427 371h160v-789h-160v789zM427 789v789h160v-789h-160z" />
<glyph unicode="&#xa7;" d="M170 1130q0 148 89 237q82 79 216 86q8 1 17 1h3q66 0 163 -16.5t97 -41.5v-194h-51q-5 81 -80 132q-70 47 -149 51h-15q-78 0 -125 -44.5t-47 -117.5q0 -132 287 -269q149 -67 204.5 -143.5t55.5 -187.5q0 -171 -101 -282q-47 -39 -99 -64q108 -56 154 -118 q55 -77 55 -187q0 -171 -101 -283q-124 -102 -277 -105v1q-6 -1 -13 -1h-3q-66 0 -163 16.5t-97 41.5v194h51q5 -81 80 -132q68 -45 145 -50q113 6 185 69q72 64 72 165q0 125 -316 276q-123 64 -175.5 137t-52.5 177q0 148 89 237q67 65 170 82l-40 19q-123 64 -175.5 137 t-52.5 177zM297 571q0 -123 248 -250q56 16 97 53q73 65 73 166q0 5 -1 10h-2q-1 14 -4 27q-22 61 -113 127q-59 29 -126 29q-78 0 -125 -44.5t-47 -117.5z" />
<glyph unicode="&#xa8;" horiz-adv-x="1024" d="M209 1263q0 13 14 26l71 72q13 12 25 12q11 0 27 -14l69 -73q10 -14 10 -25q0 -13 -12 -27l-69 -75q-17 -17 -25 -17q-14 0 -25 12l-76 86q-9 12 -9 23zM574 1263q0 13 14 26l71 72q13 12 25 12q11 0 27 -13l69 -74q10 -14 10 -25q0 -13 -12 -26l-69 -76q-17 -17 -25 -17 q-14 0 -25 12l-76 87q-9 11 -9 22z" />
<glyph unicode="&#xa9;" horiz-adv-x="1674" d="M100 718q0 148 55.5 283t159.5 238q102 104 238.5 160.5t286.5 56.5q145 0 280 -56.5t239 -160.5q102 -101 158.5 -238t56.5 -283q0 -147 -56.5 -282t-162.5 -240q-105 -105 -239 -159.5t-283 -54.5q-146 0 -278 55.5t-238 160.5q-106 104 -161.5 237.5t-55.5 282.5z M160 718q0 -137 51 -259t148 -219q98 -96 219 -147t256 -51q137 0 259.5 50.5t219.5 145.5q97 98 149 221.5t52 258.5q0 134 -52 259.5t-145 219.5q-96 96 -220 147.5t-258 51.5q-137 0 -262 -51.5t-220 -147.5t-146 -219.5t-51 -259.5zM351 719q0 126 65.5 244t187.5 184.5 t254 66.5q38 0 75 -6.5t76 -20.5q5 -1 9 -1q19 0 26 30h42l72 -198h-44q-52 94 -131 124q-72 26 -147 26h-15q-86 -8 -166.5 -71t-121.5 -177q-33 -90 -33 -184q0 -25 2 -50q11 -121 69.5 -224t149.5 -152q72 -40 166 -42q124 0 194 56t70 126h53v-100q0 -46 -96.5 -86.5 t-242.5 -40.5q-142 0 -264 68t-186 185t-64 243z" />
<glyph unicode="&#xaa;" horiz-adv-x="648" />
<glyph unicode="&#xab;" horiz-adv-x="944" d="M174 479l342 303h14v-37l-205 -266l205 -266v-37h-14zM487 479l342 303h14v-37l-205 -266l205 -266v-37h-14z" />
<glyph unicode="&#xac;" d="M87 667v100h840v-491l-1 -1h-98v392h-741z" />
<glyph unicode="&#xad;" horiz-adv-x="670" d="M116 437v83q0 29 41 29h356q41 0 41 -29v-83q0 -28 -40 -28h-358q-40 0 -40 28z" />
<glyph unicode="&#xae;" horiz-adv-x="1674" d="M100 718q0 148 55.5 283t159.5 238q102 104 238.5 160.5t286.5 56.5q145 0 280 -56.5t239 -160.5q102 -101 158.5 -238t56.5 -283q0 -147 -56.5 -282t-162.5 -240q-105 -105 -239 -159.5t-283 -54.5q-146 0 -278 55.5t-238 160.5q-106 104 -161.5 237.5t-55.5 282.5z M160 718q0 -137 51 -259t148 -219q98 -96 219 -147t256 -51q137 0 259.5 50.5t219.5 145.5q97 98 149 221.5t52 258.5q0 134 -52 259.5t-145 219.5q-96 96 -220 147.5t-258 51.5q-137 0 -262 -51.5t-220 -147.5t-146 -219.5t-51 -259.5zM524 269v50h43q37 0 37 121v538 q0 121 -37 121h-43v70h356q64 -1 125 -42q60 -41 92.5 -114t32.5 -152q0 -78 -32 -150.5t-114 -134.5l82 -116q100 -141 150 -141h34v-50h-346v50h45q30 0 30 22q0 29 -69 114l-75 102q-42 0 -84 42v-159q0 -121 36 -121h53v-50h-316zM751 725l3 -8q23 -56 56 -81 q29 -22 56 -22h6q31 4 61.5 38.5t46.5 97.5q13 50 13 103q0 13 -1 27q-4 67 -28 124.5t-56.5 76t-63.5 18.5h-93v-374z" />
<glyph unicode="&#xaf;" horiz-adv-x="670" />
<glyph unicode="&#xb0;" horiz-adv-x="674" d="M60 1164q0 116 81.5 197t197.5 81q115 0 196 -81.5t81 -196.5q0 -114 -82 -196t-197 -82q-117 0 -197 81t-80 197zM130 1163q0 -87 61 -147t148 -60t147 60t60 147t-60.5 148t-146.5 61t-147.5 -61t-61.5 -148z" />
<glyph unicode="&#xb1;" />
<glyph unicode="&#xb2;" />
<glyph unicode="&#xb3;" />
<glyph unicode="&#xb4;" horiz-adv-x="1024" d="M316 1078l291 297q35 35 55.5 47t40.5 12q33 0 53.5 -20t20.5 -51q0 -22 -15.5 -42t-46.5 -40l-330 -203h-69z" />
<glyph unicode="&#xb5;" horiz-adv-x="1180" />
<glyph unicode="&#xb6;" horiz-adv-x="1024" d="M93 1086q0 157 107.5 253t285.5 96h443v-70h-127v-1365h-82v1365h-166v-1365h-84v738q-174 8 -275.5 102.5t-101.5 245.5z" />
<glyph unicode="&#xb7;" horiz-adv-x="508" d="M129 709q0 15 16 31l82 84q15 14 29 14q13 0 31 -16l80 -86q12 -16 12 -29q0 -15 -14 -31l-80 -88q-20 -20 -29 -20q-16 0 -29 14l-88 101q-10 13 -10 26z" />
<glyph unicode="&#xb8;" horiz-adv-x="1024" d="M360 -290q85 -52 152 -52q66 0 94.5 21.5t28.5 66.5t-49 64q-40 16 -102 16q-16 0 -34 -2l48 176h63l-37 -104q32 4 62 5q86 0 134 -40.5t48 -113.5q0 -76 -58.5 -120.5t-160.5 -44.5q-109 0 -189 32v96z" />
<glyph unicode="&#xb9;" />
<glyph unicode="&#xba;" horiz-adv-x="718" />
<glyph unicode="&#xbb;" horiz-adv-x="944" d="M101 176v37l205 266l-205 266v37h14l342 -303l-342 -303h-14zM414 176v37l205 266l-205 266v37h14l342 -303l-342 -303h-14z" />
<glyph unicode="&#xbc;" horiz-adv-x="1708" />
<glyph unicode="&#xbd;" horiz-adv-x="1964" />
<glyph unicode="&#xbe;" horiz-adv-x="1708" />
<glyph unicode="&#xbf;" horiz-adv-x="748" />
<glyph unicode="&#xc0;" horiz-adv-x="1540" />
<glyph unicode="&#xc1;" horiz-adv-x="1540" />
<glyph unicode="&#xc2;" horiz-adv-x="1540" />
<glyph unicode="&#xc3;" horiz-adv-x="1540" />
<glyph unicode="&#xc4;" horiz-adv-x="1540" />
<glyph unicode="&#xc5;" horiz-adv-x="1540" />
<glyph unicode="&#xc6;" horiz-adv-x="2118" />
<glyph unicode="&#xc7;" horiz-adv-x="1399" />
<glyph unicode="&#xc8;" horiz-adv-x="1151" />
<glyph unicode="&#xc9;" horiz-adv-x="1151" />
<glyph unicode="&#xca;" horiz-adv-x="1151" />
<glyph unicode="&#xcb;" horiz-adv-x="1151" />
<glyph unicode="&#xcc;" horiz-adv-x="657" />
<glyph unicode="&#xcd;" horiz-adv-x="657" />
<glyph unicode="&#xce;" horiz-adv-x="657" />
<glyph unicode="&#xcf;" horiz-adv-x="657" />
<glyph unicode="&#xd0;" horiz-adv-x="1518" />
<glyph unicode="&#xd1;" horiz-adv-x="1554" />
<glyph unicode="&#xd2;" horiz-adv-x="1614" />
<glyph unicode="&#xd3;" horiz-adv-x="1614" />
<glyph unicode="&#xd4;" horiz-adv-x="1614" />
<glyph unicode="&#xd5;" horiz-adv-x="1614" />
<glyph unicode="&#xd6;" horiz-adv-x="1614" />
<glyph unicode="&#xd7;" d="M161 470l247 247l-247 248l99 98l247 -247l248 247l98 -99l-247 -247l247 -247l-99 -99l-247 247l-247 -247z" />
<glyph unicode="&#xd8;" horiz-adv-x="1614" />
<glyph unicode="&#xd9;" horiz-adv-x="1501" />
<glyph unicode="&#xda;" horiz-adv-x="1501" />
<glyph unicode="&#xdb;" horiz-adv-x="1501" />
<glyph unicode="&#xdc;" horiz-adv-x="1501" />
<glyph unicode="&#xdd;" horiz-adv-x="1233" />
<glyph unicode="&#xde;" horiz-adv-x="1120" />
<glyph unicode="&#xdf;" horiz-adv-x="1251" />
<glyph unicode="&#xe0;" horiz-adv-x="922" />
<glyph unicode="&#xe1;" horiz-adv-x="922" />
<glyph unicode="&#xe2;" horiz-adv-x="922" />
<glyph unicode="&#xe3;" horiz-adv-x="922" />
<glyph unicode="&#xe4;" horiz-adv-x="922" />
<glyph unicode="&#xe5;" horiz-adv-x="922" />
<glyph unicode="&#xe6;" horiz-adv-x="1454" />
<glyph unicode="&#xe7;" horiz-adv-x="905" />
<glyph unicode="&#xe8;" horiz-adv-x="909" />
<glyph unicode="&#xe9;" horiz-adv-x="909" />
<glyph unicode="&#xea;" horiz-adv-x="909" />
<glyph unicode="&#xeb;" horiz-adv-x="909" />
<glyph unicode="&#xec;" horiz-adv-x="514" />
<glyph unicode="&#xed;" horiz-adv-x="514" />
<glyph unicode="&#xee;" horiz-adv-x="514" />
<glyph unicode="&#xef;" horiz-adv-x="514" />
<glyph unicode="&#xf0;" horiz-adv-x="1139" />
<glyph unicode="&#xf1;" horiz-adv-x="1108" />
<glyph unicode="&#xf2;" horiz-adv-x="1010" />
<glyph unicode="&#xf3;" horiz-adv-x="1010" />
<glyph unicode="&#xf4;" horiz-adv-x="1010" />
<glyph unicode="&#xf5;" horiz-adv-x="1010" />
<glyph unicode="&#xf6;" horiz-adv-x="1010" />
<glyph unicode="&#xf7;" d="M87 647v140h839l1 -1v-139h-840zM382 377q0 15 16 31l82 84q15 14 29 14q13 0 31 -16l80 -86q12 -16 12 -29q0 -15 -14 -31l-80 -88q-20 -20 -29 -20q-16 0 -29 14l-88 101q-10 13 -10 26zM382 1070q0 15 16 31l82 84q15 14 29 14q13 0 31 -16l80 -86q12 -16 12 -29 q0 -15 -14 -31l-80 -88q-20 -20 -29 -20q-16 0 -29 14l-88 101q-10 13 -10 26z" />
<glyph unicode="&#xf8;" horiz-adv-x="1010" />
<glyph unicode="&#xf9;" horiz-adv-x="1059" />
<glyph unicode="&#xfa;" horiz-adv-x="1059" />
<glyph unicode="&#xfb;" horiz-adv-x="1059" />
<glyph unicode="&#xfc;" horiz-adv-x="1059" />
<glyph unicode="&#xfd;" horiz-adv-x="868" />
<glyph unicode="&#xfe;" horiz-adv-x="1010" />
<glyph unicode="&#xff;" horiz-adv-x="868" />
<glyph unicode="&#x2c6;" horiz-adv-x="1024" d="M221 1079l232 355h118l232 -355h-58l-233 216l-233 -216h-58z" />
<glyph unicode="&#x2dc;" horiz-adv-x="1024" d="M234 1132q19 106 68 158.5t129 52.5q46 -1 113 -24q64 -23 112 -23h4q36 0 58 20t36 66h54q-20 -103 -68.5 -154t-126.5 -51h-4q-50 0 -113 23q-66 24 -114 24q-39 0 -60.5 -20.5t-33.5 -71.5h-54z" />
<glyph unicode="&#x2000;" horiz-adv-x="938" />
<glyph unicode="&#x2001;" horiz-adv-x="1877" />
<glyph unicode="&#x2002;" horiz-adv-x="938" />
<glyph unicode="&#x2003;" horiz-adv-x="1877" />
<glyph unicode="&#x2004;" horiz-adv-x="625" />
<glyph unicode="&#x2005;" horiz-adv-x="469" />
<glyph unicode="&#x2006;" horiz-adv-x="312" />
<glyph unicode="&#x2007;" horiz-adv-x="312" />
<glyph unicode="&#x2008;" horiz-adv-x="234" />
<glyph unicode="&#x2009;" horiz-adv-x="375" />
<glyph unicode="&#x200a;" horiz-adv-x="104" />
<glyph unicode="&#x2010;" horiz-adv-x="670" d="M116 437v83q0 29 41 29h356q41 0 41 -29v-83q0 -28 -40 -28h-358q-40 0 -40 28z" />
<glyph unicode="&#x2011;" horiz-adv-x="670" d="M116 437v83q0 29 41 29h356q41 0 41 -29v-83q0 -28 -40 -28h-358q-40 0 -40 28z" />
<glyph unicode="&#x2012;" horiz-adv-x="670" d="M116 437v83q0 29 41 29h356q41 0 41 -29v-83q0 -28 -40 -28h-358q-40 0 -40 28z" />
<glyph unicode="&#x2013;" horiz-adv-x="1108" d="M56 419v120h996v-120h-996z" />
<glyph unicode="&#x2014;" horiz-adv-x="2048" d="M0 419v120h2048v-120h-2048z" />
<glyph unicode="&#x2018;" horiz-adv-x="557" d="M186 1233q0 109 71 226.5t139 117.5v-43q-73 -43 -87 -190q0 -119 129 -161v-42l-119 -125q-44 0 -88.5 65.5t-44.5 151.5z" />
<glyph unicode="&#x2019;" horiz-adv-x="557" d="M119 1410v42l119 125q44 0 88.5 -65.5t44.5 -151.5q0 -109 -71 -226.5t-139 -117.5v43q73 43 87 190q0 119 -129 161z" />
<glyph unicode="&#x201a;" horiz-adv-x="557" d="M119 114v42l119 125q44 0 88.5 -65.5t44.5 -151.5q0 -109 -71 -226.5t-139 -117.5v43q73 43 87 190q0 119 -129 161z" />
<glyph unicode="&#x201c;" horiz-adv-x="910" d="M186 1233q0 109 71 226.5t139 117.5v-43q-73 -43 -87 -190q0 -119 129 -161v-42l-119 -125q-44 0 -88.5 65.5t-44.5 151.5zM539 1233q0 109 71 226.5t139 117.5v-43q-73 -43 -87 -190q0 -119 129 -161v-42l-119 -125q-44 0 -88.5 65.5t-44.5 151.5z" />
<glyph unicode="&#x201d;" horiz-adv-x="910" d="M119 1410v42l119 125q44 0 88.5 -65.5t44.5 -151.5q0 -109 -71 -226.5t-139 -117.5v43q73 43 87 190q0 119 -129 161zM472 1410v42l119 125q44 0 88.5 -65.5t44.5 -151.5q0 -109 -71 -226.5t-139 -117.5v43q73 43 87 190q0 119 -129 161z" />
<glyph unicode="&#x201e;" horiz-adv-x="910" d="M119 114v42l119 125q44 0 88.5 -65.5t44.5 -151.5q0 -109 -71 -226.5t-139 -117.5v43q73 43 87 190q0 119 -129 161zM472 114v42l119 125q44 0 88.5 -65.5t44.5 -151.5q0 -109 -71 -226.5t-139 -117.5v43q73 43 87 190q0 119 -129 161z" />
<glyph unicode="&#x2022;" horiz-adv-x="1024" d="M216 718q0 123 87 209t210 86q122 0 208.5 -86.5t86.5 -208.5t-87.5 -209.5t-209.5 -87.5q-123 0 -209 87t-86 210z" />
<glyph unicode="&#x2026;" horiz-adv-x="2048" d="M129 136q0 15 16 31l82 84q15 14 29 14q13 0 31 -16l80 -86q12 -16 12 -29q0 -15 -14 -31l-80 -88q-20 -20 -29 -20q-16 0 -29 14l-88 101q-10 13 -10 26zM812 136q0 15 16 31l82 84q15 14 29 14q13 0 31 -16l80 -86q12 -16 12 -29q0 -15 -14 -31l-80 -88 q-20 -20 -29 -20q-16 0 -29 14l-88 101q-10 13 -10 26zM1495 136q0 15 16 31l82 84q15 14 29 14q13 0 31 -16l80 -86q12 -16 12 -29q0 -15 -14 -31l-80 -88q-20 -20 -29 -20q-16 0 -29 14l-88 101q-10 13 -10 26z" />
<glyph unicode="&#x202f;" horiz-adv-x="375" />
<glyph unicode="&#x2039;" horiz-adv-x="631" d="M174 479l342 303h14v-37l-205 -266l205 -266v-37h-14z" />
<glyph unicode="&#x203a;" horiz-adv-x="631" d="M101 176v37l205 266l-205 266v37h14l342 -303l-342 -303h-14z" />
<glyph unicode="&#x205f;" horiz-adv-x="469" />
<glyph unicode="&#x20ac;" d="M-44 653l17 60h87v29q0 16 1 31h-71l17 60h58q14 145 76 281q81 178 226 274t298 96q43 0 87 -8q40 -10 82 -29q8 -6 16 -6q20 0 34 45h41l84 -281l-40 -1q-49 134 -138 178q-43 22 -81 32v3q-50 16 -101 16q-17 0 -34 -2q-120 -12 -226 -113.5t-157 -273.5 q-32 -104 -39 -211h706l-17 -60h-692q0 -30 2 -60h674l-17 -60h-652q17 -158 83 -298q74 -157 193 -236q102 -68 216 -69q186 3 256 91q74 91 74 185h48v-143q0 -70 -111 -127q-105 -54 -267 -56q-181 0 -325.5 98t-223.5 274q-62 135 -76 281h-108z" />
<glyph unicode="&#x2122;" horiz-adv-x="1497" />
<glyph unicode="&#x25fc;" horiz-adv-x="500" d="M0 0z" />
</font>
</defs>
</svg>
